<svg width="916" height="211" viewBox="0 0 916 211" fill="none" xmlns="http://www.w3.org/2000/svg">
<g clip-path="url(#clip0_1_35)">
<path d="M26.1254 93.8756C25.182 96.0463 23.9015 97.8009 22.2729 99.1505C20.6555 100.5 18.0834 102.187 14.579 104.223C18.0946 106.383 20.6555 108.081 22.2729 109.296C23.8903 110.51 25.1707 112.242 26.1254 114.469C27.0689 116.696 27.5407 119.71 27.5407 123.489V165.666C27.5407 171.076 29.1244 174.99 32.303 177.431C35.4704 179.86 40.7045 181.086 47.994 181.086V192.244H43.1306C33.2689 192.244 26.1142 190.422 21.6664 186.766C17.2073 183.111 14.9834 177.161 14.9834 168.917V122.68C14.9834 118.215 14.1747 114.975 12.5573 112.951C10.9399 110.926 8.43517 109.914 5.06559 109.914H0V98.5544H5.06559C11.6812 98.5544 14.9946 94.2918 14.9946 85.7776V39.3267C14.9946 31.0825 17.2185 25.1327 21.6776 21.4774C26.1254 17.822 33.2802 16 43.1418 16H48.0052V27.1572C40.7157 27.1572 35.4816 28.4057 32.3142 30.9025C29.1356 33.4107 27.5519 37.3584 27.5519 42.7683V84.9453C27.5519 88.7356 27.0802 91.7049 26.1367 93.8644L26.1254 93.8756Z" fill="#5FC8D8"/>
<path d="M270.566 98.5432V109.903H265.5C262.119 109.903 259.626 110.915 258.008 112.94C256.391 114.964 255.582 118.215 255.582 122.668V168.906C255.582 177.15 253.358 183.1 248.899 186.755C244.44 190.41 237.286 192.232 227.435 192.232H222.572V181.075C229.861 181.075 235.095 179.86 238.263 177.42C241.43 174.99 243.025 171.065 243.025 165.655V123.478C243.025 119.699 243.497 116.685 244.44 114.458C245.384 112.231 246.664 110.499 248.293 109.284C249.91 108.07 252.471 106.382 255.987 104.212C252.471 102.187 249.91 100.5 248.293 99.1393C246.675 97.7896 245.384 96.0351 244.44 93.8644C243.497 91.7049 243.025 88.7244 243.025 84.9453V42.7683C243.025 37.3584 241.441 33.4107 238.263 30.9025C235.084 28.4057 229.861 27.1572 222.572 27.1572V16H227.435C237.286 16 244.451 17.822 248.899 21.4774C253.358 25.1215 255.582 31.0825 255.582 39.3267V85.7664C255.582 94.2805 258.884 98.5432 265.511 98.5432H270.577H270.566Z" fill="#5FC8D8"/>
<path d="M135.288 177.51C94.876 177.51 62.0002 144.589 62.0002 104.122C62.0002 63.6544 94.876 30.7226 135.288 30.7226C175.701 30.7226 208.577 63.6431 208.577 104.111C208.577 144.578 175.701 177.499 135.288 177.499V177.51ZM135.288 42.9595C101.615 42.9595 74.2093 70.3914 74.2093 104.122C74.2093 137.852 101.604 165.284 135.288 165.284C168.973 165.284 196.368 137.852 196.368 104.122C196.368 70.3914 168.973 42.9595 135.288 42.9595V42.9595Z" fill="#5FC8D8"/>
<path d="M155.435 73.0907L129.919 104.689L135.858 109.498L161.374 77.8996L155.435 73.0907Z" fill="#5FC8D8"/>
<path d="M134.715 98.7227L129.914 104.671L161.474 130.216L166.275 124.268L134.715 98.7227Z" fill="#5FC8D8"/>
</g>
<path d="M377.954 76.5583C384.719 80.0985 390.008 85.0603 393.766 91.4438C397.524 97.8273 399.417 105.159 399.417 113.41C399.417 121.661 397.496 129.02 393.71 135.431C389.897 141.843 384.524 146.833 377.592 150.373C370.661 153.913 362.699 155.669 353.735 155.669H318.242V71.262H354.543C363.367 71.262 371.162 73.0181 377.926 76.5583H377.954ZM366.485 134.846C369.77 132.839 372.331 129.996 374.168 126.288C376.006 122.609 376.924 118.372 376.924 113.633C376.924 108.894 375.95 104.573 373.973 100.866C372.025 97.1862 369.297 94.2872 365.845 92.2522C362.393 90.2173 358.468 89.1859 354.069 89.1859H340.234V137.829H355.155C359.414 137.829 363.172 136.825 366.457 134.818L366.485 134.846Z" fill="#5FC8D8"/>
<path d="M410.357 71.262H476.861V88.8514H432.377V104.629H472.547V122.079L432.377 122.191V138.08H478.058V155.669H410.357V71.262V71.262Z" fill="#5FC8D8"/>
<path d="M483.097 71.262H506.787L527.832 132.309L548.989 71.262H571.593L538.633 155.669H515.778L483.069 71.262H483.097Z" fill="#5FC8D8"/>
<path d="M592.694 53.6168C593.78 54.7039 594.308 56.0419 594.308 57.6587C594.308 59.2755 593.78 60.6414 592.694 61.7564C591.608 62.8714 590.272 63.429 588.657 63.429C587.043 63.429 585.818 62.8714 584.76 61.7564C583.674 60.6414 583.146 59.2755 583.146 57.6587C583.146 56.0419 583.674 54.7039 584.704 53.6168C585.734 52.5296 587.071 52 588.685 52C590.3 52 591.636 52.5575 592.722 53.6168H592.694ZM584.565 71.485H592.861V155.641H584.565V71.485Z" fill="#5FC8D8"/>
<path d="M613.071 71.5128H679.325V77.8963L622.341 148.226H679.826V155.697H611.54V149.202L668.663 79.0114H613.099V71.5407L613.071 71.5128Z" fill="#5FC8D8"/>
<path d="M698.449 71.3735H708.777L741.709 134.595L774.307 71.3735H784.634V155.669H776.951L776.84 82.9418L743.88 146.637H739.315L706.244 82.9418V155.669H698.421V71.3735H698.449Z" fill="#5FC8D8"/>
<path d="M819.237 53.6168C820.322 54.7039 820.851 56.0419 820.851 57.6587C820.851 59.2755 820.322 60.6414 819.237 61.7564C818.151 62.8714 816.815 63.429 815.2 63.429C813.586 63.429 812.361 62.8714 811.303 61.7564C810.217 60.6414 809.688 59.2755 809.688 57.6587C809.688 56.0419 810.217 54.7039 811.247 53.6168C812.277 52.5296 813.613 52 815.228 52C816.843 52 818.179 52.5575 819.264 53.6168H819.237ZM811.108 71.485H819.404V155.641H811.108V71.485Z" fill="#5FC8D8"/>
<path d="M901.274 155.669L883.124 128.212C880.563 128.379 878.587 128.463 877.222 128.463H854.145V155.669H845.849V71.5128H877.222C887.717 71.5128 895.846 73.938 901.58 78.7884C907.315 83.6387 910.182 90.524 910.182 99.4441C910.182 106.441 908.512 112.239 905.144 116.894C901.775 121.549 896.959 124.811 890.724 126.651L910.934 155.669H901.302H901.274ZM877.222 120.992C885.24 120.992 891.42 119.18 895.734 115.528C900.049 111.877 902.221 106.608 902.221 99.695C902.221 92.7819 900.049 87.82 895.734 84.2798C891.42 80.7397 885.24 78.9835 877.222 78.9835H854.145V120.992H877.222V120.992Z" fill="#5FC8D8"/>
<defs>
<clipPath id="clip0_1_35">
<rect width="271" height="177" fill="white" transform="translate(0 16)"/>
</clipPath>
</defs>
</svg>
