<svg width="713" height="164" viewBox="0 0 713 164" fill="none" xmlns="http://www.w3.org/2000/svg">
<rect width="713" height="163.77" fill="#404C6E"/>
<path d="M269.098 101.957L270.989 101.761L271.12 105.609C266.164 106.304 261.925 106.652 258.404 106.652C253.708 106.652 250.383 105.304 248.426 102.609C246.47 99.8702 245.492 95.6315 245.492 89.8929C245.492 78.4593 250.035 72.7425 259.121 72.7425C263.512 72.7425 266.794 73.9815 268.968 76.4595C271.141 78.894 272.228 82.7415 272.228 88.0018L271.967 91.7188H250.448C250.448 95.3272 251.1 98.0008 252.404 99.7398C253.708 101.479 255.969 102.348 259.186 102.348C262.447 102.348 265.751 102.218 269.098 101.957ZM267.337 87.8062C267.337 83.8066 266.685 80.9808 265.381 79.3288C264.12 77.6767 262.034 76.8507 259.121 76.8507C256.252 76.8507 254.078 77.7202 252.6 79.4592C251.165 81.1981 250.426 83.9805 250.383 87.8062H267.337ZM290.088 77.1116C285.35 77.1116 282.98 78.7636 282.98 82.0676C282.98 83.5892 283.524 84.676 284.611 85.3282C285.698 85.9368 288.176 86.5889 292.045 87.2845C295.914 87.9366 298.653 88.8713 300.261 90.0885C301.87 91.3058 302.674 93.5882 302.674 96.9357C302.674 100.283 301.587 102.739 299.414 104.305C297.283 105.87 294.153 106.652 290.023 106.652C287.328 106.652 284.154 106.348 280.502 105.739L278.546 105.413L278.807 101.174C283.763 101.913 287.502 102.283 290.023 102.283C292.545 102.283 294.458 101.892 295.762 101.109C297.109 100.283 297.783 98.9355 297.783 97.0661C297.783 95.1533 297.218 93.8708 296.088 93.2187C294.957 92.5231 292.479 91.871 288.654 91.2623C284.828 90.6537 282.111 89.7625 280.502 88.5887C278.894 87.4149 278.09 85.2412 278.09 82.0676C278.09 78.894 279.198 76.5464 281.415 75.0248C283.676 73.5033 286.48 72.7425 289.828 72.7425C292.479 72.7425 295.805 73.0468 299.805 73.6554L301.631 73.9815L301.5 78.155C296.675 77.4594 292.871 77.1116 290.088 77.1116ZM332.335 101.957L334.226 101.761L334.356 105.609C329.4 106.304 325.162 106.652 321.64 106.652C316.945 106.652 313.619 105.304 311.663 102.609C309.707 99.8702 308.728 95.6315 308.728 89.8929C308.728 78.4593 313.272 72.7425 322.358 72.7425C326.748 72.7425 330.031 73.9815 332.204 76.4595C334.378 78.894 335.465 82.7415 335.465 88.0018L335.204 91.7188H313.685C313.685 95.3272 314.337 98.0008 315.641 99.7398C316.945 101.479 319.206 102.348 322.423 102.348C325.683 102.348 328.987 102.218 332.335 101.957ZM330.574 87.8062C330.574 83.8066 329.922 80.9808 328.618 79.3288C327.357 77.6767 325.27 76.8507 322.358 76.8507C319.488 76.8507 317.315 77.7202 315.836 79.4592C314.402 81.1981 313.663 83.9805 313.619 87.8062H330.574ZM343.087 106V73.3946H347.913V77.8289C351.695 75.2205 355.673 73.5033 359.846 72.6772V77.6333C358.02 77.9811 356.107 78.5245 354.108 79.2635C352.151 80.0026 350.651 80.6547 349.608 81.2199L347.978 82.0676V106H343.087ZM361.738 106V98.566H367.086V106H361.738ZM401.179 59.1786V106H396.354V103.783C393.006 105.696 389.702 106.652 386.442 106.652C384.703 106.652 383.181 106.435 381.877 106C380.573 105.565 379.355 104.783 378.225 103.652C375.877 101.305 374.704 96.9792 374.704 90.6754C374.704 84.3283 375.747 79.7635 377.834 76.9812C379.964 74.1554 383.464 72.7425 388.333 72.7425C390.854 72.7425 393.528 73.025 396.354 73.5902V59.1786H401.179ZM382.007 100.131C382.703 100.957 383.442 101.522 384.224 101.827C385.007 102.131 386.007 102.283 387.224 102.283C388.485 102.283 389.876 102.087 391.398 101.696C392.963 101.261 394.18 100.848 395.049 100.457L396.354 99.8702V77.7637C393.571 77.242 390.985 76.9812 388.593 76.9812C385.289 76.9812 382.985 78.0463 381.681 80.1765C380.377 82.2632 379.725 85.5238 379.725 89.9581C379.725 95.0011 380.486 98.3921 382.007 100.131ZM432.826 101.957L434.717 101.761L434.847 105.609C429.891 106.304 425.653 106.652 422.131 106.652C417.436 106.652 414.11 105.304 412.154 102.609C410.198 99.8702 409.219 95.6315 409.219 89.8929C409.219 78.4593 413.762 72.7425 422.849 72.7425C427.239 72.7425 430.522 73.9815 432.695 76.4595C434.869 78.894 435.956 82.7415 435.956 88.0018L435.695 91.7188H414.175C414.175 95.3272 414.828 98.0008 416.132 99.7398C417.436 101.479 419.697 102.348 422.914 102.348C426.174 102.348 429.478 102.218 432.826 101.957ZM431.065 87.8062C431.065 83.8066 430.413 80.9808 429.109 79.3288C427.848 77.6767 425.761 76.8507 422.849 76.8507C419.979 76.8507 417.806 77.7202 416.327 79.4592C414.893 81.1981 414.154 83.9805 414.11 87.8062H431.065ZM440.004 73.3946H445.22L452.85 101.761H455.263L463.153 73.3946H468.175L458.98 106H449.198L440.004 73.3946Z" fill="white"/>
</svg>
