<?xml version="1.0" encoding="UTF-8"?>
<svg id="Layer_1" data-name="Layer 1" xmlns="http://www.w3.org/2000/svg" viewBox="0 0 2465.92 2752.6">
  <g id="Layer_1-2" data-name="Layer 1">
    <g>
      <path d="m458.42,1871.26c11.91,88.76,66.6,182.63,138.48,263.25,92.66,103.92,213.88,185.82,308.87,206.33,168.7,36.42,264.46-152.06,264.46-152.06l-372.86-396.7c-5.27-9.13-19.22-20.47-35.89-31.85-24.24-16.53-54.25-33.18-71.83-43.35-29.7-17.17-258.47-48.77-231.23,154.37h0Z" style="fill: #fefefe;"/>
      <g style="fill: none; opacity: .25;">
        <path d="m459.93,1804.09c-2.51,17.43-2.67,37.36.13,60.1,26.02,211.8,276.25,450.24,444.87,487.24,168.62,36.96,265.62-160.29,265.62-160.29l-26.61-29.54c-41.13,55.73-121.82,135.64-234.53,110.93-77.09-16.9-171.23-75.92-253.21-155.26-60.47-58.53-59.31-156.78,4.3-211.89,46.62-40.38,100.03-51.07,100.03-51.07l3.07-104.53c-24.24-16.53-54.25-33.18-71.83-43.35-25.16-14.54-193.32-39.47-227.45,76.93-.04.15-.08.29-.12.44-1.62,5.7-2.94,11.71-3.94,18.04-.12.74-.23,1.5-.33,2.24h0Z" style="fill: #371a45;"/>
      </g>
      <path d="m948.39,2366.31c-15.54,0-31.23-1.69-47.01-5.1-87.31-18.86-194.63-85.37-287.07-177.92-99.15-99.26-163.49-211.99-176.54-309.26-12.31-91.8,25-137.78,58.46-160.19,69.86-46.79,178.82-29.47,203.85-15l9.5,5.45c48.16,27.55,92.49,54.2,105.85,77.37,5.75,9.98,2.32,22.71-7.65,28.47-9.97,5.75-22.71,2.32-28.46-7.65-8.84-15.33-68.12-49.25-90.44-62.02l-9.66-5.54c-12.75-7.29-103.87-24.09-160,13.69-34.22,23.03-47.73,63.36-40.15,119.88,25.53,190.36,264.5,416,431.1,451.97,150.75,32.57,237.85-134.04,241.49-141.15,5.23-10.23,17.78-14.31,28.02-9.09s14.33,17.74,9.12,27.99c-1.04,2.06-26.12,50.85-73.23,95.39-50.82,48.04-107.88,72.7-167.19,72.7h0Z" style="fill: #371a45;"/>
      <path d="m1474.35,457.01c.8,6.3,77.67,100.48,89.73,106.97,12.04,6.5,192.81,79.01,192.81,79.01,0,0,6.76,98.98,61.48,91.46,32.26-4.41,78.16-71.36,110.39-125.6,22.47-37.76,38.32-69.36,38.32-69.36,0,0,239.47,26.8,228.84-41.72-10.63-68.55-131.69-165.02-131.69-165.02,0,0,77.99-213.8,42.73-251.43-35.28-37.65-232.28,73.2-232.28,73.2,0,0-106.85-106.14-182.48-133.43-20.62-7.43-38.91-9.02-52.1-.99-44.36,26.99,25.42,247.5,25.42,247.5l-169.55,67.96s-22.42,115.15-21.61,121.46h0Z" style="fill: #ffcf02;"/>
      <g style="fill: none; opacity: .2;">
        <path d="m1474.35,457.01c.61,4.8,45.47,60.73,72.08,89.88,11.09-120.72,92.82-76.82,92.82-76.82l124.44,28.52s26.73,166.28,40.46,202.02c12.3,32.03,54.97,2.95,63.69-3.44,0-.02.02-.02.02-.02,21.41-24.99,43.2-58.56,60.89-88.32-235.34-110.33-236.97-546.45-236.57-587.77-20.62-7.43-38.91-9.02-52.1-.99-44.36,26.99,25.42,247.5,25.42,247.5l-169.55,67.96s-22.42,115.15-21.61,121.46v.02Z" style="fill: #000072;"/>
      </g>
      <g style="fill: none; opacity: .7;">
        <path d="m1840.33,182.36s197.01-110.85,232.27-73.22c35.26,37.65-42.73,251.45-42.73,251.45,0,0,121.06,96.48,131.7,165.01.48,3.06.45,5.91-.04,8.61,22.77-7.06,37.18-18.47,34.38-36.44-10.63-68.55-131.69-165.02-131.69-165.02,0,0,77.99-213.8,42.73-251.43-35.28-37.65-232.28,73.2-232.28,73.2,0,0-173.03-171.89-234.58-134.43-6.4,3.89-10.41,11.81-12.62,22.5,72.96.8,212.86,139.78,212.86,139.78h0Z" style="fill: #fefefe;"/>
      </g>
      <path d="m1812.65,749.85c-12.14,0-23.46-4.04-33.1-11.88-25.86-21.04-34.17-64.66-36.67-84.44-43.2-17.34-174.65-70.24-185.94-76.34-2.74-1.48-11.09-5.99-53.5-57.19-42.77-51.64-43.47-57.11-43.97-61.1-.36-2.82-1.1-8.7,21.77-126.21.97-5,4.41-9.16,9.14-11.06l156.79-62.83c-5.93-20-17.14-59.81-25.69-101.84-17.92-88.06-14.58-134.23,10.82-149.69,63.41-38.57,201.63,86.89,244.92,128.74,17.16-9.29,54.35-28.8,94.46-46,104.85-44.95,133.67-32.35,146.22-18.96,36.38,38.84-14.16,195.4-35.99,256.83,28.46,23.92,119.02,104.4,128.83,167.58,2,12.9-1.76,24.75-10.88,34.26-38.49,40.15-176.94,30.39-224.07,25.75-23.96,46.49-100.26,186.28-155.37,193.84-2.62.36-5.21.54-7.75.54h-.02Zm-40.81-107.89c1.06,15.09,7.92,57.54,26.66,72.76,5.26,4.27,10.94,5.84,17.82,4.88,32.32-4.43,99.77-111.92,137.34-186.83,2.82-5.62,8.85-8.87,15.08-8.18,67.91,7.59,184.84,10.07,209.44-15.62,2.65-2.76,3.46-5.26,2.89-8.9-7.98-51.41-93.82-129.74-126.22-155.59-5.04-4.02-6.95-10.81-4.74-16.87.19-.53,19.48-53.61,34.21-110.42,27.25-105.11,13.34-123.83,11.66-125.62-.6-.65-15.95-15.34-112.31,25.94-52.32,22.42-101.18,49.82-101.66,50.09-5.84,3.29-13.16,2.29-17.92-2.43-68.41-67.93-180.74-153.84-216.22-132.26-.77.46-18.45,12.59,2.94,117.87,11.6,57.07,28.82,111.76,28.99,112.31,2.37,7.48-1.44,15.53-8.72,18.45l-161.97,64.91c-7.76,40.15-17.58,92.89-19.48,107.35,11.5,17.44,70.55,88.88,81.88,97.17,10.86,5.47,122.39,50.61,190.95,78.1,5.35,2.14,8.99,7.16,9.38,12.9h0Z" style="fill: #371a45;"/>
      <g>
        <path d="m202.01,2416.58c132.58,47.49,194.43-7.81,241.7-78.92,7.23-10.87,14.11-22.1,20.85-33.4,50.88-85.24,39.42-167.97,56.12-297.45,16.55-128.47,163.66-182.82,165.96-183.65l.02-.02s68.06,182.82,224.38,296.95c156.32,114.11,317.2,119.85,317.2,119.85,0,0-32.76,86.65-37.22,160.4-4.47,73.73-10.52,128.64,79.16,235.93,89.69,107.27,290.7,144.01,356.93,6.72,5.18-10.71,9.17-21.15,12.13-31.28,35.11-119.71-72.48-197.34-72.48-197.34,224.29-278.56,129.58-452.16,129.58-452.16,53.47-12.2,82.62-31.26,97.99-46,12.05-11.6,15.6-20.53,15.72-21.38,0,0,118.49,70.78,159.78,121.66,41.27,50.88,101.19,73.4,181.21,41.29,123.5-56.1,202.96-141.8,247.08-230.72.03-.07.06-.12.08-.16,62.03-125.08,54.13-256.43.6-320.45-116.91-146.98-309.92-99.44-351.43,31.26-106.67-129.2-266.7-133.14-479.95-12.23l-154.66-61.05-63.09-24.9c28.89-30.89,55.96-64.59,81.18-101.14,96.33-139.51,165.79-320.73,206.2-547.09,2.12-11.86,4.17-23.86,6.12-35.97,0,0,26.62-20.94,55.32-48.66,16.17-15.62,33.02-33.35,46.17-50.72,3.23-4.26,6.23-8.5,8.94-12.68l-18.36-121.74-95.01-13.38s125.44-42.61,99.79-116.64c-.17-.52-.37-1.04-.58-1.56-9.86-26.27-34.02-35.79-62.83-35.6-49.8.28-113.51,29.56-141.36,51.14,0,0-1.2.21-3.1.34-7.62.48-26.53-.4-22.6-21.98,1.73-9.43,20.98-26.47,45.26-44.66,45.04-33.71,107.41-71.32,107.41-71.32,0,0-.54-72.18-63.68-51.78-40.09,12.95-97.95,78.14-149.97,166.8-4.33,7.38-8.61,14.92-12.86,22.6-7.45,13.53-14.76,27.52-21.8,41.88-16.64,33.88-31.92,69.77-44.89,106.5,0,0-83.41,234.15-141.02,287.77-1.33,1.23-2.63,2.38-3.93,3.4-35.1,28.1-305.92,264.59-512.36,445.25-132.58,116.02-238.6,209-238.6,209-31.68,16.97-61.52,37.94-89.18,62.12-4.96,4.32-9.85,8.74-14.65,13.27-150.49,141.58-231.73,380.22-185.38,586.38-44.74,45.55-134.76,200.75,18.11,255.5v.02Z" style="fill: #fefefe;"/>
        <g style="fill: none; opacity: .25;">
          <path d="m1044.34,1298.41c231.18-16.65,305.33,141.13,305.33,141.13l58.08,50.65,5.01-25.75-63.09-24.9c28.89-30.89,89.77-111.98,114.99-148.53-142.56,121.55-229.39,23.77-212.73-213.56l-140.4-51.82c-12.07,1.97-14.42,12.06-76.52,44.78-62.08,32.75-221.83,244.65,9.32,228.01h.01Z" style="fill: #371a45;"/>
        </g>
        <path d="m1813.36,1915.39c-6.85,0-13.55-3.37-17.54-9.56-59.38-92.19-95.6-252.76-45.78-368.77,27.01-62.89,76.14-102.73,142.07-115.23,11.27-2.14,22.21,5.28,24.36,16.59,2.14,11.31-5.28,22.21-16.59,24.36-52.42,9.94-89.95,40.46-111.53,90.73-42.53,99.05-11.78,245.44,42.52,329.76,6.24,9.68,3.44,22.57-6.24,28.8-3.49,2.25-7.4,3.33-11.26,3.33h-.01Z" style="fill: #371a45;"/>
        <path d="m1231.51,2260.5c-2.83,0-5.7-.58-8.44-1.8-10.52-4.67-15.27-16.98-10.6-27.5,80.1-180.48,247.53-307.38,381.28-288.84,45.61,6.32,124.89,36.14,143.35,164.88,1.63,11.39-6.28,21.95-17.67,23.59-11.4,1.6-21.96-6.28-23.59-17.67-10.97-76.47-48.25-121.26-107.82-129.51-99.7-13.78-257.09,83.37-337.46,264.46-3.45,7.77-11.07,12.39-19.06,12.39h0Z" style="fill: #371a45;"/>
        <path d="m533.45,1988.64c-7.91,0-15.47-4.53-18.97-12.19-3.53-7.67-86.24-181.65-290.59-154.39-11.43,1.48-21.89-6.5-23.41-17.91-1.52-11.41,6.5-21.89,17.91-23.41,123.11-16.35,207.44,32.98,256.5,77.26,52.8,47.66,76.53,99,77.51,101.16,4.77,10.47.14,22.83-10.33,27.6-2.8,1.27-5.73,1.88-8.62,1.88h0Z" style="fill: #371a45;"/>
        <path d="m1535.45,1131.36c-46.47,0-170.7-5.57-288.73-59.19-10.48-4.76-15.12-17.12-10.36-27.6s17.11-15.12,27.59-10.35c136.26,61.91,286.66,55.22,288.17,55.15,11.38-.6,21.27,8.27,21.86,19.76.58,11.49-8.25,21.28-19.75,21.86-1.24.06-7.87.37-18.78.37h0Z" style="fill: #371a45;"/>
        <g style="fill: none; opacity: .25;">
          <path d="m1537.01,616.1c-31.98-60.97-8.61-150.91,58.98-202.8,58.77-45.14,126.74-28.45,143.46-23.33-9.86-26.27-34.02-35.79-62.83-35.6-49.8.28-113.51,29.56-141.36,51.14,0,0-1.2.21-3.1.34-13.89,21.03-27.01,46.45-37.74,75.98-32.32,88.99,42.58,134.28,42.58,134.28h.01Z" style="fill: #371a45;"/>
        </g>
        <g style="fill: none; opacity: .25;">
          <path d="m1228,841.65c-1.72,151.03-.78,288.8-.78,288.8,0,0,74.43-243.12,133.25-354.77,58.82-111.67,173.46-43.67,225.28-27.49,51.8,16.16,35.88,102.51,35.88,102.51l15.42-59.39c2.12-11.86,4.17-23.86,6.12-35.97,0,0,26.62-20.94,55.32-48.66-77.53,32.48-65.78-39.79-65.78-39.79-54.43,92.33-274.08-10.26-194.27-260.67l-2.72-.72c-7.45,13.53-14.76,27.52-21.8,41.88-16.64,33.88-31.92,69.77-44.89,106.5,0,0-83.41,234.15-141.02,287.77h0Z" style="fill: #371a45;"/>
        </g>
        <g style="fill: none; opacity: .25;">
          <path d="m1654.77,510.21l6.71,95.18c60.73-33.92,79.84,35.57,83.18,50.57,3.23-4.26,6.23-8.5,8.94-12.68l-18.36-121.74-80.47-11.33h0Z" style="fill: #371a45;"/>
        </g>
        <g style="fill: none; opacity: .25;">
          <path d="m205.29,2416.29c132.58,47.49,194.43-7.81,241.7-78.92l-1.33-3.86c-207.69,178.65-318.07-87.88-182.03-189.55-28.69-185.36,19.67-364.97,121.07-481.45,37.19-42.71,92.68-64.55,149.14-60.28,347.81,26.31,508.2-192.77,508.2-192.77l-327.04-119.46c-132.58,116.02-238.6,209-238.6,209-31.68,16.97-61.52,37.94-89.18,62.12-.07.07-.13.11-.2.18-1.77,1.53-3.52,3.08-5.24,4.64-1.04.91-2.06,1.83-3.06,2.75-2.06,1.89-4.13,3.77-6.16,5.7-150.49,141.58-231.73,380.22-185.38,586.38-44.74,45.55-134.76,200.75,18.11,255.5v.02Z" style="fill: #371a45;"/>
        </g>
        <g style="fill: none; opacity: .25;">
          <path d="m1252.38,1747.4l-266.38,23.59,24.49,29.65s-22.25,84.21,91.85,54.08,140.1,72.05,140.1,72.05c-13.05,63.44,40.12,59.8,40.12,59.8,51.88-209.03,324.68-133.08,324.68-133.08,0,0-103.47-85.06-209.06-43.31l-145.8-62.78h0Z" style="fill: #371a45;"/>
        </g>
        <g style="fill: none; opacity: .25;">
          <path d="m689.94,1822.85s68.06,182.82,224.38,296.95c156.32,114.11,317.2,119.85,317.2,119.85,0,0-32.76,86.65-37.22,160.4-4.47,73.73-10.52,128.64,79.16,235.93,89.69,107.27,290.7,144.01,356.93,6.72,5.18-10.71,9.17-21.15,12.13-31.28l-1.06-.26s-8.21,82.24-163.68,50.2c-155.49-32.02-281.44-299.19-133.02-588.49,0,0-178.98,122.97-368.62-82.22,0,0-122.16-112.37-167.52-218.43,0,0-77.92,17.22-118.67,50.62h-.01Z" style="fill: #371a45;"/>
        </g>
        <g style="fill: none; opacity: .25;">
          <path d="m1683.81,1722.7c27.11,88.29,25.21,173.04,19.73,222.6,2.93,3.63,5.84,7.34,8.7,11.07,29.59-7.06,58.09-20.3,85.37-40.45,12.05-11.6,15.6-20.53,15.72-21.38,0,0,118.49,70.78,159.78,121.66,41.27,50.88,101.19,73.4,181.21,41.29,123.5-56.1,202.95-141.8,247.08-230.72-4.34,7.32-95.91,159.24-233.49,158.28-140.98-.99-42.36-138.36-35.64-235.02,6.72-96.65,26.42-210.63,62.36-237.72,0,0-81.08,34.71-110.54,182.76,0,0-1.83,58.06-47.36,102.34-45.55,44.3-173.31,44.52-288.26-108.87,0,0-37.7.37-64.66,34.16h0Z" style="fill: #371a45;"/>
        </g>
        <path d="m501.69,2215.87s55.04,63.99,23.8,123.82c-31.24,59.82-114.5,43.59-114.5,43.59l90.7-167.4h0Z" style="fill: #fefefe;"/>
        <path d="m1479.05,2752.6c-80.98,0-168.74-40.06-221.57-103.25-92.6-110.76-88.77-172.82-84.35-244.67l.36-5.89c3.14-51.86,19.28-108.74,29.67-140.82-53.96-6.82-178.32-31.69-301.12-121.34-130.28-95.11-200.33-234.13-223.21-286.12-37.91,18.48-122.69,69.31-134.21,158.68-4.67,36.22-7.06,68.13-9.37,99.01-5.9,78.89-10.57,141.2-49.51,206.45-55.8,93.48-123.95,179.86-287.49,121.26-66.62-23.87-88.95-65.28-95.94-95.83-15.43-67.34,27.32-145.48,62.23-185.49-51.77-254.82,81.01-554.04,299.89-672.82,47.05-41.27,693.43-608.08,749.91-653.29,43.49-34.81,114.59-215.3,138.33-281.9,58.78-166.5,169.96-327.09,242.75-350.61,30.39-9.81,50.25-2.12,61.58,6.06,28.21,20.37,29.32,60.85,29.36,65.4.05,7.36-3.78,14.2-10.08,18-49.74,29.98-105.42,67.9-130.57,89.99,42.11-24.91,115.98-53.22,167.69-37.85,24.36,7.24,41.52,23.43,49.61,46.82,7.16,20.67,5.87,41.98-3.74,61.62-10.2,20.85-28.42,37.64-47.13,50.47l29.3,4.13c9.13,1.29,16.33,8.42,17.7,17.53l18.35,121.73c.76,5.04-.35,10.19-3.13,14.46-29.51,45.42-88.94,95.84-108.62,111.93-46.9,283.57-140.09,506.95-277.2,664.61l180.6,71.28c204.05-113.21,363.66-114.1,475.1-2.78,27.98-51.92,80.06-89.47,142.55-100.99,85.23-15.72,171.74,19.65,231.45,94.58,45.07,54.09,59.51,147.21,37.65,243.13-33.47,146.94-140.24,270.99-292.94,340.34-.28.13-.57.25-.85.37-81.05,32.53-153.93,15.67-205.17-47.5-29.44-36.28-103.49-85.08-137.15-106.3-14.81,17.22-42.87,38.26-92.08,53.05,18.55,57.52,42.48,213.64-128.64,434.9,47.05,43.2,102.09,133.03,50.11,240.8-26.98,55.93-77.26,91.13-141.57,99.11-9.37,1.16-18.91,1.73-28.54,1.73h-.01Zm-789.11-950.59c8.46,0,16.41,5.19,19.53,13.57.66,1.76,67.98,178.48,217.14,287.37,149.43,109.09,304.1,115.82,305.64,115.87,6.71.24,12.89,3.7,16.61,9.28,3.72,5.59,4.52,12.63,2.15,18.91-.32.84-31.7,84.67-35.92,154.28l-.36,5.93c-4.19,68.12-7.22,117.35,74.72,215.38,49.75,59.49,139.36,96.03,213.01,86.89,35.21-4.37,82.73-21.07,109.16-75.85,57.97-120.18-49.18-199.37-53.77-202.68-4.63-3.34-7.7-8.45-8.46-14.12-.76-5.67.84-11.4,4.42-15.85,111.04-137.91,139.66-247.56,144.12-315.27,4.77-72.5-16.46-113.55-16.67-113.96-3.03-5.73-3.25-12.6-.55-18.49s7.96-10.25,14.28-11.69c78.4-17.88,96.82-50.2,98.59-53.68,1.78-5.29,5.63-9.72,10.77-12.17,6.3-3.01,13.68-2.67,19.68.91,4.97,2.96,122.14,73.27,165.26,126.41,39.8,49.06,92.57,60.91,156.86,35.25,140.5-63.96,238.58-177.46,269.11-311.45,19.04-83.61,7.88-163.06-29.16-207.33-.11-.13-.22-.26-.32-.4-49.97-62.82-121.57-92.62-191.43-79.74-59.42,10.95-106.87,50.93-123.83,104.34-2.31,7.27-8.41,12.7-15.9,14.15-7.52,1.47-15.18-1.31-20.03-7.19-100.12-121.26-248.48-123.66-453.6-7.37-5.48,3.11-12.08,3.56-17.93,1.25l-217.75-85.95c-6.42-2.53-11.16-8.08-12.68-14.8-1.51-6.73.4-13.77,5.11-18.81,143.84-153.87,240.79-380.4,288.16-673.29.83-5.16,3.57-9.82,7.68-13.05.71-.56,68.33-54.05,101.49-100.65l-14.82-98.29-79.63-11.21c-9.56-1.35-16.94-9.08-17.84-18.68-.9-9.61,4.91-18.58,14.04-21.68,18.53-6.35,69.98-29.6,85.04-60.49,4.79-9.83,5.36-19.24,1.77-29.61-3.67-10.6-10.69-17.11-22.1-20.51-40.56-12.05-117.26,18.59-150.21,44.14-2.7,2.09-5.87,3.49-9.23,4.07-4.25.73-26.18,3.65-40.47-10.79-4.94-4.99-12.71-16.19-9.25-35.14,2.24-12.28,11-29.72,86.92-81.55,25.33-17.28,50.08-32.88,64.01-41.5-1.68-7.9-5.02-16.89-10.75-20.98-5.11-3.65-13.3-3.7-24.31-.15-54.13,17.49-158.12,160.14-216.27,324.87-9.16,25.7-91.03,252.06-151.57,300.51-56.63,45.34-743.31,647.56-750.24,653.64-1.19,1.04-2.5,1.95-3.9,2.7-207.84,111.39-332.88,397.98-278.74,638.85,1.55,6.9-.51,14.12-5.46,19.17-30.97,31.54-71.17,102.73-59.1,155.39,6.89,30.08,29.58,51.64,69.37,65.89,134.26,48.11,185.12-15.39,237.64-103.38,33.91-56.81,38.03-111.92,43.74-188.2,2.24-29.96,4.78-63.91,9.59-101.23,18.1-140.45,172.96-198.2,179.55-200.59,2.35-.85,4.75-1.25,7.11-1.25h-.02Zm1102.77,89.54v.08-.08Zm.01-.08s0,.05-.01.08c0-.03,0-.05.01-.08Zm0-.07v.06-.06Zm0-.06v.02-.02Zm.98-3.73h0Zm-1317.33-388.61h.05-.05Z" style="fill: #371a45;"/>
        <path d="m1699.65,1982.76c-7.18,0-14.16-3.72-18.04-10.37-38.12-65.56-123.59-171.64-267.33-145.6-11.37,2.04-22.17-5.47-24.22-16.79-2.05-11.33,5.47-22.17,16.79-24.22,125.14-22.67,235.49,36.17,310.8,165.65,5.79,9.95,2.41,22.71-7.54,28.5-3.3,1.91-6.9,2.83-10.46,2.83Z" style="fill: #371a45;"/>
        <g>
          <path d="m1022.85,1712.28l270.59,149.64c23.75-24.41,70.94-41.72,97.6-50.05,11.76-3.66,19.53-5.58,19.53-5.58,60.69-44.22,138.53-114.31,172.98-145.95,11.44-10.51,17.88-25.37,17.8-40.91-.18-35.63-3.02-64.71-30.64-94.24-37.8-40.45-221.83-105.04-265.49-83.01-32.63,16.46-123.5,66.87-187.86,113.25-21.77,15.68-40.48,30.92-52.9,44.23-49.09,52.64-41.61,112.62-41.61,112.62Z" style="fill: #fefefe;"/>
          <g style="fill: none; opacity: .25;">
            <path d="m1022.85,1712.28l270.59,149.64c23.75-24.41,70.94-41.72,97.6-50.05-36.24-23-36.55-81.36-36.55-81.36l95.27-76.6s-83.12,38.32-132.3,51.39c-49.16,13.07-109.43-24.99-177.66-64.46-68.25-39.47-22.4-85.43-22.4-85.43h-.04c-21.77,15.69-40.48,30.93-52.9,44.24-49.09,52.64-41.61,112.62-41.61,112.62h0Z" style="fill: #371a45;"/>
          </g>
          <path d="m1297.27,1887.85l-293.8-162.48-1.31-10.53c-.36-2.84-8.05-70.33,47.06-129.4,54.29-58.2,210.79-143.8,246.61-161.88,54.75-27.59,248.17,42.55,290.09,87.39,33.14,35.45,36.06,71.45,36.26,108.28.11,21.45-8.85,42.03-24.59,56.49-31.78,29.19-112.4,101.98-174.76,147.41l-3.31,2.41-3.97.98c-21.46,5.32-82.58,24.65-107.18,49.92l-11.1,11.4h0Zm-253.99-188.09l247.4,136.81c36.33-28.31,93.78-44.96,110.82-49.46,60.19-44.32,137.2-113.87,167.9-142.08h0c7.11-6.53,11.16-15.85,11.11-25.57-.17-31.37-2.06-55.48-25.03-80.04-12.98-13.88-58.99-38.73-121.83-59.36-69.88-22.95-109.49-24.1-119.05-19.28-44.58,22.48-188.94,103.81-234.9,153.09-30.78,33-35.91,68.83-36.42,85.89h0Zm367.29,106.53h.05-.05Z" style="fill: #371a45;"/>
          <path d="m1305.88,1752.44c-60.6,0-219.1-87.48-248.49-131.37-8.67-12.94-6.64-22.16-3.42-27.62,3.43-5.79,10.9-7.71,16.69-4.28,5.27,3.11,7.33,9.57,5.09,15.07,3.02,9.73,35.93,39.09,100.38,74.33,58.36,31.91,113.12,52.1,133.31,49.29,47.94-6.92,173.62-108.79,218.25-157.13,25.67-27.81,22.43-45.29,16.46-51.24-5.04-4.46-5.4-12.05-.94-17.09,4.46-5.05,12.29-5.4,17.33-.95,1.14,1.01,11.18,10.37,12.06,27.82.92,18.08-8.17,37.59-27,57.99-40.53,43.91-172.26,156.01-232.68,164.72-2.17.31-4.53.46-7.05.47h.01Z" style="fill: #371a45;"/>
          <path d="m1468.51,1652.06c-2,0-4.02-.58-5.8-1.79l-68.75-46.83c-1.96-1.34-3.4-3.31-4.08-5.58l-21.45-72-123.22-43.25c-5.37-1.89-8.2-7.77-6.31-13.15,1.88-5.37,7.76-8.19,13.15-6.31l128.18,45c3.12,1.09,5.52,3.62,6.46,6.79l21.91,73.53,65.72,44.77c4.71,3.21,5.92,9.62,2.72,14.33-2,2.93-5.24,4.51-8.54,4.51v-.02Z" style="fill: #371a45;"/>
          <path d="m1206.6,1580.4c-.49,3.49.04,6.99,1.47,10.43,6.37,15.52,30.86,29.6,61.57,33.93,30.73,4.33,58.15-2.45,68.57-15.61,2.32-2.91,3.8-6.13,4.29-9.62.28-1.97.23-3.93-.12-5.89l-.2-1.01c-3.87-16.87-29.69-32.81-62.74-37.46-37.52-5.28-70.13,6.01-72.84,25.23h0Z" style="fill: #0ea6f1;"/>
          <path d="m1288.18,1636.4c-6.45,0-13.14-.47-19.98-1.44-34.26-4.82-61.61-20.61-69.67-40.21-2.16-5.19-2.88-10.51-2.14-15.79,1.88-13.33,12.6-24.02,30.2-30.11,15.27-5.29,34.55-6.67,54.29-3.9,37.08,5.22,66.42,23.88,71.35,45.37l.27,1.32c.58,3.26.63,6.33.21,9.34-.74,5.27-2.91,10.19-6.45,14.61-10.51,13.28-32.25,20.82-58.08,20.82h0Zm-26.88-72.21c-10.35,0-20.05,1.41-27.95,4.15-9.63,3.33-15.81,8.38-16.53,13.5-.22,1.59.03,3.24.78,5.04,4.38,10.64,24.15,23.54,53.49,27.67,29.38,4.12,51.92-2.8,59.04-11.8,1.24-1.55,1.94-3.07,2.17-4.66.12-.86.1-1.73-.06-2.66l-.16-.8c-2.5-10.84-23.44-24.95-54.06-29.26-5.63-.79-11.26-1.18-16.71-1.18h-.01Zm-54.69,16.21h.05-.05Z" style="fill: #371a45;"/>
          <path d="m1285.56,1678.16c-7.56,0-15.35-.55-23.2-1.66-23.24-3.27-44.59-11.09-60.11-22.02-17.53-12.34-26.02-27.47-23.89-42.58.61-4.36,2.16-8.61,4.59-12.61l14.85-24.28c2.55-4.17,7.68-5.98,12.28-4.32,4.6,1.65,7.41,6.3,6.73,11.14-.22,1.59.03,3.24.78,5.04,4.38,10.64,24.15,23.54,53.49,27.67,29.38,4.12,51.92-2.8,59.04-11.8,1.24-1.55,1.94-3.07,2.17-4.66.12-.86.1-1.73-.06-2.66-.98-5.57,2.71-10.89,8.27-11.93,5.59-1.05,10.92,2.6,12.01,8.15l8.34,42.53c.22,1.13.25,2.29.09,3.42-2.12,15.12-14.45,27.31-34.72,34.34-11.88,4.11-25.83,6.22-40.65,6.22h-.01Zm-81.45-73.95l-3.51,5.75c-1.01,1.66-1.59,3.22-1.82,4.81h0c-.98,6.97,4.61,15.29,15.33,22.85,12.9,9.08,31.05,15.63,51.11,18.46,20.08,2.82,39.33,1.53,54.23-3.63,11.54-4,18.98-9.87,20.75-16.28l-2.49-12.64c-15.56,10.96-41.33,15.42-69.53,11.44-28.54-4.01-52.29-15.64-64.08-30.75h.01Zm-15.54,9.13h.05-.05Z" style="fill: #371a45;"/>
          <path d="m810.36,2076.29c17.72,61.78,104.44,44.13,104.44,44.13,22.01-59.65,49.49-113.88,83.31-161.87,3.51-5,7.08-9.91,10.75-14.75.1-.14.14-.21.14-.21,29-38.52,62.37-72.73,100.61-102.15,20.85-16.06,43.15-30.66,66.96-43.78,29.12-87.41-70.39-103.22-123.36-68.21-5.21,2.68-10.26,5.39-15.22,8.18-80.83,45.41-129.82,105.6-167.13,171.24-21.41,37.64-38.95,77.05-56.47,116.51-7.1,16.02-8.87,34.07-4.04,50.92h0Z" style="fill: #fefefe;"/>
          <g style="fill: none; opacity: .25;">
            <path d="m810.36,2076.29c17.72,61.78,104.44,44.13,104.44,44.13,22.01-59.65,49.49-113.88,83.31-161.87-18.75,23.57-58.92,65.21-99.6,50.02-49.05-18.34-32.34-84.23-27.64-99.7-21.41,37.64-38.95,77.05-56.47,116.51-7.1,16.02-8.87,34.07-4.04,50.92h0Z" style="fill: #371a45;"/>
          </g>
          <g style="fill: none; opacity: .25;">
            <path d="m1038,1737.63c100.14,10.97,69.83,98.16,69.83,98.16l1.78,5.65c20.85-16.06,43.15-30.66,66.96-43.78,29.12-87.41-70.39-103.22-123.36-68.21-5.21,2.68-10.26,5.39-15.22,8.18h.01Z" style="fill: #371a45;"/>
          </g>
          <path d="m888.21,2143.12c-37.52,0-84.36-12.92-98.35-61.71-6.04-21.07-4.26-44.2,5.03-65.11,50.37-113.42,102.46-230.69,247.37-305.52,40.78-26.36,98.51-27.03,131.96-1.38,26.86,20.59,34.75,54.93,21.66,94.22l-2.58,7.73-7.14,3.93c-115.92,63.88-198.44,165.84-252.28,311.73l-4.02,10.89-11.37,2.31c-8.47,1.72-18.95,2.91-30.28,2.91h0Zm224.6-410.82c-16.67,0-34.67,4.71-48.56,13.9l-1.98,1.16c-132.57,68.08-179.55,173.86-229.29,285.85-5.32,11.99-6.41,25.02-3.06,36.71,9.14,31.88,49.53,32.55,69.31,30.85,56.35-146.32,141.31-250.43,259.27-317.76,4.57-18.5,1.33-32.12-9.64-40.54-8.91-6.83-22-10.17-36.04-10.17h0Zm63.29,64.73h.05-.05Z" style="fill: #371a45;"/>
        </g>
        <path d="m1306.7,1877.99c-21.72,22.32-44.02,44.73-59.92,71.89-3.77,6.13-11.8,8.04-17.93,4.26-4.43-2.72-6.65-7.68-6.12-12.52,1.06-9.63,3.64-18.95,6.97-27.89,10.43-26.56,26.77-51.37,50.47-67.9,21.12-13.64,43.81,14.26,26.52,32.16h.01Z" style="fill: #371a45;"/>
        <path d="m2025.01,2079.74c-4.9,0-9.81-1.71-13.77-5.21-80.51-71-18.21-171.54,27.28-244.96,17.63-28.45,34.28-55.32,40.99-76.13,6.09-18.89,10.55-40.81,15.27-64.01,14.69-72.23,32.98-162.11,116.78-216.94,92.12-60.24,174.87-13.62,205.76,19.45,7.86,8.41,7.41,21.6-1.01,29.45-8.39,7.85-21.55,7.4-29.4-.95-2.84-2.98-67.26-68.88-152.53-13.08-69.25,45.3-84.25,119.05-98.76,190.37-4.96,24.37-9.64,47.39-16.45,68.49-8.27,25.65-26.23,54.62-45.23,85.29-52.26,84.34-85.37,147.46-35.14,191.75,8.63,7.61,9.46,20.78,1.85,29.41-4.12,4.67-9.86,7.06-15.64,7.06h0Z" style="fill: #371a45;"/>
        <path d="m2442.61,1628.51c-18.02,0-224.65-30.18-287.81-39.47-11.39-1.67-19.26-12.27-17.59-23.65s12.21-19.27,23.65-17.59c101.23,14.89,267.19,38.65,281.57,39.03h.38c11.33,0,20.46,9.09,20.67,20.47.21,11.51-9.12,21-20.63,21.21h-.24,0Z" style="fill: #371a45;"/>
        <path d="m2435.92,1750.84c-1.04,0-2.1-.08-3.16-.24l-311.6-47.43c-11.38-1.73-19.2-12.36-17.47-23.74s12.36-19.25,23.74-17.47l311.6,47.43c11.38,1.73,19.2,12.36,17.47,23.74-1.57,10.32-10.45,17.71-20.58,17.71Z" style="fill: #371a45;"/>
        <path d="m2374.77,1894.15c-1.61,0-3.23-.19-4.86-.58l-289.14-69.01c-11.2-2.67-18.11-13.91-15.43-25.11,2.67-11.2,13.95-18.12,25.11-15.43l289.14,69.01c11.2,2.67,18.11,13.91,15.43,25.11-2.28,9.57-10.83,16.01-20.25,16.01Z" style="fill: #371a45;"/>
        <path d="m2258.11,2010.41c-2.57,0-5.19-.48-7.72-1.49l-228.82-91.37c-10.69-4.27-15.89-16.4-11.63-27.08,4.27-10.69,16.4-15.89,27.09-11.63l228.82,91.37c10.69,4.27,15.89,16.4,11.63,27.08-3.26,8.15-11.08,13.12-19.36,13.12h-.01Z" style="fill: #371a45;"/>
        <path d="m2070.1,1544.92c-15.51,32.04-24.56,67.71-29.28,103.05-1.52,10.73-17.33,10.19-18.14-.56-2.95-39.59-1.11-79.42,8.72-118.16,9.87-29.34,52.02-12.32,38.7,15.67h0Z" style="fill: #371a45;"/>
        <path d="m1689.11,1954.22c10.29-39.3,8.45-81.03,1.64-120.94-1.9-12.29-6.14-29.31-9.03-41.56-1.32-5.55,2.12-11.12,7.67-12.44,5.05-1.2,10.12,1.54,11.98,6.23,11.5,27.67,19.13,56.88,22.38,86.7,2.39,26.51,2.04,53.82-4.6,79.89-1.11,4.28-2.03,7.57-3.74,12.05-2.75,7.25-10.85,10.89-18.1,8.14-7.32-2.75-10.77-10.91-8.21-18.08h.01Z" style="fill: #371a45;"/>
        <path d="m436.17,2406.15c-16.24,0-27.82-2.16-29.17-2.42-11.3-2.2-18.67-13.15-16.46-24.44,2.2-11.3,13.16-18.66,24.44-16.46.62.11,68.48,12.34,92.04-32.78,24.21-46.36-20.71-100.09-21.16-100.62-7.44-8.75-6.41-21.9,2.32-29.36,8.72-7.47,21.83-6.48,29.32,2.23,2.62,3.05,63.82,75.52,26.47,147.05-25.25,48.35-75.64,56.81-107.8,56.82v-.02Z" style="fill: #371a45;"/>
        <path d="m1657.38,503.87c19.68,30.19,17.32,68.9,10.68,102.55-2.37,10.7-5.44,21.2-9.07,31.51-1.73,4.99-7.18,7.63-12.17,5.89-10.94-4.28-4.51-17.43-4.09-25.93,1.7-14.39,3.19-30.68,2.59-44.9-.64-18.12-3.23-36.5-10.7-52.6-10.51-15.25,11.48-31.27,22.76-16.52h0Z" style="fill: #371a45;"/>
        <path d="m1547.07,416.39c-32.55,30.7-48.42,75.2-53.27,118.96-1.37,14.66-22.69,13.59-22.5-1.13.18-38.61,9.94-77.52,31.53-109.9,7.67-11.31,16.27-21.73,27.17-30.29,15.11-10.88,31.39,10.57,17.06,22.36h0Z" style="fill: #371a45;"/>
      </g>
      <g>
        <g>
          <path d="m1311.01,773.65c20.2,105.75,13.8,217.28-22.37,324.43-7.39,21.85-15.95,43.47-25.8,64.81-4.76,10.4-9.9,20.76-15.28,31.11-16.36,31.08-34.88,60.3-55.33,87.62-17.56,23.58-36.6,45.72-56.79,66.36-24.37,24.94-50.56,47.68-78.17,68.16-10.09,7.44-20.35,14.59-30.77,21.46-191,125.3-441.51,148.14-657.39,38.2C51.07,1313.9-71.23,925.22,95.83,607.7c32.22-61.13,72.79-115.29,119.66-161.5,5.43-5.45,11.03-10.77,16.74-15.97,15.18-14,30.93-27.21,47.21-39.61,37.67-28.66,78.16-53.01,120.56-72.79,42.37-19.83,86.76-35.12,132.23-45.58,14.45-3.33,29.01-6.2,43.71-8.55,22.02-3.51,44.2-5.96,66.6-7.2,111.48-6.49,225.79,15.45,331.72,69.41,182.95,93.12,301.1,261.27,336.73,447.75h.02Z" style="fill: #fff;"/>
          <path d="m663.54,1548.57c-101.44,0-202.82-23.35-295.55-70.58-153.79-78.29-267.16-211.61-319.23-375.4C-3.73,937.49,12.22,761.33,93.65,606.55c31.8-60.34,72.21-114.89,120.11-162.11,5.21-5.24,10.72-10.49,16.82-16.04,15.15-13.97,31.09-27.35,47.38-39.74,37.44-28.48,78.15-53.07,121.01-73.07,42.42-19.86,87.08-35.25,132.72-45.75,14.67-3.38,29.43-6.27,43.87-8.58,22.51-3.59,45-6.02,66.86-7.23,115.19-6.71,230.33,17.38,332.98,69.67,177.51,90.35,300.71,254.18,338.02,449.48,20.68,108.27,12.92,220.89-22.46,325.68-7.5,22.18-16.21,44.07-25.9,65.06-4.39,9.61-9.41,19.82-15.33,31.21-16.2,30.77-34.88,60.36-55.54,87.96-17.25,23.17-36.43,45.58-57,66.61-24.06,24.62-50.45,47.64-78.46,68.42-10.04,7.4-20.43,14.64-30.89,21.54-110.18,72.28-237.29,108.91-364.31,108.92h0Zm16.65-1290.71c-12.49,0-24.99.36-37.49,1.09-21.69,1.2-44.02,3.62-66.36,7.18-14.33,2.29-28.98,5.15-43.54,8.52-45.3,10.42-89.62,25.7-131.74,45.41-42.55,19.86-82.96,44.26-120.11,72.53-16.16,12.3-31.98,25.58-47.03,39.45-6.05,5.51-11.5,10.7-16.67,15.9-47.55,46.88-87.66,101.02-119.23,160.92C17.2,762.46,1.38,937.28,53.46,1101.12c51.67,162.53,164.16,294.82,316.77,372.5,207.27,105.56,458.22,90.98,654.92-38.06,10.38-6.84,20.7-14.04,30.66-21.38,27.79-20.62,53.99-43.47,77.87-67.9,20.41-20.87,39.45-43.12,56.57-66.11,20.51-27.39,39.05-56.76,55.12-87.29,5.87-11.31,10.85-21.45,15.22-30.98,9.61-20.84,18.26-42.56,25.71-64.58,35.1-103.98,42.81-215.74,22.28-323.18-37.02-193.8-159.28-356.37-335.42-446.02-90.73-46.21-191.3-70.23-292.97-70.23v-.03Z" style="fill: #371a45;"/>
        </g>
        <path d="m1320.72,938.62c-127.42,445.12-649.32,630.12-960.73,297.42-211.87-226.35-149.5-609.67,85.18-800.33,170.8-138.76,397.82-200.85,684.11.64,0,0,112.61,108.79,145.64,215.6,33.03,106.81,46.92,216.45,46.92,216.45l-1.12,70.22h0Z" style="fill: #371a45;"/>
        <g style="fill: none; opacity: .25;">
          <path d="m369.1,1475.78c215.87,109.98,466.42,87.12,657.4-38.2,10.43-6.85,20.68-14,30.76-21.44,27.63-20.48,53.79-43.23,78.18-68.15,20.18-20.66,39.24-42.79,56.79-66.36,20.47-27.32,38.98-56.53,55.35-87.63,5.33-10.35,10.49-20.7,15.28-31.1,9.84-21.36,18.37-42.99,25.77-64.83,36.17-107.15,42.6-218.66,22.38-324.44-11.09-58.1-30.21-114.45-56.8-167.29,16.96,101.39,9.52,207.57-24.99,309.8-7.35,21.87-15.93,43.48-25.77,64.83-4.75,10.39-9.91,20.73-15.28,31.1-16.38,31.1-34.89,60.31-55.31,87.62-17.59,23.58-36.61,45.69-56.79,66.36-24.39,24.92-50.59,47.68-78.18,68.15-10.11,7.45-20.37,14.59-30.8,21.45-190.98,125.32-441.48,148.17-657.4,38.2-125.97-64.11-221.19-163.84-279.91-280.57,32.07,192.37,151.59,366.96,339.32,462.5h0Z" style="fill: #371a45;"/>
        </g>
        <path d="m663.53,1565.04c-104,0-207.94-23.95-303.02-72.37-157.75-80.3-274.04-217.07-327.46-385.1-53.83-169.34-37.49-350,46.02-508.7,32.6-61.86,74.02-117.76,123.13-166.17,5.3-5.32,11-10.75,17.3-16.49,15.44-14.24,31.79-27.95,48.48-40.66,38.37-29.19,80.1-54.39,124.02-74.89,43.46-20.34,89.22-36.11,135.99-46.88,15.02-3.47,30.15-6.43,44.97-8.79,23.07-3.68,46.13-6.17,68.54-7.41,118.06-6.89,236.11,17.83,341.37,71.44,182.08,92.67,308.46,260.73,346.73,461.08,21.22,111.06,13.26,226.57-23.03,334.04-7.69,22.74-16.62,45.17-26.55,66.69-4.49,9.81-9.62,20.27-15.66,31.9-16.65,31.62-35.8,61.95-56.98,90.24-17.67,23.73-37.33,46.7-58.41,68.26-24.66,25.23-51.72,48.83-80.42,70.12-10.31,7.6-20.94,15.01-31.64,22.07-112.93,74.08-243.2,111.63-373.39,111.63h.01Zm16.66-1290.7c-12.17,0-24.34.35-36.54,1.06-21.18,1.17-42.93,3.53-64.72,7-13.96,2.23-28.23,5.02-42.43,8.3-44.18,10.16-87.4,25.06-128.46,44.28-41.5,19.37-80.9,43.15-117.12,70.71-15.75,11.99-31.17,24.93-45.84,38.45-5.85,5.32-11.25,10.48-16.16,15.41-46.45,45.8-85.55,98.57-116.33,156.97-78.74,149.66-94.17,319.98-43.43,479.58,50.32,158.29,159.9,287.14,308.55,362.81,202.01,102.89,446.63,88.65,638.41-37.16,10.11-6.66,20.19-13.69,29.92-20.86,27.05-20.07,52.59-42.34,75.86-66.15,19.9-20.35,38.46-42.03,55.15-64.44,20.01-26.73,38.09-55.36,53.75-85.13,5.7-10.98,10.57-20.88,14.82-30.17,9.39-20.35,17.82-41.53,25.08-63,34.19-101.29,41.7-210.15,21.71-314.81h0c-36.06-188.76-155.14-347.1-326.71-434.43-88.41-45.03-186.42-68.44-285.5-68.44v.02Z" style="fill: #371a45;"/>
        <path d="m663.53,1566.94c-104.3,0-208.53-24.02-303.88-72.58-158.2-80.53-274.84-217.69-328.41-386.21-53.99-169.82-37.6-351,46.15-510.17,32.69-62.03,74.23-118.09,123.47-166.64,5.31-5.33,11.03-10.79,17.35-16.54,15.48-14.27,31.87-28.02,48.61-40.77,38.48-29.28,80.32-54.54,124.37-75.1,43.58-20.4,89.47-36.21,136.37-47,15.06-3.48,30.24-6.44,45.09-8.82,23.14-3.69,46.26-6.19,68.74-7.43,118.39-6.89,236.78,17.88,342.33,71.64,182.59,92.93,309.34,261.5,347.73,462.41h0c21.28,111.38,13.3,227.22-23.09,335-7.71,22.8-16.67,45.3-26.63,66.88-4.5,9.84-9.65,20.32-15.7,31.98-16.7,31.72-35.9,62.13-57.14,90.5-17.72,23.79-37.44,46.83-58.57,68.44-24.73,25.31-51.87,48.97-80.65,70.33-10.34,7.62-21,15.05-31.72,22.12-113.25,74.29-243.88,111.94-374.44,111.94l.02.02Zm16.67-1290.7c-12.14,0-24.27.35-36.43,1.06-21.12,1.17-42.81,3.52-64.53,6.98-13.91,2.22-28.15,5.01-42.3,8.27-44.05,10.13-87.14,24.99-128.08,44.15-41.38,19.31-80.66,43.03-116.77,70.51-15.7,11.95-31.08,24.85-45.7,38.34-5.83,5.31-11.22,10.44-16.11,15.35-46.33,45.68-85.31,98.29-116,156.52-78.5,149.2-93.88,319-43.3,478.12,50.16,157.81,159.4,286.26,307.6,361.69,201.4,102.58,445.29,88.38,636.5-37.05,10.08-6.64,20.13-13.65,29.84-20.81,26.97-20,52.43-42.21,75.63-65.95,19.85-20.29,38.34-41.91,54.98-64.25,19.95-26.66,37.98-55.2,53.6-84.88,5.68-10.94,10.53-20.81,14.77-30.07,9.37-20.3,17.77-41.41,25.01-62.81,34.09-100.98,41.57-209.51,21.64-313.84h0c-35.95-188.18-154.67-346.04-325.71-433.09-88.14-44.89-185.86-68.23-284.63-68.23h0Z" style="fill: #371a45;"/>
        <path d="m360,1236.03c311.4,332.7,833.31,147.69,960.73-297.4l.21-14.24c-277.94,323.61-760.49,398.06-1081.73,67.57,16.12,89.43,55.42,174.21,120.79,244.07h0Z" style="fill: #220f2d;"/>
        <path d="m737.59,1494.66c-4.6,0-9.18-.05-13.78-.16-163.42-3.78-311.92-72.13-429.44-197.66-108.04-115.41-161.13-272.92-149.5-443.53,12.9-189.29,105.35-371.15,247.3-486.48,78.84-64.06,161.26-107.95,244.98-130.48l2.07-.56,2.14-.12c118.43-6.88,236.84,17.88,342.39,71.64,182.59,92.93,309.34,261.5,347.73,462.41h0c21.28,111.38,13.3,227.22-23.09,335-7.71,22.8-16.67,45.3-26.63,66.88-4.5,9.84-9.65,20.32-15.7,31.98-16.7,31.72-35.9,62.13-57.14,90.5l-.98,1.31-1.17,1.14c-129.79,126.38-300.09,198.11-469.18,198.12h0Zm-91.68-1217.49c-77.33,21.16-153.85,62.2-227.46,122.02-133.14,108.17-219.87,279-232,456.97-10.83,158.94,38.3,305.33,138.35,412.2,109.69,117.17,248,180.96,399.98,184.47,161.93,3.7,326.54-63.67,451.75-185.01,19.54-26.24,37.23-54.34,52.59-83.53,5.68-10.94,10.53-20.81,14.77-30.07,9.37-20.3,17.77-41.41,25.01-62.81,34.09-100.98,41.57-209.51,21.64-313.84h0c-35.95-188.18-154.67-346.04-325.71-433.09-98.34-50.09-208.58-73.34-318.92-67.29v-.02Zm546.32,1004.44h.05-.05Z" style="fill: #371a45;"/>
        <path d="m118.21,1397.64c74.78,102.54,199.02,143.95,277.53,92.47,78.5-51.48,81.52-176.34,6.74-278.87-.46-.65-.97-1.32-1.47-1.95-74.9-101.12-198.11-141.65-276.06-90.52-60.65,39.77-76.24,123.33-45.74,206.55,8.99,24.5,21.99,49,39,72.32h0Z" style="fill: #fff;"/>
        <g style="fill: none; opacity: .25;">
          <path d="m118.21,1397.64c74.78,102.54,199.02,143.95,277.53,92.47,78.5-51.48,81.52-176.34,6.74-278.87-.46-.65-.97-1.32-1.47-1.95-.96,16.18-6.83,35.35-27.58,43.79-36.35,14.77-141.63-13.65-141.63-13.65,0,0-66.41,36.81-152.59,85.89,8.99,24.5,21.99,49,39,72.32Z" style="fill: #371a45;"/>
        </g>
        <path d="m318.33,1532.78c-75.59,0-160.07-44.83-216.97-122.85-46.73-64.08-66.74-138.15-54.89-203.21,8.31-45.62,31.49-82.05,67.04-105.37,87.52-57.4,224.7-13.62,305.8,97.6,46.73,64.08,66.74,138.15,54.89,203.21-8.31,45.62-31.49,82.06-67.04,105.37-26.12,17.13-56.67,25.25-88.83,25.25Zm-114.98-415.49c-24.43,0-47.41,6.08-66.98,18.91-25.77,16.9-42.68,43.87-48.89,77.98-9.67,53.09,8.11,117.09,47.56,171.18,68.22,93.54,180.04,132.72,249.27,87.3,25.77-16.9,42.68-43.87,48.89-77.98,9.67-53.09-8.11-117.09-47.56-171.19-48.93-67.1-120.3-106.22-182.29-106.22v.02Z" style="fill: #371a45;"/>
        <g>
          <ellipse cx="227.34" cy="1352.01" rx="138.09" ry="182.68" transform="translate(-840.3 491.92) rotate(-41.6)" style="fill: #fff;"/>
          <path d="m270.26,1519.09c-35.64,0-73.69-13.1-108.34-37.89-81.43-58.27-118.54-163.59-82.74-234.78,14.71-29.26,40.61-49.76,72.92-57.73,43.99-10.85,95.28,1.55,140.69,34.05,81.43,58.27,118.54,163.59,82.74,234.78-14.71,29.26-40.61,49.76-72.92,57.73-10.43,2.57-21.28,3.84-32.36,3.84h.01Zm-85.79-329.13c-10.67,0-21.11,1.22-31.15,3.69-31.28,7.72-55.34,26.76-69.58,55.06-34.72,69.04,1.68,171.46,81.15,228.33,44.19,31.62,93.94,43.74,136.5,33.24,31.28-7.71,55.34-26.76,69.58-55.06,34.72-69.04-1.69-171.46-81.15-228.33-33.76-24.16-70.78-36.94-105.35-36.94h0Z" style="fill: #371a45;"/>
        </g>
        <g style="fill: none; opacity: .25;">
          <path d="m378.67,1337.96c-12.84-32.12-34.65-60.76-61.23-83.23,23.03,75.77-14.94,140.95-89.65,148.95-48.28,5.19-100.8-14.74-141.92-49.54,1.42,4.79,3.16,9.65,5.1,14.52,32.73,81.78,123.67,141.22,203.12,132.73s117.28-81.68,84.58-163.43Z" style="fill: #371a45;"/>
        </g>
        <path d="m279.18,1535.86c-61.14,0-130.69-38.49-179.89-105.41h0c-39.98-54.37-58.05-118.29-48.34-171.01,6.37-34.61,23.92-62.05,50.75-79.35,69.73-44.96,178.22-6.94,246.97,86.55,39.98,54.37,58.05,118.3,48.34,171.01-6.37,34.61-23.92,62.05-50.75,79.34-19.83,12.78-42.79,18.86-67.08,18.86h0Zm-146.31-130.09c53.87,73.26,141.25,108.15,190.81,76.21,21.38-13.78,29.39-35.81,32.34-51.86,7.66-41.62-7.64-93.49-40.93-138.77-53.87-73.26-141.26-108.16-190.81-76.21-21.38,13.78-29.39,35.81-32.34,51.86-7.66,41.61,7.64,93.49,40.93,138.77h0Z" style="fill: #371a45;"/>
        <g style="fill: none; opacity: .5;">
          <path d="m415.19,638.85s227.95-162.55,447.87-136.84c.23.03.46.05.69.08,46.28,5.45,90.09,23.26,126.95,51.2,48.75,36.96,76.81,69.58,100.38,99.26,71.63,90.29,88.01,146.11,88.01,146.11,14.42-88.77.9-166.07-58-241.87-5.83-7.46-12.12-14.93-18.82-22.4-1.54-1.73-3.1-3.4-4.7-5.07.03-.05-.02-.07-.11-.09-14.66-14.16-34.64-32.04-58.89-50.32-73.13-55.17-185.01-114.17-306.88-86.59-227.89,51.56-331.54,243.03-316.49,246.51v.02Z" style="fill: #fff;"/>
        </g>
        <g style="fill: none; opacity: .5;">
          <ellipse cx="460.08" cy="982.6" rx="87.23" ry="100.2" transform="translate(-344.06 254.22) rotate(-22.74)" style="fill: #fff;"/>
        </g>
        <g style="fill: none; opacity: .5;">
          <ellipse cx="531.9" cy="1149.86" rx="36.01" ry="41.39" transform="translate(-319.68 211.83) rotate(-17.41)" style="fill: #fff;"/>
        </g>
      </g>
      <g style="fill: none; opacity: .2;">
        <path d="m458.15,1812.3c1.01-6.33,2.32-12.34,3.94-18.04-1.65,5.68-2.97,11.68-3.94,18.04Z" style="fill: #000072;"/>
      </g>
    </g>
  </g>
</svg>
