<svg width="566" height="648" viewBox="0 0 566 648" fill="none" xmlns="http://www.w3.org/2000/svg">
<path d="M462.17 0.190002H0.849976V216.38H462.17V0.190002Z" fill="black"/>
<path d="M353.39 233.61H0.849976V365.19H353.39V233.61Z" fill="black"/>
<path d="M565.92 374.92H0.849976V506.5H565.92V374.92Z" fill="black"/>
<path d="M212.85 516.23H0.849976V647.81H212.85V516.23Z" fill="black"/>
<path d="M91.21 71.94C83.56 65.38 72.86 62.1 59.1 62.1C51.77 62.1 44.35 62.97 36.82 64.7C29.3 66.43 21.36 69.17 13 72.89L24.18 95.07C29.97 92.63 35.14 90.8 39.7 89.57C44.26 88.35 48.41 87.74 52.14 87.74C58.82 87.74 63.77 88.93 66.99 91.31C70.2 93.69 71.81 97.32 71.81 102.21V110.7C67.44 108.9 63.39 107.61 59.66 106.84C55.93 106.07 52.27 105.68 48.67 105.68C40.57 105.68 33.63 106.81 27.84 109.05C22.05 111.3 17.62 114.58 14.53 118.89C11.44 123.2 9.90002 128.44 9.90002 134.61C9.90002 140.78 11.35 145.73 14.24 150.23C17.13 154.73 21.18 158.27 26.39 160.84C31.6 163.41 37.54 164.7 44.23 164.7C49.5 164.7 54.32 163.83 58.69 162.09C63.06 160.36 67.43 157.56 71.81 153.7V163.15H102.67V99.51C102.67 87.68 98.84 78.49 91.2 71.93L91.21 71.94ZM71.83 138.47C69.26 140.27 66.46 141.65 63.44 142.62C60.42 143.59 57.24 144.07 53.89 144.07C49.13 144.07 45.4 143.2 42.7 141.47C40 139.73 38.65 137.26 38.65 134.04C38.65 130.82 40.06 128.39 42.89 126.71C45.71 125.04 49.64 124.2 54.65 124.2C57.48 124.2 60.34 124.43 63.23 124.88C66.12 125.33 68.98 125.94 71.81 126.71V138.48L71.83 138.47Z" fill="#66CC33"/>
<path d="M173.65 129.03L153.02 63.65H118.88L155.91 165.86L154.56 169.33C153.28 172.42 151.28 174.7 148.58 176.18C145.88 177.65 142.34 178.4 137.97 178.4C134.62 178.4 132.02 178.3 130.16 178.11C128.29 177.92 125.88 177.56 122.93 177.05V203.28C126.02 203.92 129.23 204.44 132.57 204.82C135.91 205.21 138.93 205.4 141.64 205.4C149.35 205.4 155.88 204.4 161.21 202.41C166.54 200.41 171.11 197.14 174.9 192.57C178.69 188 182.13 181.93 185.22 174.34L229.96 63.64H196.6L173.65 129.02V129.03Z" fill="#66CC33"/>
<path d="M322.63 71.94C314.98 65.38 304.27 62.1 290.52 62.1C283.19 62.1 275.77 62.97 268.24 64.7C260.72 66.43 252.78 69.17 244.42 72.89L255.61 95.07C261.4 92.63 266.57 90.8 271.13 89.57C275.69 88.35 279.84 87.74 283.57 87.74C290.25 87.74 295.2 88.93 298.42 91.31C301.63 93.69 303.24 97.32 303.24 102.21V110.7C298.87 108.9 294.82 107.61 291.09 106.84C287.36 106.07 283.69 105.68 280.1 105.68C272 105.68 265.06 106.81 259.27 109.05C253.48 111.3 249.05 114.58 245.96 118.89C242.87 123.2 241.33 128.44 241.33 134.61C241.33 140.78 242.78 145.73 245.67 150.23C248.56 154.73 252.61 158.27 257.82 160.84C263.03 163.41 268.97 164.7 275.66 164.7C280.93 164.7 285.75 163.83 290.12 162.09C294.49 160.36 298.86 157.56 303.24 153.7V163.15H334.09V99.51C334.09 87.68 330.26 78.49 322.62 71.93L322.63 71.94ZM303.25 138.47C300.68 140.27 297.88 141.65 294.86 142.62C291.84 143.59 288.66 144.07 285.31 144.07C280.55 144.07 276.82 143.2 274.13 141.47C271.43 139.73 270.08 137.26 270.08 134.04C270.08 130.82 271.49 128.39 274.32 126.71C277.14 125.04 281.07 124.2 286.08 124.2C288.91 124.2 291.77 124.43 294.66 124.88C297.55 125.33 300.41 125.94 303.24 126.71V138.48L303.25 138.47Z" fill="#66CC33"/>
<path d="M31.12 334.08C26.94 334.08 23.22 333.33 19.95 331.83C16.68 330.33 14.13 328.26 12.32 325.62C10.51 322.98 9.59998 319.93 9.59998 316.46C9.59998 312.99 10.53 309.96 12.38 307.36C14.23 304.76 16.83 302.75 20.18 301.33C23.53 299.91 27.41 299.2 31.83 299.2C35.3 299.2 38.53 299.53 41.52 300.2C44.51 300.87 47.35 301.99 50.03 303.57V296.95C50.03 291.83 48.73 287.97 46.13 285.36C43.53 282.76 39.66 281.46 34.54 281.46C31.62 281.46 28.71 281.87 25.79 282.7C22.87 283.53 19.6 284.97 15.98 287.01L12.43 280.51C16.61 278.23 20.59 276.61 24.37 275.66C28.15 274.72 31.9 274.24 35.6 274.24C42.93 274.24 48.59 276.09 52.57 279.8C56.55 283.51 58.54 288.83 58.54 295.76V332.88H50.03V326.26C47.35 328.94 44.45 330.91 41.34 332.17C38.23 333.43 34.82 334.06 31.11 334.06L31.12 334.08ZM17.88 316.23C17.88 319.62 19.26 322.34 22.02 324.39C24.78 326.44 28.4 327.47 32.9 327.47C36.29 327.47 39.38 326.94 42.18 325.87C44.98 324.8 47.6 323.09 50.04 320.73V309.62C47.6 308.12 44.99 307.06 42.24 306.43C39.48 305.8 36.45 305.49 33.14 305.49C28.57 305.49 24.88 306.48 22.08 308.45C19.28 310.42 17.88 313.02 17.88 316.25V316.23Z" fill="white"/>
<path d="M107.02 361.15C104.34 361.15 101.9 360.8 99.69 360.09C97.48 359.38 95.59 358.32 94.02 356.9L97.33 353.12C100.09 355.41 103.2 356.55 106.67 356.55C109.11 356.55 111 356 112.34 354.9C113.68 353.8 114.35 352.3 114.35 350.41C114.35 348.52 113.62 347.18 112.16 346.15C110.7 345.12 108.63 344.61 105.95 344.61H102.52L105.24 333.97C100.27 333.42 95.84 331.8 91.94 329.12C88.04 326.44 84.94 322.93 82.66 318.6C80.37 314.27 79.23 309.46 79.23 304.18C79.23 298.51 80.51 293.4 83.07 288.87C85.63 284.34 89.1 280.77 93.47 278.17C97.85 275.57 102.75 274.27 108.19 274.27C113.63 274.27 118.4 275.45 122.73 277.82C127.06 280.18 130.49 283.38 133.02 287.4L126.04 291.77C124.23 288.78 121.76 286.39 118.65 284.62C115.53 282.85 112.05 281.96 108.19 281.96C104.33 281.96 100.74 282.93 97.67 284.86C94.6 286.79 92.17 289.41 90.4 292.72C88.63 296.03 87.74 299.86 87.74 304.19C87.74 308.52 88.63 312.25 90.4 315.6C92.17 318.95 94.6 321.59 97.67 323.52C100.75 325.45 104.25 326.42 108.19 326.42C112.13 326.42 115.54 325.53 118.65 323.76C121.76 321.99 124.22 319.6 126.04 316.61L133.02 320.99C130.66 324.77 127.48 327.81 123.5 330.09C119.52 332.38 115.08 333.68 110.2 333.99L108.66 340.73C112.13 340.89 114.91 341.81 117 343.51C119.09 345.2 120.13 347.43 120.13 350.19C120.13 353.34 118.91 355.96 116.46 358.05C114.02 360.14 110.86 361.18 107 361.18L107.02 361.15Z" fill="white"/>
<path d="M191.79 334.08C185.72 334.08 181.07 332.66 177.84 329.83C174.61 326.99 172.99 322.74 172.99 317.06V282.3H151.59V275.21H181.62V316.24C181.62 319.87 182.49 322.47 184.22 324.04C185.95 325.62 188.52 326.4 191.91 326.4C193.96 326.4 196.05 326.18 198.18 325.75C200.31 325.32 202.67 324.59 205.27 323.56V331.36C202.98 332.15 200.72 332.8 198.47 333.31C196.22 333.82 194 334.08 191.79 334.08Z" fill="white"/>
<path d="M227.02 332.9V247.54L235.65 245.77V301.81L266.15 275.21H277.03L245.11 302.88L278.33 332.91H266.74L235.65 304.77V332.91H227.02V332.9Z" fill="white"/>
<path d="M16.11 500.67C14.85 500.67 13.53 500.59 12.15 500.43C10.77 500.27 9.41001 500.04 8.07001 499.72V491.56C9.57001 491.88 10.89 492.13 12.03 492.33C13.17 492.53 14.22 492.62 15.16 492.62C17.84 492.62 20.09 492.07 21.9 490.97C23.71 489.87 25.17 487.97 26.28 485.3L30.65 475.13L7.23999 417.08H16.7L35.62 464.85L55.25 417.08H64.59L34.21 487.9C32.87 490.97 31.39 493.46 29.78 495.35C28.16 497.24 26.27 498.6 24.11 499.43C21.94 500.26 19.28 500.67 16.13 500.67H16.11Z" fill="white"/>
<path d="M102.06 475.96C97.88 475.96 94.16 475.21 90.89 473.71C87.62 472.21 85.07 470.14 83.26 467.5C81.45 464.86 80.54 461.81 80.54 458.34C80.54 454.87 81.47 451.84 83.32 449.24C85.17 446.64 87.77 444.63 91.12 443.21C94.47 441.79 98.35 441.08 102.77 441.08C106.24 441.08 109.47 441.41 112.46 442.08C115.46 442.75 118.29 443.87 120.97 445.45V438.83C120.97 433.71 119.67 429.85 117.07 427.24C114.47 424.64 110.6 423.34 105.48 423.34C102.56 423.34 99.65 423.75 96.73 424.58C93.81 425.41 90.54 426.85 86.92 428.89L83.37 422.39C87.55 420.11 91.53 418.49 95.31 417.54C99.09 416.6 102.84 416.12 106.54 416.12C113.87 416.12 119.53 417.97 123.51 421.68C127.49 425.39 129.48 430.71 129.48 437.64V474.76H120.97V468.14C118.29 470.82 115.39 472.79 112.28 474.05C109.17 475.31 105.76 475.94 102.05 475.94L102.06 475.96ZM88.82 458.11C88.82 461.5 90.2 464.22 92.96 466.27C95.72 468.32 99.34 469.35 103.84 469.35C107.23 469.35 110.32 468.82 113.12 467.75C115.92 466.68 118.54 464.97 120.98 462.61V451.5C118.54 450 115.93 448.94 113.18 448.31C110.42 447.68 107.39 447.37 104.08 447.37C99.51 447.37 95.82 448.36 93.02 450.33C90.22 452.3 88.82 454.9 88.82 458.13V458.11Z" fill="white"/>
<path d="M153.25 474.77V467.91L190.49 424.87L153.6 424.99V417.07H201.72V423.81L164.24 467.08L202.19 466.96V474.76H153.24L153.25 474.77Z" fill="white"/>
<path d="M262.73 475.96C256.66 475.96 252.01 474.54 248.78 471.71C245.55 468.87 243.93 464.62 243.93 458.94V424.18H222.53V417.09H252.56V458.12C252.56 461.75 253.43 464.35 255.16 465.92C256.89 467.5 259.46 468.28 262.85 468.28C264.9 468.28 266.99 468.06 269.12 467.63C271.25 467.2 273.61 466.47 276.21 465.44V473.24C273.92 474.03 271.66 474.68 269.41 475.19C267.16 475.7 264.94 475.96 262.73 475.96Z" fill="white"/>
<path d="M333.66 475.96C327.59 475.96 322.94 474.54 319.71 471.71C316.48 468.87 314.86 464.62 314.86 458.94V395.92H293.46V388.83H323.49V458.11C323.49 461.74 324.36 464.34 326.09 465.91C327.82 467.49 330.39 468.27 333.78 468.27C335.83 468.27 337.92 468.05 340.05 467.62C342.18 467.19 344.54 466.46 347.14 465.43V473.23C344.85 474.02 342.59 474.67 340.34 475.18C338.09 475.69 335.87 475.95 333.66 475.95V475.96Z" fill="white"/>
<path d="M404.6 475.96C398.53 475.96 393.88 474.54 390.65 471.71C387.42 468.87 385.8 464.62 385.8 458.94V424.18H364.4V417.09H394.43V458.12C394.43 461.75 395.3 464.35 397.03 465.92C398.76 467.5 401.33 468.28 404.72 468.28C406.77 468.28 408.86 468.06 410.99 467.63C413.12 467.2 415.48 466.47 418.08 465.44V473.24C415.79 474.03 413.53 474.68 411.28 475.19C409.03 475.7 406.81 475.96 404.6 475.96Z" fill="white"/>
<path d="M434.39 474.77V417.07H442.43V422.04C443.85 419.99 445.4 418.51 447.1 417.61C448.8 416.71 450.74 416.25 452.95 416.25C455.47 416.25 457.72 416.86 459.69 418.08C461.66 419.3 463.2 421.02 464.3 423.22C465.88 420.78 467.71 419 469.8 417.9C471.89 416.8 474.27 416.25 476.95 416.25C480.81 416.25 483.94 417.67 486.35 420.51C488.75 423.35 489.96 427.05 489.96 431.62V474.77H482.04V433.74C482.04 430.35 481.33 427.67 479.91 425.7C478.49 423.73 476.44 422.74 473.76 422.74C472.26 422.74 470.88 423.08 469.62 423.75C468.36 424.42 467.14 425.7 465.95 427.59C466.11 428.22 466.2 428.87 466.25 429.54C466.29 430.21 466.31 430.9 466.31 431.61V474.76H458.39V433.73C458.39 430.34 457.66 427.66 456.2 425.69C454.74 423.72 452.63 422.73 449.87 422.73C448.53 422.73 447.23 423.03 445.97 423.62C444.71 424.21 443.53 425.37 442.42 427.11V474.76H434.38L434.39 474.77Z" fill="white"/>
<path d="M31.12 617.83C26.94 617.83 23.22 617.08 19.95 615.58C16.68 614.08 14.13 612.01 12.32 609.37C10.51 606.73 9.59998 603.68 9.59998 600.21C9.59998 596.74 10.53 593.71 12.38 591.11C14.23 588.51 16.83 586.5 20.18 585.08C23.53 583.66 27.41 582.95 31.83 582.95C35.3 582.95 38.53 583.28 41.52 583.95C44.51 584.62 47.35 585.74 50.03 587.32V580.7C50.03 575.58 48.73 571.72 46.13 569.11C43.53 566.51 39.66 565.21 34.54 565.21C31.62 565.21 28.71 565.62 25.79 566.45C22.87 567.28 19.6 568.72 15.98 570.76L12.43 564.26C16.61 561.98 20.59 560.36 24.37 559.41C28.15 558.47 31.9 557.99 35.6 557.99C42.93 557.99 48.59 559.84 52.57 563.55C56.55 567.26 58.54 572.58 58.54 579.51V616.63H50.03V610.01C47.35 612.69 44.45 614.66 41.34 615.92C38.23 617.18 34.82 617.81 31.11 617.81L31.12 617.83ZM17.88 599.98C17.88 603.37 19.26 606.09 22.02 608.14C24.78 610.19 28.4 611.22 32.9 611.22C36.29 611.22 39.38 610.69 42.18 609.62C44.98 608.55 47.6 606.84 50.04 604.48V593.37C47.6 591.87 44.99 590.81 42.24 590.18C39.48 589.55 36.45 589.24 33.14 589.24C28.57 589.24 24.88 590.23 22.08 592.2C19.28 594.17 17.88 596.77 17.88 600V599.98Z" fill="white"/>
<path d="M107.61 642.54C103.75 642.54 99.87 642.01 95.96 640.94C92.06 639.88 88.45 638.4 85.14 636.51L88.8 629.89C92.35 631.7 95.58 633.04 98.49 633.91C101.41 634.78 104.32 635.21 107.24 635.21C117.96 635.21 123.32 630.28 123.32 620.43V608.84C121.11 611.6 118.43 613.71 115.28 615.17C112.13 616.63 108.66 617.36 104.88 617.36C99.92 617.36 95.42 616.04 91.4 613.4C87.38 610.76 84.19 607.21 81.82 602.76C79.46 598.31 78.27 593.32 78.27 587.8C78.27 582.28 79.47 577.3 81.88 572.84C84.28 568.39 87.54 564.84 91.63 562.2C95.73 559.56 100.3 558.24 105.34 558.24C108.96 558.24 112.32 558.93 115.39 560.31C118.47 561.69 121.14 563.72 123.43 566.4V558.95H131.94V620.31C131.94 627.48 129.85 632.98 125.67 636.8C121.49 640.62 115.46 642.53 107.58 642.53L107.61 642.54ZM107.02 609.91C110.41 609.91 113.52 609.22 116.36 607.84C119.2 606.46 121.52 604.55 123.34 602.11V573.62C121.45 571.18 119.06 569.27 116.19 567.89C113.31 566.51 110.26 565.82 107.03 565.82C103.17 565.82 99.72 566.76 96.68 568.66C93.65 570.55 91.24 573.15 89.47 576.46C87.7 579.77 86.81 583.55 86.81 587.81C86.81 592.07 87.7 595.75 89.47 599.1C91.24 602.45 93.65 605.09 96.68 607.02C99.71 608.95 103.16 609.92 107.03 609.92L107.02 609.91ZM107.14 548.19C102.33 548.19 98.27 546.87 94.96 544.23C91.65 541.59 89.44 537.95 88.34 533.29L94.37 531.87C96.18 539.12 100.44 542.75 107.14 542.75C110.37 542.75 113.07 541.8 115.24 539.91C117.41 538.02 118.92 535.34 119.79 531.87L125.7 533.29C124.67 537.94 122.51 541.59 119.2 544.23C115.89 546.87 111.87 548.19 107.14 548.19Z" fill="white"/>
<path d="M191.79 617.83C185.72 617.83 181.07 616.41 177.84 613.58C174.61 610.74 172.99 606.49 172.99 600.81V566.05H151.59V558.96H181.62V599.99C181.62 603.62 182.49 606.22 184.22 607.79C185.95 609.37 188.52 610.15 191.91 610.15C193.96 610.15 196.05 609.93 198.18 609.5C200.31 609.07 202.67 608.34 205.27 607.31V615.11C202.98 615.9 200.72 616.55 198.47 617.06C196.22 617.57 194 617.83 191.79 617.83Z" fill="white"/>
</svg>
