<svg xmlns="http://www.w3.org/2000/svg" viewBox="0 0 307 296">
  <g clipPath="url(#clip0_1_15)">
    <path
      d="M158.995 228.812C156.075 230.578 151.328 230.583 148.397 228.833L48.6418 169.219L28.2264 179.969L148.397 251.781C151.328 253.531 156.075 253.521 158.995 251.76L218.511 215.922L278.028 180.083L257.64 169.411L158.995 228.812Z"
      fill="currentColor"
      fillOpacity="0.2"
    />
    <path
      d="M48.4425 176.193L17.0085 192.74C14.2444 194.193 12.5687 195.974 12.5256 197.5C12.4825 199.031 14.0558 200.896 16.7283 202.495L151.678 283.141C151.931 283.292 152.632 283.547 153.677 283.547C154.728 283.547 155.439 283.286 155.697 283.135L289.494 202.562C292.167 200.958 293.729 199.078 293.681 197.547C293.637 196.01 291.951 194.229 289.187 192.781L257.861 176.385L162.292 233.932C159.9 235.375 156.84 236.172 153.677 236.172C150.541 236.172 147.502 235.385 145.121 233.964L48.4425 176.193ZM153.677 295.609C150.541 295.609 147.497 294.823 145.115 293.401L10.1657 212.755C3.57067 208.812 -0.114775 203.13 0.052255 197.167C0.224673 191.203 4.22801 185.729 11.0385 182.146L48.8412 162.25L151.678 223.703C151.926 223.854 152.632 224.109 153.677 224.109C154.733 224.109 155.439 223.849 155.697 223.698L257.424 162.438L295.13 182.172C301.951 185.75 305.965 191.214 306.159 197.182C306.342 203.141 302.679 208.839 296.094 212.802L162.292 293.37C159.9 294.812 156.84 295.609 153.677 295.609Z"
      fill="currentColor"
    />
    <path
      d="M31.5671 118.771L148.397 188.589C151.328 190.344 156.075 190.328 158.995 188.573L274.693 118.901L152.675 55.0208L31.5671 118.771Z"
      fill="currentColor"
      fillOpacity="0.2"
    />
    <path
      d="M152.68 61.8802L17.0085 133.302C14.2444 134.75 12.5687 136.531 12.5256 138.062C12.4825 139.589 14.0558 141.458 16.7283 143.052L151.678 223.703C151.926 223.854 152.632 224.109 153.677 224.109C154.733 224.109 155.439 223.849 155.697 223.698L289.494 143.125C292.167 141.516 293.729 139.641 293.681 138.104C293.637 136.573 291.956 134.792 289.187 133.344L152.68 61.8802ZM153.677 236.172C150.541 236.172 147.502 235.385 145.121 233.964L10.1657 153.312C3.57067 149.375 -0.114775 143.693 0.052255 137.729C0.224673 131.766 4.22801 126.292 11.0385 122.703L152.664 48.1562L295.13 122.74C301.951 126.307 305.965 131.776 306.159 137.74C306.342 143.703 302.679 149.396 296.094 153.359L162.292 233.932C159.9 235.375 156.84 236.172 153.677 236.172Z"
      fill="currentColor"
    />
    <path
      d="M148.397 172.547C151.328 174.297 156.075 174.292 158.995 172.526L292.797 91.9583C302.544 86.0833 302.258 77.0417 292.161 71.7552L158.16 1.60414C155.126 0.0208062 150.218 0.026014 147.195 1.61976L14.0235 71.7188C3.93704 77.026 3.67842 86.0625 13.447 91.901L148.397 172.547Z"
      fill="currentColor"
    />
  </g>
</svg>
