<?xml version="1.0" encoding="UTF-8"?><svg id="a" xmlns="http://www.w3.org/2000/svg" viewBox="0 0 1080 1080"><defs><style>.b{fill:#6c3;}.c{fill:#fff;}</style></defs><rect x="-10" y="-10" width="1100" height="1100"/><g><rect class="b" x="257.47" y="216.19" width="461.32" height="216.19"/><rect class="c" x="257.47" y="449.61" width="352.54" height="131.58"/><rect class="c" x="257.47" y="590.92" width="565.07" height="131.58"/><rect class="c" x="257.47" y="732.23" width="212" height="131.58"/><g><path d="M347.82,287.94c-7.65-6.56-18.35-9.84-32.11-9.84-7.33,0-14.75,.87-22.28,2.6-7.52,1.73-15.46,4.47-23.82,8.19l11.18,22.18c5.79-2.44,10.96-4.27,15.52-5.5,4.56-1.22,8.71-1.83,12.44-1.83,6.68,0,11.63,1.19,14.85,3.57,3.21,2.38,4.82,6.01,4.82,10.9v8.49c-4.37-1.8-8.42-3.09-12.15-3.86-3.73-.77-7.39-1.16-10.99-1.16-8.1,0-15.04,1.13-20.83,3.37-5.79,2.25-10.22,5.53-13.31,9.84-3.09,4.31-4.63,9.55-4.63,15.72s1.45,11.12,4.34,15.62c2.89,4.5,6.94,8.04,12.15,10.61,5.21,2.57,11.15,3.86,17.84,3.86,5.27,0,10.09-.87,14.46-2.61,4.37-1.73,8.74-4.53,13.12-8.39v9.45h30.86v-63.64c0-11.83-3.83-21.02-11.47-27.58Zm-19.38,66.53c-2.57,1.8-5.37,3.18-8.39,4.15-3.02,.97-6.2,1.45-9.55,1.45-4.76,0-8.49-.87-11.19-2.6-2.7-1.74-4.05-4.21-4.05-7.43s1.41-5.65,4.24-7.33c2.82-1.67,6.75-2.51,11.76-2.51,2.83,0,5.69,.23,8.58,.68,2.89,.45,5.75,1.06,8.58,1.83v11.77Z"/><path d="M430.26,345.03l-20.63-65.38h-34.14l37.03,102.21-1.35,3.47c-1.28,3.09-3.28,5.37-5.98,6.85-2.7,1.47-6.24,2.22-10.61,2.22-3.35,0-5.95-.1-7.81-.29-1.87-.19-4.28-.55-7.23-1.06v26.23c3.09,.64,6.3,1.16,9.64,1.54,3.34,.39,6.36,.58,9.07,.58,7.71,0,14.24-1,19.57-2.99,5.33-2,9.9-5.27,13.69-9.84,3.79-4.57,7.23-10.64,10.32-18.23l44.74-110.7h-33.36l-22.95,65.38Z"/><path d="M579.24,287.94c-7.65-6.56-18.36-9.84-32.11-9.84-7.33,0-14.75,.87-22.28,2.6-7.52,1.73-15.46,4.47-23.82,8.19l11.19,22.18c5.79-2.44,10.96-4.27,15.52-5.5,4.56-1.22,8.71-1.83,12.44-1.83,6.68,0,11.63,1.19,14.85,3.57,3.21,2.38,4.82,6.01,4.82,10.9v8.49c-4.37-1.8-8.42-3.09-12.15-3.86-3.73-.77-7.4-1.16-10.99-1.16-8.1,0-15.04,1.13-20.83,3.37-5.79,2.25-10.22,5.53-13.31,9.84-3.09,4.31-4.63,9.55-4.63,15.72s1.45,11.12,4.34,15.62c2.89,4.5,6.94,8.04,12.15,10.61,5.21,2.57,11.15,3.86,17.84,3.86,5.27,0,10.09-.87,14.46-2.61,4.37-1.73,8.74-4.53,13.12-8.39v9.45h30.85v-63.64c0-11.83-3.83-21.02-11.47-27.58Zm-19.38,66.53c-2.57,1.8-5.37,3.18-8.39,4.15-3.02,.97-6.2,1.45-9.55,1.45-4.76,0-8.49-.87-11.18-2.6-2.7-1.74-4.05-4.21-4.05-7.43s1.41-5.65,4.24-7.33c2.82-1.67,6.75-2.51,11.76-2.51,2.83,0,5.69,.23,8.58,.68,2.89,.45,5.75,1.06,8.58,1.83v11.77Z"/></g><g><path d="M287.73,550.08c-4.18,0-7.9-.75-11.17-2.25-3.27-1.5-5.82-3.57-7.63-6.21-1.81-2.64-2.72-5.69-2.72-9.16s.93-6.5,2.78-9.1c1.85-2.6,4.45-4.61,7.8-6.03,3.35-1.42,7.23-2.13,11.65-2.13,3.47,0,6.7,.33,9.69,1,3,.67,5.83,1.79,8.51,3.37v-6.62c0-5.12-1.3-8.98-3.9-11.59-2.6-2.6-6.47-3.9-11.59-3.9-2.92,0-5.83,.41-8.75,1.24-2.92,.83-6.19,2.27-9.81,4.31l-3.55-6.5c4.18-2.28,8.16-3.9,11.94-4.85,3.78-.94,7.53-1.42,11.23-1.42,7.33,0,12.99,1.85,16.97,5.56,3.98,3.71,5.97,9.03,5.97,15.96v37.12h-8.51v-6.62c-2.68,2.68-5.58,4.65-8.69,5.91-3.11,1.26-6.52,1.89-10.23,1.89Zm-13.24-17.85c0,3.39,1.38,6.11,4.14,8.16,2.76,2.05,6.38,3.08,10.88,3.08,3.39,0,6.48-.53,9.28-1.6,2.8-1.06,5.42-2.78,7.86-5.14v-11.11c-2.44-1.5-5.05-2.56-7.8-3.19-2.76-.63-5.79-.94-9.1-.94-4.57,0-8.26,.99-11.06,2.96-2.8,1.97-4.2,4.57-4.2,7.8Z"/><path d="M363.63,577.15c-2.68,0-5.12-.35-7.33-1.06-2.21-.71-4.1-1.77-5.67-3.19l3.31-3.78c2.76,2.29,5.87,3.43,9.34,3.43,2.44,0,4.33-.55,5.67-1.65,1.34-1.1,2.01-2.6,2.01-4.49s-.73-3.23-2.19-4.26c-1.46-1.03-3.53-1.54-6.21-1.54h-3.43l2.72-10.64c-4.97-.55-9.4-2.17-13.3-4.85-3.9-2.68-7-6.19-9.28-10.52-2.29-4.33-3.43-9.14-3.43-14.42,0-5.67,1.28-10.78,3.84-15.31,2.56-4.53,6.03-8.1,10.4-10.7,4.38-2.6,9.28-3.9,14.72-3.9s10.21,1.18,14.54,3.55c4.33,2.36,7.76,5.56,10.29,9.58l-6.98,4.37c-1.81-2.99-4.28-5.38-7.39-7.15-3.12-1.77-6.6-2.66-10.46-2.66s-7.45,.97-10.52,2.9c-3.07,1.93-5.5,4.55-7.27,7.86-1.77,3.31-2.66,7.14-2.66,11.47s.89,8.06,2.66,11.41c1.77,3.35,4.2,5.99,7.27,7.92,3.08,1.93,6.58,2.9,10.52,2.9s7.35-.89,10.46-2.66c3.11-1.77,5.57-4.16,7.39-7.15l6.98,4.38c-2.36,3.78-5.54,6.82-9.52,9.1-3.98,2.29-8.42,3.59-13.3,3.9l-1.54,6.74c3.47,.16,6.25,1.08,8.34,2.78,2.09,1.69,3.13,3.92,3.13,6.68,0,3.15-1.22,5.77-3.67,7.86-2.44,2.09-5.6,3.13-9.46,3.13Z"/><path d="M448.4,550.08c-6.07,0-10.72-1.42-13.95-4.25-3.23-2.84-4.85-7.09-4.85-12.77v-34.76h-21.4v-7.09h30.03v41.03c0,3.63,.87,6.23,2.6,7.8,1.73,1.58,4.3,2.36,7.69,2.36,2.05,0,4.14-.22,6.27-.65s4.49-1.16,7.09-2.19v7.8c-2.29,.79-4.55,1.44-6.8,1.95s-4.47,.77-6.68,.77Z"/><path d="M483.63,548.9v-85.36l8.63-1.77v56.04l30.5-26.6h10.88l-31.92,27.67,33.22,30.03h-11.59l-31.09-28.14v28.14h-8.63Z"/><path d="M272.72,716.67c-1.26,0-2.58-.08-3.96-.24-1.38-.16-2.74-.39-4.08-.71v-8.16c1.5,.32,2.82,.57,3.96,.77,1.14,.2,2.19,.29,3.13,.29,2.68,0,4.93-.55,6.74-1.65,1.81-1.1,3.27-3,4.38-5.67l4.37-10.17-23.41-58.05h9.46l18.92,47.77,19.63-47.77h9.34l-30.38,70.82c-1.34,3.07-2.82,5.56-4.43,7.45-1.62,1.89-3.51,3.25-5.67,4.08-2.17,.83-4.83,1.24-7.98,1.24Z"/><path d="M358.67,691.96c-4.18,0-7.9-.75-11.17-2.25-3.27-1.5-5.82-3.57-7.63-6.21-1.81-2.64-2.72-5.69-2.72-9.16s.93-6.5,2.78-9.1c1.85-2.6,4.45-4.61,7.8-6.03,3.35-1.42,7.23-2.13,11.65-2.13,3.47,0,6.7,.33,9.69,1,3,.67,5.83,1.79,8.51,3.37v-6.62c0-5.12-1.3-8.98-3.9-11.59-2.6-2.6-6.47-3.9-11.59-3.9-2.92,0-5.83,.41-8.75,1.24-2.92,.83-6.19,2.27-9.81,4.31l-3.55-6.5c4.18-2.28,8.16-3.9,11.94-4.85,3.78-.94,7.53-1.42,11.23-1.42,7.33,0,12.99,1.85,16.97,5.56,3.98,3.71,5.97,9.03,5.97,15.96v37.12h-8.51v-6.62c-2.68,2.68-5.58,4.65-8.69,5.91-3.11,1.26-6.52,1.89-10.23,1.89Zm-13.24-17.85c0,3.39,1.38,6.11,4.14,8.16,2.76,2.05,6.38,3.08,10.88,3.08,3.39,0,6.48-.53,9.28-1.6s5.42-2.78,7.86-5.14v-11.11c-2.44-1.5-5.05-2.56-7.8-3.19-2.76-.63-5.79-.94-9.1-.94-4.57,0-8.26,.99-11.06,2.96-2.8,1.97-4.2,4.57-4.2,7.8Z"/><path d="M409.86,690.77v-6.86l37.24-43.04-36.89,.12v-7.92h48.12v6.74l-37.48,43.27,37.95-.12v7.8h-48.95Z"/><path d="M519.34,691.96c-6.07,0-10.72-1.42-13.95-4.25-3.23-2.84-4.85-7.09-4.85-12.77v-34.76h-21.4v-7.09h30.03v41.03c0,3.63,.87,6.23,2.6,7.8,1.73,1.58,4.3,2.36,7.69,2.36,2.05,0,4.14-.22,6.27-.65s4.49-1.16,7.09-2.19v7.8c-2.29,.79-4.55,1.44-6.8,1.95s-4.47,.77-6.68,.77Z"/><path d="M590.28,691.96c-6.07,0-10.72-1.42-13.95-4.25-3.23-2.84-4.85-7.09-4.85-12.77v-63.02h-21.4v-7.09h30.03v69.28c0,3.63,.87,6.23,2.6,7.8,1.73,1.58,4.3,2.36,7.69,2.36,2.05,0,4.14-.22,6.27-.65s4.49-1.16,7.09-2.19v7.8c-2.29,.79-4.55,1.44-6.8,1.95s-4.47,.77-6.68,.77Z"/><path d="M661.21,691.96c-6.07,0-10.72-1.42-13.95-4.25-3.23-2.84-4.85-7.09-4.85-12.77v-34.76h-21.4v-7.09h30.03v41.03c0,3.63,.87,6.23,2.6,7.8,1.73,1.58,4.3,2.36,7.69,2.36,2.05,0,4.14-.22,6.27-.65s4.49-1.16,7.09-2.19v7.8c-2.29,.79-4.55,1.44-6.8,1.95s-4.47,.77-6.68,.77Z"/><path d="M691,690.77v-57.7h8.04v4.97c1.42-2.05,2.97-3.53,4.67-4.43s3.64-1.36,5.85-1.36c2.52,0,4.77,.61,6.74,1.83,1.97,1.22,3.51,2.94,4.61,5.14,1.58-2.44,3.41-4.22,5.5-5.32,2.09-1.1,4.47-1.65,7.15-1.65,3.86,0,6.99,1.42,9.4,4.26,2.4,2.84,3.61,6.54,3.61,11.11v43.15h-7.92v-41.03c0-3.39-.71-6.07-2.13-8.04-1.42-1.97-3.47-2.96-6.15-2.96-1.5,0-2.88,.34-4.14,1.01-1.26,.67-2.48,1.95-3.67,3.84,.16,.63,.25,1.28,.3,1.95,.04,.67,.06,1.36,.06,2.07v43.15h-7.92v-41.03c0-3.39-.73-6.07-2.19-8.04-1.46-1.97-3.57-2.96-6.33-2.96-1.34,0-2.64,.3-3.9,.89-1.26,.59-2.44,1.75-3.55,3.49v47.65h-8.04Z"/><path d="M287.73,833.83c-4.18,0-7.9-.75-11.17-2.25-3.27-1.5-5.82-3.57-7.63-6.21-1.81-2.64-2.72-5.69-2.72-9.16s.93-6.5,2.78-9.1c1.85-2.6,4.45-4.61,7.8-6.03,3.35-1.42,7.23-2.13,11.65-2.13,3.47,0,6.7,.33,9.69,1s5.83,1.79,8.51,3.37v-6.62c0-5.12-1.3-8.98-3.9-11.59-2.6-2.6-6.47-3.9-11.59-3.9-2.92,0-5.83,.41-8.75,1.24-2.92,.83-6.19,2.27-9.81,4.31l-3.55-6.5c4.18-2.28,8.16-3.9,11.94-4.85,3.78-.94,7.53-1.42,11.23-1.42,7.33,0,12.99,1.85,16.97,5.56,3.98,3.71,5.97,9.03,5.97,15.96v37.12h-8.51v-6.62c-2.68,2.68-5.58,4.65-8.69,5.91-3.11,1.26-6.52,1.89-10.23,1.89Zm-13.24-17.85c0,3.39,1.38,6.11,4.14,8.16,2.76,2.05,6.38,3.08,10.88,3.08,3.39,0,6.48-.53,9.28-1.6s5.42-2.78,7.86-5.14v-11.11c-2.44-1.5-5.05-2.56-7.8-3.19-2.76-.63-5.79-.94-9.1-.94-4.57,0-8.26,.99-11.06,2.96-2.8,1.97-4.2,4.57-4.2,7.8Z"/><path d="M364.22,858.54c-3.86,0-7.74-.53-11.65-1.6-3.9-1.06-7.51-2.54-10.82-4.43l3.66-6.62c3.55,1.81,6.78,3.15,9.69,4.02,2.92,.87,5.83,1.3,8.75,1.3,10.72,0,16.08-4.93,16.08-14.78v-11.59c-2.21,2.76-4.89,4.87-8.04,6.33-3.15,1.46-6.62,2.19-10.4,2.19-4.96,0-9.46-1.32-13.48-3.96-4.02-2.64-7.21-6.19-9.58-10.64-2.36-4.45-3.55-9.44-3.55-14.96s1.2-10.5,3.61-14.96c2.4-4.45,5.66-8,9.75-10.64,4.1-2.64,8.67-3.96,13.71-3.96,3.62,0,6.98,.69,10.05,2.07,3.08,1.38,5.75,3.41,8.04,6.09v-7.45h8.51v61.36c0,7.17-2.09,12.67-6.27,16.49-4.18,3.82-10.21,5.73-18.09,5.73Zm-.59-32.63c3.39,0,6.5-.69,9.34-2.07,2.84-1.38,5.16-3.29,6.98-5.73v-28.49c-1.89-2.44-4.28-4.35-7.15-5.73-2.88-1.38-5.93-2.07-9.16-2.07-3.86,0-7.31,.94-10.35,2.84-3.03,1.89-5.44,4.49-7.21,7.8-1.77,3.31-2.66,7.09-2.66,11.35s.89,7.94,2.66,11.29c1.77,3.35,4.18,5.99,7.21,7.92,3.03,1.93,6.48,2.9,10.35,2.9Zm.12-61.72c-4.81,0-8.87-1.32-12.18-3.96-3.31-2.64-5.52-6.28-6.62-10.94l6.03-1.42c1.81,7.25,6.07,10.88,12.77,10.88,3.23,0,5.93-.95,8.1-2.84,2.17-1.89,3.68-4.57,4.55-8.04l5.91,1.42c-1.03,4.65-3.19,8.3-6.5,10.94-3.31,2.64-7.33,3.96-12.06,3.96Z"/><path d="M448.4,833.83c-6.07,0-10.72-1.42-13.95-4.25-3.23-2.84-4.85-7.09-4.85-12.77v-34.76h-21.4v-7.09h30.03v41.03c0,3.63,.87,6.23,2.6,7.8,1.73,1.58,4.3,2.36,7.69,2.36,2.05,0,4.14-.22,6.27-.65s4.49-1.16,7.09-2.19v7.8c-2.29,.79-4.55,1.44-6.8,1.95s-4.47,.77-6.68,.77Z"/></g></g></svg>
