<svg width="2001" height="398" viewBox="0 0 2001 398" fill="none" xmlns="http://www.w3.org/2000/svg">
<g clip-path="url(#clip0_1_21)">
<path d="M301.049 117.329C301.029 117.329 301.009 117.329 300.99 117.329H280.817V110.426C280.925 107.694 279.158 105.238 276.532 104.475C262.527 100.805 248.105 98.9648 233.627 99.0005C209.824 99.0005 177.392 104.356 153.411 128.754C129.608 104.118 96.938 99.0005 73.1944 99.0005C58.7162 98.9648 44.2945 100.805 30.2894 104.475C27.6636 105.238 25.8962 107.694 26.0048 110.426V117.269H5.95077C2.66446 117.269 0 119.934 0 123.22V313.288C0 316.574 2.66446 319.238 5.95077 319.238C6.97281 319.235 7.977 318.969 8.86664 318.465C9.46172 318.167 68.9694 285.617 152.042 306.563H152.935H153.47C153.945 306.62 154.424 306.62 154.898 306.563C238.209 285.438 297.717 317.929 298.074 318.465C299.915 319.528 302.184 319.528 304.025 318.465C305.854 317.408 306.987 315.46 307 313.347V123.28C307 119.993 304.336 117.329 301.049 117.329ZM11.9015 303.826V129.23H26.1239V278.476C26.0867 281.762 28.7206 284.456 32.0069 284.493C32.3283 284.497 32.6496 284.475 32.9672 284.426C45.2779 282.547 57.7068 281.552 70.1595 281.451C87.4093 281.152 104.587 283.746 120.979 289.127C83.9616 284.651 46.4137 289.711 11.9015 303.826ZM70.1595 269.609C59.3358 269.634 48.5248 270.329 37.7874 271.692V115.127C49.3735 112.546 61.2051 111.229 73.0754 111.2C95.3313 111.2 126.037 116.317 147.341 140.358L147.519 288.592C135.142 280.499 110.982 269.609 70.1595 269.609ZM159.421 140.358C180.725 116.555 211.431 111.2 233.687 111.2C245.556 111.235 257.388 112.551 268.975 115.127V271.692C258.297 270.316 247.546 269.601 236.781 269.549C196.197 269.549 171.977 280.439 159.421 288.532V140.358ZM295.039 303.826C260.453 289.672 222.819 284.612 185.723 289.127C202.193 283.727 219.452 281.132 236.781 281.451C249.312 281.521 261.821 282.495 274.211 284.367C277.46 284.86 280.495 282.626 280.988 279.376C281.036 279.059 281.058 278.737 281.055 278.416V129.23H295.277L295.039 303.826Z" fill="#152A35"/>
<path d="M455.109 309.2C436.335 309.2 421.722 304.72 411.269 295.76C401.029 286.587 395.909 274.533 395.909 259.6C395.909 243.6 401.669 231.12 413.189 222.16C424.922 212.987 443.162 208.4 467.909 208.4H490.309V203.6C490.309 192.293 487.855 184.187 482.949 179.28C478.042 174.16 470.362 171.6 459.909 171.6C450.949 171.6 442.735 173.733 435.269 178C432.282 179.493 429.295 181.627 426.309 184.4H423.109L408.709 158.8C413.829 155.387 418.842 152.72 423.749 150.8C437.615 145.467 450.735 142.8 463.109 142.8C478.042 142.8 490.949 145.467 501.829 150.8C512.709 155.92 520.922 163.067 526.469 172.24C532.229 181.413 535.109 191.867 535.109 203.6V306H503.109L499.909 286.8H498.309C494.682 291.493 491.055 295.227 487.429 298C478.469 305.467 467.695 309.2 455.109 309.2ZM463.109 278.8C469.722 278.8 476.229 275.6 482.629 269.2C485.615 266.213 488.175 263.013 490.309 259.6V237.2H467.909C449.775 237.2 440.709 244.667 440.709 259.6C440.709 265.36 442.629 270.053 446.469 273.68C450.522 277.093 456.069 278.8 463.109 278.8ZM673.361 301.2C660.561 306.32 648.294 308.987 636.561 309.2V314C645.308 314 652.561 316.667 658.321 322C664.081 327.333 666.961 333.733 666.961 341.2C666.961 348.88 663.761 355.28 657.361 360.4C651.174 365.733 642.641 368.4 631.761 368.4C625.148 368.4 618.641 367.333 612.241 365.2C608.828 364.133 606.268 363.067 604.561 362L611.281 346H614.161C614.374 346.213 615.121 346.64 616.401 347.28C617.681 348.133 619.388 348.88 621.521 349.52C623.868 350.373 626.214 350.8 628.561 350.8C631.974 350.8 634.641 349.947 636.561 348.24C638.694 346.747 639.761 344.4 639.761 341.2C639.761 338.213 638.694 335.867 636.561 334.16C634.641 332.453 631.974 331.6 628.561 331.6H612.561V307.28C574.801 300.24 555.921 273.147 555.921 226C555.921 198.267 562.321 177.467 575.121 163.6C587.921 149.733 606.588 142.8 631.121 142.8C643.281 142.8 656.294 145.467 670.161 150.8C674.428 152.507 679.548 155.173 685.521 158.8L671.121 184.4H667.921C664.934 181.627 661.948 179.493 658.961 178C651.494 173.733 643.281 171.6 634.321 171.6C623.441 171.6 615.121 175.76 609.361 184.08C603.601 192.187 600.721 206.16 600.721 226C600.721 246.053 603.708 260.133 609.681 268.24C615.654 276.347 624.934 280.4 637.521 280.4C646.481 280.4 654.694 278.267 662.161 274C665.148 272.507 668.134 270.373 671.121 267.6H674.321L688.721 293.2C682.748 296.827 677.628 299.493 673.361 301.2ZM704.596 306V146H749.396V306H704.596ZM781.484 306V94.8L794.284 82H826.284V214.8L867.884 146H917.484L866.284 222.8L920.684 306H871.084L826.284 230.8V306H781.484ZM1014.95 306V94.8L1027.75 82H1059.75V214.8L1101.35 146H1150.95L1099.75 222.8L1154.15 306H1104.55L1059.75 230.8V306H1014.95ZM1214.87 309.2C1196.1 309.2 1181.48 304.72 1171.03 295.76C1160.79 286.587 1155.67 274.533 1155.67 259.6C1155.67 243.6 1161.43 231.12 1172.95 222.16C1184.68 212.987 1202.92 208.4 1227.67 208.4H1250.07V203.6C1250.07 192.293 1247.62 184.187 1242.71 179.28C1237.8 174.16 1230.12 171.6 1219.67 171.6C1210.71 171.6 1202.5 173.733 1195.03 178C1192.04 179.493 1189.06 181.627 1186.07 184.4H1182.87L1168.47 158.8C1173.59 155.387 1178.6 152.72 1183.51 150.8C1197.38 145.467 1210.5 142.8 1222.87 142.8C1237.8 142.8 1250.71 145.467 1261.59 150.8C1272.47 155.92 1280.68 163.067 1286.23 172.24C1291.99 181.413 1294.87 191.867 1294.87 203.6V306H1262.87L1259.67 286.8H1258.07C1254.44 291.493 1250.82 295.227 1247.19 298C1238.23 305.467 1227.46 309.2 1214.87 309.2ZM1222.87 278.8C1229.48 278.8 1235.99 275.6 1242.39 269.2C1245.38 266.213 1247.94 263.013 1250.07 259.6V237.2H1227.67C1209.54 237.2 1200.47 244.667 1200.47 259.6C1200.47 265.36 1202.39 270.053 1206.23 273.68C1210.28 277.093 1215.83 278.8 1222.87 278.8ZM1349.28 373.2C1340.75 373.2 1332.43 371.6 1324.32 368.4C1320.27 367.12 1316.86 365.52 1314.08 363.6L1325.28 336.4H1328.48C1330.62 338.533 1332.32 339.92 1333.6 340.56C1337.66 343.12 1341.82 344.4 1346.08 344.4C1351.2 344.4 1355.9 342.48 1360.16 338.64C1364.43 334.8 1367.52 329.253 1369.44 322L1373.92 306H1361.76L1308.96 146H1350.88L1382.88 250C1383.74 253.413 1384.38 257.147 1384.8 261.2L1385.44 267.6H1386.72L1387.36 261.2C1387.79 257.147 1388.43 253.413 1389.28 250L1416.48 146H1461.28L1408.48 322C1397.82 356.133 1378.08 373.2 1349.28 373.2ZM1474.05 146H1506.05L1509.25 165.2H1510.85C1512.98 162 1516.61 158.267 1521.73 154C1531.75 146.533 1542.53 142.8 1554.05 142.8C1573.46 142.8 1588.39 148.133 1598.85 158.8C1609.51 169.253 1614.85 184.187 1614.85 203.6V306H1570.05V203.6C1570.05 193.573 1567.91 186 1563.65 180.88C1559.38 175.76 1553.51 173.2 1546.05 173.2C1539.01 173.2 1532.29 176.4 1525.89 182.8C1523.75 185.36 1521.41 188.56 1518.85 192.4V306H1474.05V146ZM1694.91 309.2C1676.14 309.2 1661.52 304.72 1651.07 295.76C1640.83 286.587 1635.71 274.533 1635.71 259.6C1635.71 243.6 1641.47 231.12 1652.99 222.16C1664.72 212.987 1682.96 208.4 1707.71 208.4H1730.11V203.6C1730.11 192.293 1727.66 184.187 1722.75 179.28C1717.84 174.16 1710.16 171.6 1699.71 171.6C1690.75 171.6 1682.54 173.733 1675.07 178C1672.08 179.493 1669.1 181.627 1666.11 184.4H1662.91L1648.51 158.8C1653.63 155.387 1658.64 152.72 1663.55 150.8C1677.42 145.467 1690.54 142.8 1702.91 142.8C1717.84 142.8 1730.75 145.467 1741.63 150.8C1752.51 155.92 1760.72 163.067 1766.27 172.24C1772.03 181.413 1774.91 191.867 1774.91 203.6V306H1742.91L1739.71 286.8H1738.11C1734.48 291.493 1730.86 295.227 1727.23 298C1718.27 305.467 1707.5 309.2 1694.91 309.2ZM1702.91 278.8C1709.52 278.8 1716.03 275.6 1722.43 269.2C1725.42 266.213 1727.98 263.013 1730.11 259.6V237.2H1707.71C1689.58 237.2 1680.51 244.667 1680.51 259.6C1680.51 265.36 1682.43 270.053 1686.27 273.68C1690.32 277.093 1695.87 278.8 1702.91 278.8ZM1805.32 306V94.8L1818.12 82H1850.12V214.8L1891.72 146H1941.32L1890.12 222.8L1944.52 306H1894.92L1850.12 230.8V306H1805.32Z" fill="#152A35"/>
</g>
<defs>
<clipPath id="clip0_1_21">
<rect width="2000.05" height="398" fill="white"/>
</clipPath>
</defs>
</svg>
