<svg width="2939" height="675" viewBox="0 0 2939 675" fill="none" xmlns="http://www.w3.org/2000/svg">
<g clip-path="url(#clip0_45_27)">
<rect width="2938.72" height="675" fill="white"/>
<g clip-path="url(#clip1_45_27)">
<path d="M2940.16 -323.054H0.156738V1636.06H2940.16V-323.054Z" fill="url(#paint0_linear_45_27)"/>
<path style="mix-blend-mode:multiply" opacity="0.4" d="M200.586 1821.9C942.43 1821.9 1543.81 1300.13 1543.81 656.501C1543.81 12.8701 942.43 -508.896 200.586 -508.896C-541.258 -508.896 -1142.64 12.8701 -1142.64 656.501C-1142.64 1300.13 -541.258 1821.9 200.586 1821.9Z" fill="url(#paint1_radial_45_27)"/>
<path style="mix-blend-mode:multiply" opacity="0.4" d="M2739.77 1821.9C3481.61 1821.9 4082.99 1300.13 4082.99 656.501C4082.99 12.8701 3481.61 -508.896 2739.77 -508.896C1997.92 -508.896 1396.54 12.8701 1396.54 656.501C1396.54 1300.13 1997.92 1821.9 2739.77 1821.9Z" fill="url(#paint2_radial_45_27)"/>
<path opacity="0.1" d="M2940.16 -323.054H0.156738V1636.06H2940.16V-323.054Z" fill="url(#paint3_linear_45_27)"/>
<g style="mix-blend-mode:color-burn">
<path d="M1748.91 762.411V619.787L1625.35 548.476L1501.79 619.787V762.411L1625.35 833.683L1748.91 762.411Z" fill="#A1A1A1"/>
</g>
<path style="mix-blend-mode:multiply" opacity="0.4" d="M1470.16 2004.02C3070.15 2004.02 4367.19 1064.83 4367.19 -93.7208C4367.19 -1252.27 3070.15 -2191.46 1470.16 -2191.46C-129.833 -2191.46 -1426.88 -1252.27 -1426.88 -93.7208C-1426.88 1064.83 -129.833 2004.02 1470.16 2004.02Z" fill="url(#paint4_radial_45_27)"/>
<g style="mix-blend-mode:color-burn">
<path d="M2690.65 222.793V159.004L2635.42 127.149L2580.18 159.004V222.793L2635.42 254.648L2690.65 222.793Z" fill="#999999"/>
</g>
<g style="mix-blend-mode:color-burn">
<path d="M2730.16 560.309V412.553L2602.17 338.694L2474.19 412.553V560.309L2602.17 634.167L2730.16 560.309Z" fill="#999999"/>
</g>
<g style="mix-blend-mode:color-burn">
<path d="M3040.74 228.318V135.103L2959.99 88.5156L2879.24 135.103V228.318L2959.99 274.944L3040.74 228.318Z" fill="#999999"/>
</g>
<g style="mix-blend-mode:color-burn">
<path d="M2792.06 817.893V582.251L2587.91 464.469L2383.75 582.251V817.893L2587.91 935.714L2792.06 817.893Z" fill="#999999"/>
</g>
<g style="mix-blend-mode:color-burn">
<path d="M3020.63 772.833V598.864L2869.87 511.88L2719.15 598.864V772.833L2869.87 859.818L3020.63 772.833Z" fill="#999999"/>
</g>
<g style="mix-blend-mode:color-burn">
<path d="M405.602 870.71V588.794L161.347 447.856L-82.908 588.794V870.71L161.347 1011.65L405.602 870.71Z" fill="#999999"/>
</g>
<g style="mix-blend-mode:color-burn">
<path d="M32.3009 725.658V646.627L-36.1423 607.132L-104.585 646.627V725.658L-36.1423 765.154L32.3009 725.658Z" fill="#999999"/>
</g>
<g style="mix-blend-mode:color-burn">
<path d="M77.6943 238.153V167.938L16.8559 132.792L-44.0217 167.938V238.153L16.8559 273.26L77.6943 238.153Z" fill="#999999"/>
</g>
<g style="mix-blend-mode:color-burn">
<path d="M206.074 105.521V1.57041L116.032 -50.3853L25.9504 1.57041V105.521L116.032 157.516L206.074 105.521Z" fill="#999999"/>
</g>
<g style="mix-blend-mode:color-burn">
<path d="M667.498 68.2194V-39.9237L573.81 -93.9951L480.122 -39.9237V68.2194L573.81 122.291L667.498 68.2194Z" fill="#999999"/>
</g>
<g style="mix-blend-mode:color-burn">
<path d="M219.285 605.564V489.036L118.345 430.772L17.4048 489.036V605.564L118.345 663.828L219.285 605.564Z" fill="#999999"/>
</g>
<g style="mix-blend-mode:color-burn">
<path d="M709.128 838.307V721.387L607.796 662.927L506.503 721.387V838.307L607.796 896.766L709.128 838.307Z" fill="#999999"/>
</g>
<g style="mix-blend-mode:color-burn">
<path d="M2878.02 389.043V290.892L2792.96 241.797L2707.94 290.892V389.043L2792.96 438.139L2878.02 389.043Z" fill="#999999"/>
</g>
<g style="mix-blend-mode:color-burn">
<path d="M469.655 409.536V315.694L388.355 268.793L307.054 315.694V409.536L388.355 456.437L469.655 409.536Z" fill="#999999"/>
</g>
<g style="mix-blend-mode:color-burn">
<path d="M582.316 358.364V271.183L506.778 227.573L431.239 271.183V358.364L506.778 401.934L582.316 358.364Z" fill="#999999"/>
</g>
<g style="mix-blend-mode:color-burn">
<path d="M2257.8 342.73V271.183L2195.83 235.449L2133.85 271.183V342.73L2195.83 378.503L2257.8 342.73Z" fill="#999999"/>
</g>
<g style="mix-blend-mode:color-burn">
<path d="M1704.14 573.435V504.905L1644.79 470.621L1585.4 504.905V573.435L1644.79 607.68L1704.14 573.435Z" fill="#999999"/>
</g>
<g style="mix-blend-mode:color-burn">
<path d="M1030.53 549.495V452.48L946.484 403.972L862.439 452.48V549.495L946.484 598.002L1030.53 549.495Z" fill="#999999"/>
</g>
<g style="mix-blend-mode:color-burn">
<path d="M613.872 670.607V450.246L422.929 340.066L232.025 450.246V670.607L422.929 780.787L613.872 670.607Z" fill="#999999"/>
</g>
<g style="mix-blend-mode:color-burn">
<path d="M1641.3 71.7848V-241.634L1369.77 -398.363L1098.19 -241.634V71.7848L1369.77 228.474L1641.3 71.7848Z" fill="#999999"/>
</g>
<g style="mix-blend-mode:color-burn">
<path d="M1703.95 278.158V85.1851L1536.8 -11.2815L1369.65 85.1851V278.158L1536.8 374.624L1703.95 278.158Z" fill="#999999"/>
</g>
<g style="mix-blend-mode:color-burn">
<path d="M1077.65 256.255V198.97L1028.02 170.328L978.393 198.97V256.255L1028.02 284.897L1077.65 256.255Z" fill="#999999"/>
</g>
<g style="mix-blend-mode:color-burn">
<path d="M1916.17 203.594V75.899L1805.51 12.032L1694.89 75.899V203.594L1805.51 267.461L1916.17 203.594Z" fill="#999999"/>
</g>
<g style="mix-blend-mode:color-burn">
<path d="M1107.75 116.649V16.4596L1020.96 -33.6544L934.175 16.4596V116.649L1020.96 166.763L1107.75 116.649Z" fill="#999999"/>
</g>
<g opacity="0.8">
<g style="mix-blend-mode:color-burn">
<path d="M2940.43 428.5V326.626L2852.19 275.728L2763.95 326.626V428.5L2852.19 479.437L2940.43 428.5Z" stroke="#7A7A7A" stroke-miterlimit="10"/>
</g>
</g>
<g style="mix-blend-mode:color-burn">
<path d="M2472.62 99.369V41.3794L2422.36 12.3455L2372.11 41.3794V99.369L2422.36 128.364L2472.62 99.369Z" stroke="#7A7A7A" stroke-miterlimit="10"/>
</g>
<g opacity="0.79">
<g style="mix-blend-mode:color-burn">
<path d="M1590.15 368.355V266.521L1501.91 215.584L1413.63 266.521V368.355L1501.91 419.292L1590.15 368.355Z" stroke="#7A7A7A" stroke-miterlimit="10"/>
</g>
</g>
<g opacity="0.41">
<g style="mix-blend-mode:color-burn">
<path d="M311.091 520.343V418.469L222.852 367.532L134.573 418.469V520.343L222.852 571.241L311.091 520.343Z" stroke="#7A7A7A" stroke-miterlimit="10"/>
</g>
</g>
<g opacity="0.61">
<g style="mix-blend-mode:color-burn">
<path d="M473.575 869.457V651.682L284.905 542.834L96.2358 651.682V869.457L284.905 978.344L473.575 869.457Z" stroke="#7A7A7A" stroke-miterlimit="10"/>
</g>
</g>
<g opacity="0.83">
<g style="mix-blend-mode:color-burn">
<path d="M911.831 880.153V649.135L711.637 533.587L511.442 649.135V880.153L711.637 995.702L911.831 880.153Z" stroke="#7A7A7A" stroke-miterlimit="10"/>
</g>
</g>
<g style="mix-blend-mode:color-burn">
<path d="M870.279 552.12V416.432L752.679 348.568L635.118 416.432V552.12L752.679 619.983L870.279 552.12Z" stroke="#7A7A7A" stroke-miterlimit="10"/>
</g>
<g style="mix-blend-mode:color-burn">
<path d="M313.325 102.269V50.5482L268.52 24.6877L223.753 50.5482V102.269L268.52 128.09L313.325 102.269Z" stroke="#7A7A7A" stroke-miterlimit="10"/>
</g>
<g opacity="0.6">
<g style="mix-blend-mode:color-burn">
<path d="M53.6648 323.491V221.657L-34.5744 170.72L-122.853 221.657V323.491L-34.5744 374.428L53.6648 323.491Z" stroke="#7A7A7A" stroke-miterlimit="10"/>
</g>
</g>
<g style="mix-blend-mode:color-burn">
<path d="M2181.87 626.213V524.339L2093.63 473.403L2005.39 524.339V626.213L2093.63 677.111L2181.87 626.213Z" stroke="#7A7A7A" stroke-miterlimit="10"/>
</g>
<g style="mix-blend-mode:color-burn">
<path d="M2433.46 710.847V608.973L2345.22 558.075L2256.98 608.973V710.847L2345.22 761.784L2433.46 710.847Z" stroke="#7A7A7A" stroke-miterlimit="10"/>
</g>
<g style="mix-blend-mode:color-burn">
<path d="M2941.41 123.153V35.5413L2865.48 -8.2644L2789.55 35.5413V123.153L2865.48 166.998L2941.41 123.153Z" stroke="#7A7A7A" stroke-miterlimit="10"/>
</g>
<g style="mix-blend-mode:color-burn">
<path d="M215.443 813.308V479.75L-73.5783 312.951L-362.6 479.75V813.308L-73.5783 980.107L215.443 813.308Z" stroke="#7A7A7A" stroke-miterlimit="10"/>
</g>
<g style="mix-blend-mode:color-burn">
<path d="M11.5641 41.2228V-57.438L-73.9311 -106.769L-159.387 -57.438V41.2228L-73.9311 90.5141L11.5641 41.2228Z" stroke="#7A7A7A" stroke-miterlimit="10"/>
</g>
<g opacity="0.42">
<g style="mix-blend-mode:color-burn">
<path d="M3072.38 682.871V513.251L2925.42 428.461L2778.46 513.251V682.871L2925.42 767.661L3072.38 682.871Z" stroke="#7A7A7A" stroke-miterlimit="10"/>
</g>
</g>
<g opacity="0.95">
<g style="mix-blend-mode:color-burn">
<path d="M2707.11 685.065V482.297L2531.42 380.933L2355.72 482.297V685.065L2531.42 786.469L2707.11 685.065Z" stroke="#7A7A7A" stroke-miterlimit="10"/>
</g>
</g>
<g opacity="0.27">
<g style="mix-blend-mode:color-burn">
<path d="M499.055 -31.9304V-133.765L410.816 -184.663L322.616 -133.765V-31.9304L410.816 18.9673L499.055 -31.9304Z" stroke="#7A7A7A" stroke-miterlimit="10"/>
</g>
</g>
<g opacity="0.85">
<g style="mix-blend-mode:color-burn">
<path d="M1497.87 241.522V136.906L1407.24 84.5974L1316.61 136.906V241.522L1407.24 293.83L1497.87 241.522Z" stroke="#7A7A7A" stroke-miterlimit="10"/>
</g>
</g>
<g opacity="0.62">
<g style="mix-blend-mode:color-burn">
<path d="M874.317 116.492V14.6181L786.078 -36.2798L697.799 14.6181V116.492L786.078 167.429L874.317 116.492Z" stroke="#7A7A7A" stroke-miterlimit="10"/>
</g>
</g>
<g style="mix-blend-mode:color-burn">
<path d="M2097.67 283.682V122.996L1958.43 42.6333L1819.19 122.996V283.682L1958.43 364.045L2097.67 283.682Z" stroke="#7A7A7A" stroke-miterlimit="10"/>
</g>
<g style="mix-blend-mode:color-burn">
<path d="M2011.78 117.667V-6.77553L1903.94 -69.0361L1796.1 -6.77553V117.667L1903.94 179.889L2011.78 117.667Z" stroke="#7A7A7A" stroke-miterlimit="10"/>
</g>
<g opacity="0.71">
<g style="mix-blend-mode:color-burn">
<path d="M1657.89 151.56V-154.532L1392.7 -307.538L1127.47 -154.532V151.56L1392.7 304.606L1657.89 151.56Z" stroke="#7A7A7A" stroke-miterlimit="10"/>
</g>
</g>
<g style="mix-blend-mode:screen" opacity="0.8">
<g style="mix-blend-mode:color-burn">
<path d="M462.403 830.235V563.6L231.358 430.263L0.352783 563.6V830.235L231.358 963.533L462.403 830.235Z" stroke="white" stroke-width="0.75" stroke-miterlimit="10"/>
</g>
<g style="mix-blend-mode:color-burn">
<path d="M531.278 397.585V329.682L472.438 295.711L413.56 329.682V397.585L472.438 431.556L531.278 397.585Z" stroke="white" stroke-width="0.75" stroke-miterlimit="10"/>
</g>
<g style="mix-blend-mode:color-burn">
<path d="M2114.64 246.773V199.088L2073.33 175.226L2032.01 199.088V246.773L2073.33 270.595L2114.64 246.773Z" stroke="white" stroke-width="0.75" stroke-miterlimit="10"/>
</g>
<g style="mix-blend-mode:color-burn">
<path d="M2865.21 770.953V553.06L2676.42 444.094L2487.63 553.06V770.953L2676.42 879.879L2865.21 770.953Z" stroke="white" stroke-width="0.75" stroke-miterlimit="10"/>
</g>
<g style="mix-blend-mode:color-burn">
<path d="M775.219 701.326V599.452L686.941 548.554L598.701 599.452V701.326L686.941 752.262L775.219 701.326Z" stroke="white" stroke-width="0.75" stroke-miterlimit="10"/>
</g>
<g style="mix-blend-mode:color-burn">
<path d="M89.9639 416.588V377.798L56.3695 358.403L22.7358 377.798V416.588L56.3695 435.984L89.9639 416.588Z" stroke="white" stroke-width="0.75" stroke-miterlimit="10"/>
</g>
<g style="mix-blend-mode:color-burn">
<path d="M2562.86 585.307V483.433L2474.58 432.496L2386.34 483.433V585.307L2474.58 636.205L2562.86 585.307Z" stroke="white" stroke-width="0.75" stroke-miterlimit="10"/>
</g>
<g style="mix-blend-mode:color-burn">
<path d="M2202.02 579.195V477.321L2113.78 426.384L2025.54 477.321V579.195L2113.78 630.092L2202.02 579.195Z" stroke="white" stroke-width="0.75" stroke-miterlimit="10"/>
</g>
<g style="mix-blend-mode:color-burn">
<path d="M3086.41 701.874V599.765L2997.94 548.711L2909.5 599.765V701.874L2997.94 752.889L3086.41 701.874Z" stroke="white" stroke-width="0.75" stroke-miterlimit="10"/>
</g>
<g style="mix-blend-mode:color-burn">
<path d="M1635.86 325.176V223.342L1547.62 172.405L1459.38 223.342V325.176L1547.62 376.113L1635.86 325.176Z" stroke="white" stroke-width="0.75" stroke-miterlimit="10"/>
</g>
<g style="mix-blend-mode:color-burn">
<path d="M2518.95 81.698V-7.01056L2442.08 -51.3649L2365.21 -7.01056V81.698L2442.08 126.052L2518.95 81.698Z" stroke="white" stroke-width="0.75" stroke-miterlimit="10"/>
</g>
<g style="mix-blend-mode:color-burn">
<path d="M1710.65 8.81897V-237.755L1497.05 -361.061L1283.41 -237.755V8.81897L1497.05 132.086L1710.65 8.81897Z" stroke="white" stroke-width="0.75" stroke-miterlimit="10"/>
</g>
<g style="mix-blend-mode:color-burn">
<path d="M701.014 100.27V-1.60343L612.774 -52.5011L524.496 -1.60343V100.27L612.774 151.207L701.014 100.27Z" stroke="white" stroke-width="0.75" stroke-miterlimit="10"/>
</g>
</g>
<g style="mix-blend-mode:screen" opacity="0.8">
<path d="M6.07617 254.1C3.29297 251.396 3.37137 246.185 6.19377 243.481C8.82017 240.974 13.3282 240.895 16.1114 243.285C19.1298 245.911 19.4434 250.887 16.7386 253.865C14.1906 256.647 8.82017 256.803 6.07617 254.139V254.1Z" fill="white"/>
<path d="M6.23286 300.021C3.72406 297.475 3.56731 292.851 5.91931 290.187C8.50651 287.248 13.5632 287.17 16.3856 289.952C18.9336 292.498 19.1297 297.122 16.7777 299.786C14.3473 302.568 8.85926 302.686 6.23286 300.021V300.021Z" fill="white"/>
<path d="M6.62489 209.079C3.76329 206.532 3.52811 202.34 6.03691 199.44C8.78091 196.306 13.7201 195.992 16.4249 198.735C18.9337 201.282 18.8553 205.749 16.2289 208.492C13.5633 211.313 9.40805 211.548 6.58565 209.04L6.62489 209.079Z" fill="white"/>
<path d="M6.93831 335.246C9.36871 332.895 13.3672 333.013 15.8368 335.442C18.228 337.832 18.3456 341.986 16.072 344.336C13.6024 346.922 8.66321 346.883 6.42881 344.219C4.35121 341.711 4.58631 337.519 6.93831 335.246Z" fill="white"/>
<path d="M29.165 221.853C31.4386 219.423 35.4762 219.306 38.0242 221.578C40.6114 223.89 40.8857 227.652 38.5729 230.355C36.1425 233.216 31.713 233.451 29.0866 230.786C26.8522 228.592 26.9306 224.282 29.165 221.853V221.853Z" fill="white"/>
<path d="M29.7136 267.579C31.948 265.149 36.2209 264.757 38.6121 266.756C41.3953 269.067 41.5129 273.691 38.8865 276.277C36.3385 278.745 32.6145 278.785 30.1057 276.395C27.6361 274.005 27.4792 270.008 29.7136 267.579V267.579Z" fill="white"/>
<path d="M28.8903 685.182C26.7735 682.871 26.9696 678.6 29.3216 676.249C31.9088 673.663 36.4559 673.976 38.8079 676.915C40.9247 679.54 40.4544 683.38 37.7888 685.692C35.28 687.847 31.1247 687.612 28.8903 685.182V685.182Z" fill="white"/>
<path d="M29.3215 321.689C27.0479 319.299 27.2438 314.832 29.7134 312.716C31.9086 310.836 35.9855 310.875 38.1023 312.795C40.4543 314.911 40.5719 319.573 38.3375 321.846C36.0247 324.158 31.5951 324.118 29.3215 321.728V321.689Z" fill="white"/>
<path d="M7.09536 154.381C9.52576 151.991 13.5241 152.03 15.8761 154.459C18.1889 156.849 18.0321 160.807 15.5233 163.197C12.9361 165.665 9.21213 165.665 6.82093 163.119C4.42973 160.611 4.54736 156.849 7.09536 154.381Z" fill="white"/>
<path d="M6.38946 662.183C3.91986 659.793 4.03742 655.914 6.58542 653.484C8.93742 651.251 12.2694 651.055 14.6606 653.053C17.287 655.247 17.4831 659.126 15.0919 661.752C12.7399 664.338 8.81986 664.573 6.38946 662.183Z" fill="white"/>
<path d="M29.4784 185.452C27.2832 183.102 27.5185 178.596 29.9489 176.636C32.2225 174.795 35.9464 175.108 38.0632 177.302C40.1408 179.458 40.2977 183.376 38.3377 185.452C36.1817 187.764 31.6344 187.764 29.4784 185.452Z" fill="white"/>
<path d="M74.9111 683.537C72.9903 681.068 73.3824 677.268 75.6952 675.622C78.1256 673.859 81.9672 674.172 83.8096 676.288C86.0048 678.796 85.4952 683.067 82.7904 684.908C80.164 686.671 76.9103 686.123 74.9111 683.576V683.537Z" fill="white"/>
<path d="M53.116 253.277C50.8424 251.044 50.8032 247.595 53.0376 245.362C55.1544 243.207 58.9176 243.168 61.0344 245.245C63.112 247.282 63.112 251.122 61.0344 253.277C58.8392 255.51 55.3504 255.51 53.116 253.277V253.277Z" fill="white"/>
<path d="M52.6065 207.826C50.6857 206.141 50.372 202.575 51.94 200.459C53.7432 198.069 57.5456 197.756 59.8584 199.832C61.8576 201.635 62.2104 205.043 60.6032 207.12C58.8784 209.393 54.8016 209.706 52.5672 207.786L52.6065 207.826Z" fill="white"/>
<path d="M52.9985 653.954C54.7625 652.073 58.2905 651.838 60.3681 653.484C62.6025 655.208 62.8377 659.361 60.8385 661.556C59.0745 663.515 55.6642 663.671 53.5474 661.947C51.1562 659.988 50.8817 656.227 52.9985 653.993V653.954Z" fill="white"/>
<path d="M7.01687 389.122C5.05688 387.123 5.05688 383.636 7.01687 381.795C8.97687 379.914 12.4657 379.953 14.3865 381.912C16.3073 383.832 16.3073 387.359 14.3865 389.278C12.5049 391.159 8.97679 391.12 7.05599 389.122H7.01687Z" fill="white"/>
<path d="M7.44803 116.061C5.72323 113.984 5.91926 110.38 7.84006 108.656C9.80006 106.932 13.4064 107.206 15.1704 109.204C16.9736 111.281 16.7776 114.846 14.7784 116.531C12.6616 118.255 9.09452 118.02 7.40892 116.061H7.44803Z" fill="white"/>
<path d="M60.7207 297.827C58.6039 300.139 54.8408 300.256 52.8416 298.062C51.0384 296.025 51.0775 292.969 52.9983 290.774C54.8799 288.619 57.9375 288.267 60.1327 289.991C62.6023 291.95 62.8767 295.437 60.7207 297.788V297.827Z" fill="white"/>
<path d="M30.184 638.164C28.2632 636.205 28.3415 632.561 30.3407 630.876C32.4183 629.073 35.8679 629.348 37.6711 631.424C39.1999 633.227 39.1216 636.361 37.5144 638.046C35.6328 640.005 32.0656 640.084 30.184 638.164Z" fill="white"/>
<path d="M29.7922 359.108C31.3994 357.11 35.0842 356.914 37.1226 358.677C38.965 360.284 39.3569 363.262 37.9457 365.26C36.4561 367.415 32.8106 368.003 30.6546 366.435C28.577 364.907 28.1065 361.146 29.7529 359.108H29.7922Z" fill="white"/>
<path d="M31.2424 139.061C29.3608 137.219 29.1256 134.476 30.6936 132.635C32.4184 130.597 35.9464 130.362 37.8672 132.165C39.788 133.967 39.6704 137.454 37.632 139.335C35.868 140.981 33.0848 140.863 31.2032 139.061H31.2424Z" fill="white"/>
<path d="M75.8913 223.499C77.8121 221.618 81.4578 221.657 83.1042 223.616C84.5938 225.34 84.5545 228.396 83.0257 230.199C81.2617 232.236 77.8513 232.118 75.9305 229.963C74.2449 228.083 74.2449 225.144 75.8913 223.499Z" fill="white"/>
<path d="M105.213 661.203C103.488 662.888 100.744 662.888 98.8232 661.203C96.6672 659.283 96.628 656.07 98.7056 654.229C100.509 652.622 103.449 652.583 105.174 654.111C107.134 655.835 107.134 659.283 105.174 661.203H105.213Z" fill="white"/>
<path d="M76.2438 268.48C77.9686 266.795 80.9086 266.834 82.5942 268.597C84.319 270.36 84.3974 273.26 82.7902 275.023C80.987 277.021 77.3806 276.943 75.7342 274.906C74.2838 273.064 74.4798 270.164 76.2046 268.44L76.2438 268.48Z" fill="white"/>
<path d="M7.80093 615.438C6.27213 613.793 6.35053 610.697 7.91853 608.934C9.52573 607.171 12.4658 607.053 14.269 608.738C16.3466 610.658 16.3466 614.067 14.269 615.752C12.4658 617.201 9.29053 617.045 7.80093 615.399V615.438Z" fill="white"/>
<path d="M60.5247 161.199C59.0351 163.001 56.1343 163.236 54.1351 161.708C52.1359 160.18 51.7047 157.398 53.1943 155.439C54.8407 153.284 58.3687 152.931 60.2895 154.694C61.8967 156.223 62.0143 159.435 60.5639 161.199H60.5247Z" fill="white"/>
<path d="M53.312 343.357C51.3912 341.633 51.1167 338.851 52.6455 337.009C54.4095 334.933 57.9375 334.776 59.7407 336.696C61.3087 338.381 61.2696 341.437 59.7016 343.2C58.0944 344.963 55.1936 345.042 53.312 343.357V343.357Z" fill="white"/>
<path d="M144.491 655.169C146.294 653.563 149.352 653.837 150.842 655.718C152.135 657.324 152.057 659.949 150.724 661.477C149.195 663.162 145.863 663.28 144.256 661.673C142.649 660.067 142.766 656.736 144.491 655.208V655.169Z" fill="white"/>
<path d="M82.2418 638.634C80.2818 640.28 77.577 640.045 75.9698 638.086C74.441 636.205 74.7153 633.344 76.6361 631.777C78.4785 630.249 81.5754 630.484 82.9866 632.287C84.4762 634.167 84.1626 636.989 82.2418 638.595V638.634Z" fill="white"/>
<path d="M82.2024 183.729C80.556 185.257 78.0864 185.296 76.5184 183.807C74.6368 182.083 74.676 179.183 76.5968 177.42C78.1256 176.01 80.8696 175.97 82.3984 177.303C84.2016 178.87 84.084 181.926 82.2024 183.689V183.729Z" fill="white"/>
<path d="M76.4792 319.926C74.6368 318.163 74.7152 315.302 76.636 313.539C78.204 312.129 80.8696 312.089 82.3984 313.5C84.1624 315.106 84.0448 318.163 82.1632 319.887C80.4776 321.415 78.0472 321.415 76.4792 319.887V319.926Z" fill="white"/>
<path d="M59.2703 614.694C57.7807 616.261 55.311 616.457 53.6254 615.125C51.979 613.792 51.8615 611.285 53.3903 609.6C54.9191 607.876 57.2319 607.68 58.9175 609.169C60.5639 610.619 60.7207 613.126 59.2703 614.694Z" fill="white"/>
<path d="M8.70246 64.5754C10.2313 63.2432 13.0928 63.4782 14.4256 65.0063C15.7976 66.6128 15.6016 69.3554 14.0336 70.7268C12.4264 72.0981 9.68247 71.8631 8.34968 70.2566C6.93848 68.6109 7.13446 65.9467 8.70246 64.5754V64.5754Z" fill="white"/>
<path d="M127.439 637.89C126.028 639.496 123.362 639.653 121.755 638.242C120.226 636.871 120.03 634.05 121.363 632.522C122.696 630.993 125.519 630.837 127.087 632.208C128.655 633.54 128.811 636.361 127.439 637.89V637.89Z" fill="white"/>
<path d="M98.8623 252.102C97.4903 250.534 97.6079 247.713 99.1367 246.381C100.626 245.049 103.527 245.245 104.86 246.773C106.271 248.379 106.154 251.043 104.546 252.454C103.018 253.825 100.195 253.669 98.8623 252.102Z" fill="white"/>
<path d="M103.645 297.749C102.547 297.514 100.705 297.592 99.4505 296.769C97.6081 295.515 97.8826 292.694 99.6466 291.401C101.097 290.343 103.371 290.461 104.547 291.676C105.997 293.125 105.84 295.946 103.606 297.788L103.645 297.749Z" fill="white"/>
<path d="M100.705 200.498C101.763 200.655 103.606 200.498 104.899 201.243C106.82 202.379 106.663 205.318 104.978 206.611C103.37 207.865 101.646 207.826 100.078 206.611C98.4704 205.357 98.5488 202.536 100.744 200.498H100.705Z" fill="white"/>
<path d="M144.766 610.854C146.451 608.895 148.686 608.738 149.783 610.149C150.763 611.402 150.881 612.774 149.783 614.106C148.568 615.517 146.138 615.752 145.275 614.263C144.687 613.205 144.883 611.716 144.766 610.893V610.854Z" fill="white"/>
<path d="M236.18 660.184C234.612 658.186 235.004 656.031 236.65 655.13C238.062 654.385 239.473 654.464 240.531 655.796C241.668 657.167 241.276 659.596 239.59 660.223C238.454 660.654 237.003 660.223 236.18 660.184Z" fill="white"/>
<path d="M149.744 292.812C150.567 295.907 149.783 297.514 147.118 297.357C146.373 297.318 145.079 295.868 145.119 295.084C145.275 292.42 147 291.95 149.744 292.812V292.812Z" fill="white"/>
</g>
<g style="mix-blend-mode:screen" opacity="0.8">
<path d="M2946.27 415.962C2942.27 419.566 2935.18 419.331 2931.38 415.452C2927.22 411.22 2927.38 403.658 2931.69 399.975C2936.28 396.057 2943.37 396.605 2947.17 401.111C2950.7 405.304 2950.27 412.357 2946.23 415.962H2946.27Z" fill="white"/>
<path d="M2930.67 446.328C2935.02 441.822 2941.65 441.665 2945.92 445.897C2950.19 450.128 2950.07 456.829 2945.64 461.139C2941.57 465.135 2935.14 465.331 2930.98 461.609C2926.63 457.73 2926.48 450.677 2930.67 446.328V446.328Z" fill="white"/>
<path d="M2945.68 506.198C2941.8 509.96 2934.71 509.881 2930.83 506.002C2926.71 501.888 2926.91 494.208 2931.18 490.525C2935.3 486.96 2942.27 487.352 2946 491.387C2949.72 495.384 2949.56 502.437 2945.68 506.198Z" fill="white"/>
<path d="M2945.64 355.621C2949.37 359.657 2949.21 365.377 2945.21 369.295C2941.21 373.253 2934.2 373.253 2930.71 369.217C2927.06 365.064 2927.61 358.285 2931.89 354.641C2935.96 351.193 2941.96 351.585 2945.64 355.582V355.621Z" fill="white"/>
<path d="M2922.91 469.014C2926.51 472.658 2926.67 479.201 2923.22 482.885C2919.58 486.803 2912.32 486.92 2908.6 483.12C2905.07 479.476 2904.95 472.893 2908.4 469.171C2912.17 465.096 2918.95 465.018 2922.91 469.014Z" fill="white"/>
<path d="M2931.89 551.062C2928 547.144 2928 541.266 2931.89 537.27C2935.81 533.234 2942.94 533.195 2946.51 537.27C2949.92 541.149 2949.52 547.457 2945.64 551.179C2941.61 555.058 2935.81 555.019 2931.89 551.062Z" fill="white"/>
<path d="M2921.85 438.805C2917.62 442.292 2911.7 441.665 2908.13 437.394C2904.64 433.202 2905.19 427.363 2909.42 423.641C2913.34 420.193 2920.09 420.507 2923.38 424.268C2927.02 428.422 2926.32 435.122 2921.85 438.805V438.805Z" fill="white"/>
<path d="M2922.83 527.513C2919.07 531.549 2912.95 531.745 2909.07 527.983C2905.43 524.457 2905.19 518.697 2908.52 514.897C2912.21 510.665 2918.2 510.195 2922.28 513.721C2926.32 517.287 2926.55 523.478 2922.83 527.513Z" fill="white"/>
<path d="M2908.84 378.582C2912.48 374.624 2917.81 374.272 2921.77 377.72C2926.08 381.442 2926.51 387.358 2922.79 391.355C2919.11 395.273 2912.68 395.43 2908.99 391.708C2905.46 388.103 2905.39 382.343 2908.84 378.621V378.582Z" fill="white"/>
<path d="M2944.78 583.113C2948.35 586.639 2948.54 592.36 2945.21 596.082C2941.84 599.844 2935.06 600.04 2931.49 596.474C2927.96 592.948 2928.08 586.13 2931.77 582.682C2935.26 579.391 2941.21 579.626 2944.74 583.113H2944.78Z" fill="white"/>
<path d="M2932.08 322.865C2928.79 319.142 2929.02 312.912 2932.55 309.856C2936.24 306.643 2942.59 306.8 2945.72 310.13C2949.33 313.97 2949.02 320.553 2945.02 323.844C2941.1 327.096 2935.45 326.665 2932.08 322.865V322.865Z" fill="white"/>
<path d="M2922.52 560.975C2926.01 564.658 2925.93 570.457 2922.36 573.866C2918.91 577.157 2912.64 577.235 2909.27 573.983C2905.66 570.496 2905.86 563.718 2909.66 560.27C2913.38 556.9 2918.99 557.213 2922.52 560.975V560.975Z" fill="white"/>
<path d="M2887.04 460.159C2883.32 456.593 2883.08 450.951 2886.49 447.307C2889.98 443.546 2896.8 443.428 2900.21 447.072C2903.39 450.52 2903.27 456.789 2899.94 460.159C2896.45 463.685 2890.73 463.685 2887.04 460.159V460.159Z" fill="white"/>
<path d="M2899.82 504.827C2896.29 508.432 2890.33 508.588 2886.81 505.179C2883.36 501.849 2883.32 495.58 2886.73 492.132C2890.26 488.566 2896.1 488.488 2899.7 491.975C2903.35 495.541 2903.43 501.183 2899.82 504.827Z" fill="white"/>
<path d="M2886.88 400.955C2890.18 397.546 2896.49 397.624 2899.82 401.111C2902.88 404.324 2902.99 410.123 2900.09 413.415C2896.92 416.98 2890.8 417.176 2887.16 413.806C2883.55 410.476 2883.39 404.52 2886.84 400.955H2886.88Z" fill="white"/>
<path d="M2886.37 550.357C2883.2 547.104 2883.08 541.305 2886.06 538.014C2889.31 534.449 2895.59 534.37 2899.04 537.897C2902.49 541.384 2902.33 547.731 2898.72 550.866C2895.35 553.805 2889.51 553.57 2886.37 550.357Z" fill="white"/>
<path d="M2909.58 333.953C2913.15 330.192 2918.95 330.074 2922.4 333.679C2925.53 336.97 2925.46 342.417 2922.16 345.865C2918.6 349.626 2912.91 349.704 2909.42 346.061C2906.17 342.652 2906.25 337.48 2909.58 333.953V333.953Z" fill="white"/>
<path d="M2932.83 629.23C2936.32 625.665 2941.53 625.508 2944.94 628.799C2948.43 632.208 2948.62 637.38 2945.37 640.985C2941.92 644.864 2936.08 645.021 2932.55 641.377C2929.26 637.968 2929.38 632.678 2932.83 629.191V629.23Z" fill="white"/>
<path d="M2909.82 618.573C2906.41 615.399 2906.25 610.031 2909.42 606.505C2912.76 602.822 2917.77 602.43 2921.38 605.603C2925.3 609.012 2925.54 614.616 2921.89 618.259C2918.56 621.629 2913.19 621.747 2909.82 618.573V618.573Z" fill="white"/>
<path d="M2865.09 482.062C2861.64 478.731 2861.4 473.403 2864.62 469.994C2867.52 466.898 2873.63 466.742 2876.85 469.719C2880.06 472.697 2880.18 478.575 2877.12 481.944C2874.03 485.353 2868.58 485.392 2865.09 482.062V482.062Z" fill="white"/>
<path d="M2887.35 583.505C2890.8 580.253 2896.17 580.527 2899.51 584.092C2902.56 587.384 2902.6 592.36 2899.55 595.495C2896.37 598.747 2890.41 598.903 2887.28 595.808C2884.14 592.713 2884.18 586.482 2887.35 583.505V583.505Z" fill="white"/>
<path d="M2945.06 685.966C2941.88 689.453 2936.55 689.453 2933.1 686.045C2929.93 682.871 2929.69 678.051 2932.55 674.721C2935.45 671.351 2941.29 670.92 2944.7 673.82C2948 676.641 2948.15 682.557 2945.06 685.966V685.966Z" fill="white"/>
<path d="M2933.06 277.57C2929.93 274.357 2929.85 269.342 2932.87 266.207C2936 262.916 2942 262.798 2945.06 265.933C2948.23 269.224 2947.92 274.827 2944.35 278.001C2940.9 281.057 2936.31 280.9 2933.06 277.57V277.57Z" fill="white"/>
<path d="M2876.1 436.101C2872.77 439.549 2867.05 439.588 2864.03 436.258C2861.25 433.202 2861.33 427.795 2864.19 424.699C2867.36 421.251 2872.85 421.29 2876.22 424.817C2879.4 428.108 2879.36 432.771 2876.14 436.101H2876.1Z" fill="white"/>
<path d="M2864.38 515.602C2867.71 512.311 2873.63 512.506 2876.61 515.994C2879.36 519.207 2879.12 524.614 2876.14 527.631C2872.81 530.961 2867.24 530.726 2864.03 527.082C2861.05 523.752 2861.21 518.737 2864.38 515.641V515.602Z" fill="white"/>
<path d="M2887.32 367.924C2884.34 364.672 2884.38 359.696 2887.43 356.522C2890.65 353.231 2896.57 353.309 2899.58 356.679C2902.6 360.009 2902.17 366.043 2898.72 368.865C2895.35 371.607 2890.33 371.216 2887.32 367.963V367.924Z" fill="white"/>
<path d="M2910.56 651.956C2913.54 648.939 2919.03 648.782 2922.16 651.564C2925.46 654.542 2925.46 660.733 2922.16 663.789C2919.03 666.728 2913.78 666.532 2910.68 663.397C2907.58 660.224 2907.54 655.012 2910.6 651.917L2910.56 651.956Z" fill="white"/>
<path d="M2887.59 640.24C2884.53 637.106 2884.57 631.699 2887.67 628.76C2890.73 625.861 2896.41 625.939 2899.23 628.878C2902.02 631.777 2901.94 637.654 2899.04 640.515C2896.02 643.493 2890.61 643.375 2887.55 640.24H2887.59Z" fill="white"/>
<path d="M2864.23 572.298C2861.29 569.36 2861.4 564.149 2864.46 561.014C2867.68 557.684 2872.38 557.527 2875.63 560.583C2879.12 563.835 2879.04 569.164 2875.52 572.455C2872.34 575.433 2867.24 575.355 2864.19 572.298H2864.23Z" fill="white"/>
<path d="M2865.4 390.297C2862.38 387.241 2862.42 381.795 2865.44 379.091C2868.62 376.27 2873.99 376.544 2876.73 379.679C2879.28 382.578 2879.24 387.398 2876.61 390.336C2873.87 393.392 2868.42 393.392 2865.4 390.336V390.297Z" fill="white"/>
<path d="M2853.33 504.435C2850.23 507.648 2844.98 507.687 2842.04 504.553C2839.33 501.614 2839.41 496.912 2842.24 493.934C2845.41 490.604 2850.31 490.564 2853.45 493.895C2856.27 496.912 2856.23 501.496 2853.33 504.474V504.435Z" fill="white"/>
<path d="M2876.42 617.476C2873.28 620.689 2868.03 620.689 2865.13 617.476C2862.42 614.537 2862.54 609.835 2865.4 606.857C2868.58 603.527 2873.52 603.527 2876.61 606.857C2879.44 609.913 2879.36 614.459 2876.42 617.436V617.476Z" fill="white"/>
<path d="M2910.6 299.747C2907.58 296.416 2907.93 291.558 2911.38 288.502C2914.72 285.563 2919.93 285.877 2922.63 289.246C2925.14 292.342 2924.79 297.004 2921.85 299.904C2918.6 303.078 2913.54 302.999 2910.56 299.747H2910.6Z" fill="white"/>
<path d="M2853.25 549.651C2850.55 552.394 2845.72 552.394 2842.71 549.612C2839.45 546.595 2839.26 541.266 2842.31 538.445C2845.17 535.781 2850.23 535.742 2852.98 538.328C2856.03 541.188 2856.15 546.713 2853.25 549.691V549.651Z" fill="white"/>
<path d="M2887.71 675.426C2890.29 672.605 2895.19 672.527 2898.25 675.23C2901.62 678.208 2901.94 683.458 2898.92 686.397C2896.21 689.061 2891.24 689.218 2888.22 686.711C2885.04 684.085 2884.77 678.6 2887.71 675.426V675.426Z" fill="white"/>
<path d="M2842.2 458.396C2839.41 455.535 2839.45 450.755 2842.27 447.738C2845.45 444.369 2850.23 444.486 2853.41 448.052C2856.27 451.265 2856.07 455.692 2852.9 458.553C2849.84 461.295 2844.98 461.217 2842.2 458.396V458.396Z" fill="white"/>
<path d="M2842.43 594.476C2839.65 591.772 2839.61 586.757 2842.35 583.936C2845.21 580.958 2849.88 580.918 2852.78 583.818C2855.64 586.678 2855.76 591.498 2853.02 594.319C2850.35 597.061 2845.18 597.14 2842.43 594.515V594.476Z" fill="white"/>
<path d="M2898.72 322.63C2895.94 325.412 2891.16 325.412 2888.22 322.63C2885.28 319.769 2885.24 315.146 2888.14 312.207C2890.88 309.425 2895.9 309.347 2898.68 312.09C2901.39 314.715 2901.39 319.926 2898.68 322.669L2898.72 322.63Z" fill="white"/>
<path d="M2864.89 663.045C2862.19 660.341 2862.31 655.051 2865.13 652.465C2868.19 649.644 2872.81 649.84 2875.59 652.936C2878.22 655.835 2878.14 659.871 2875.48 662.692C2872.69 665.591 2867.6 665.787 2864.89 663.084V663.045Z" fill="white"/>
<path d="M2943.37 231.609C2940.39 234.273 2935.3 233.882 2932.79 230.786C2930.47 227.926 2930.75 223.342 2933.41 220.873C2936.32 218.17 2941.57 218.561 2944 221.618C2946.23 224.439 2945.92 229.336 2943.37 231.609Z" fill="white"/>
<path d="M2853.17 639.966C2850.98 642.552 2845.96 642.944 2843.25 640.75C2840.51 638.517 2839.92 633.775 2842.04 630.915C2844.31 627.82 2849.6 627.428 2852.54 630.092C2855.21 632.522 2855.52 637.263 2853.17 639.966V639.966Z" fill="white"/>
<path d="M2819.42 480.847C2816.95 478.144 2817.03 473.403 2819.54 470.973C2822.4 468.231 2827.61 468.544 2830.08 471.6C2832.36 474.421 2831.96 479.28 2829.3 481.435C2826.44 483.747 2821.77 483.473 2819.42 480.847Z" fill="white"/>
<path d="M2852.82 412.788C2850.08 415.687 2846.04 415.961 2843.1 413.454C2839.84 410.672 2839.65 406.127 2842.59 403.11C2845.41 400.21 2850.51 400.132 2853.13 402.953C2855.52 405.539 2855.37 410.084 2852.78 412.827L2852.82 412.788Z" fill="white"/>
<path d="M2820.36 526.729C2817.5 523.987 2817.5 518.932 2820.4 516.268C2822.99 513.878 2827.61 513.956 2830.24 516.425C2832.98 518.971 2832.94 524.418 2830.2 526.926C2827.61 529.316 2822.95 529.198 2820.36 526.69V526.729Z" fill="white"/>
<path d="M2866.07 344.924C2863.48 342.417 2863.25 337.989 2865.6 335.207C2868.07 332.307 2873.32 332.307 2875.95 335.207C2878.38 337.871 2878.3 342.534 2875.79 344.963C2873.2 347.432 2868.62 347.432 2866.03 344.963L2866.07 344.924Z" fill="white"/>
<path d="M2911.11 253.826C2908.48 251.357 2908.21 246.929 2910.56 244.108C2912.99 241.17 2918.24 241.131 2920.91 243.991C2923.38 246.616 2923.34 251.279 2920.87 253.747C2918.32 256.255 2913.77 256.333 2911.11 253.865V253.826Z" fill="white"/>
<path d="M2820.56 561.719C2823.3 559.016 2827.61 558.977 2830.24 561.641C2832.87 564.306 2832.79 568.655 2830.04 571.358C2827.26 574.101 2823.11 574.14 2820.36 571.397C2817.62 568.655 2817.7 564.54 2820.52 561.759L2820.56 561.719Z" fill="white"/>
<path d="M2829.5 616.653C2827.3 619.082 2823.14 619.317 2820.52 617.123C2817.66 614.694 2817.3 610.031 2819.85 607.484C2822.13 605.212 2826.48 604.937 2828.99 606.897C2831.69 609.012 2831.97 613.91 2829.5 616.653Z" fill="white"/>
<path d="M2820.6 425.757C2823.18 423.132 2827.77 423.132 2830.2 425.757C2832.59 428.343 2832.4 432.966 2829.73 435.396C2827.22 437.747 2823.5 437.668 2820.87 435.239C2818.01 432.575 2817.89 428.5 2820.6 425.757V425.757Z" fill="white"/>
<path d="M2843.1 685.182C2840.47 682.792 2840.39 678.208 2842.98 675.583C2845.49 673.036 2849.1 672.879 2851.8 675.113C2854.86 677.659 2855.25 681.735 2852.74 684.556C2850.35 687.259 2845.72 687.533 2843.1 685.143V685.182Z" fill="white"/>
<path d="M2888.45 275.807C2886.02 273.142 2886.45 268.323 2889.31 266.089C2891.98 264.013 2896.06 264.522 2898.25 267.186C2900.49 269.851 2900.13 273.769 2897.47 276.12C2894.92 278.354 2890.65 278.197 2888.45 275.807V275.807Z" fill="white"/>
<path d="M2806.37 503.181C2803.98 505.414 2799.86 505.375 2797.47 503.064C2794.92 500.595 2795.23 495.932 2798.14 493.542C2800.76 491.387 2804.64 491.779 2806.96 494.365C2809.23 496.951 2808.95 500.752 2806.41 503.181H2806.37Z" fill="white"/>
<path d="M2798.64 548.828C2796.06 546.556 2795.7 542.598 2797.86 540.012C2800.21 537.191 2804.96 536.878 2807.39 539.424C2809.7 541.854 2809.74 545.929 2807.43 548.319C2805 550.866 2801.19 551.101 2798.61 548.828H2798.64Z" fill="white"/>
<path d="M2843.33 366.592C2841.29 364.202 2841.65 359.97 2844.04 357.698C2846.74 355.151 2851.17 355.621 2853.45 358.638C2855.48 361.342 2854.94 365.142 2852.19 367.336C2849.68 369.374 2845.37 368.982 2843.33 366.553V366.592Z" fill="white"/>
<path d="M2797.74 594.045C2795.43 591.733 2795.55 587.227 2797.94 585.033C2800.06 583.113 2804.13 583.074 2806.33 584.954C2808.72 586.992 2808.95 591.655 2806.76 593.966C2804.56 596.317 2800.06 596.357 2797.74 594.006V594.045Z" fill="white"/>
<path d="M2797.23 457.259C2795.19 454.517 2795.9 450.207 2798.61 448.443C2801.15 446.798 2805.03 447.229 2806.92 449.384C2809.07 451.852 2808.68 456.476 2806.17 458.357C2803.39 460.473 2799.27 459.963 2797.27 457.259H2797.23Z" fill="white"/>
<path d="M2943.02 185.492C2940.47 187.608 2935.96 187.177 2934.04 184.63C2932.24 182.24 2932.47 178.282 2934.51 176.284C2936.86 173.972 2941.25 174.051 2943.49 176.48C2945.72 178.909 2945.49 183.376 2943.02 185.453V185.492Z" fill="white"/>
<path d="M2820.99 662.418C2818.52 660.224 2818.32 656.07 2820.6 653.641C2822.99 651.055 2826.79 650.781 2829.38 653.053C2831.96 655.326 2832.12 659.126 2829.73 661.752C2827.42 664.338 2823.5 664.651 2820.99 662.418Z" fill="white"/>
<path d="M2911.23 199.636C2913.38 197.325 2918.05 197.325 2920.24 199.636C2922.24 201.752 2922.28 205.67 2920.36 207.982C2918.28 210.451 2913.89 210.451 2911.5 207.943C2909.42 205.788 2909.31 201.752 2911.27 199.676L2911.23 199.636Z" fill="white"/>
<path d="M2821.3 389.866C2819.03 387.789 2818.83 384.185 2820.91 381.755C2822.95 379.365 2826.59 378.934 2829.02 380.776C2831.69 382.813 2831.93 387.084 2829.46 389.553C2827.18 391.825 2823.65 391.943 2821.34 389.866H2821.3Z" fill="white"/>
<path d="M2874.34 298.297C2872.07 300.57 2868.62 300.57 2866.3 298.258C2863.95 295.907 2863.95 292.537 2866.3 290.226C2868.54 288.031 2872.22 287.992 2874.42 290.147C2876.57 292.302 2876.53 296.064 2874.34 298.258V298.297Z" fill="white"/>
<path d="M2775.79 516.895C2778.1 514.779 2781.59 514.936 2783.71 517.287C2785.83 519.599 2785.67 523.164 2783.4 525.202C2781.12 527.2 2777.32 527.043 2775.36 524.888C2773.36 522.655 2773.56 518.932 2775.79 516.856V516.895Z" fill="white"/>
<path d="M2784.06 472.227C2785.94 474.5 2785.67 478.379 2783.47 480.299C2781.16 482.297 2777.59 481.984 2775.52 479.633C2773.48 477.321 2773.71 473.559 2776.03 471.679C2778.3 469.798 2782.26 470.072 2784.1 472.227H2784.06Z" fill="white"/>
<path d="M2806.25 638.595C2803.98 640.867 2800.53 640.867 2798.21 638.556C2795.86 636.205 2795.86 632.835 2798.21 630.523C2800.45 628.329 2804.13 628.29 2806.33 630.445C2808.48 632.6 2808.44 636.361 2806.25 638.556V638.595Z" fill="white"/>
<path d="M2775.79 571.593C2773.6 569.713 2773.4 565.873 2775.36 563.6C2777.4 561.249 2780.89 561.014 2783.28 563.13C2785.63 565.207 2785.87 568.772 2783.83 571.084C2781.87 573.278 2778.03 573.552 2775.79 571.593V571.593Z" fill="white"/>
<path d="M2806.88 684.125C2804.88 686.28 2801.04 686.476 2798.84 684.477C2796.68 682.518 2796.57 678.718 2798.57 676.484C2800.68 674.133 2804.13 674.016 2806.48 676.171C2808.8 678.326 2808.95 681.852 2806.88 684.125Z" fill="white"/>
<path d="M2798.84 412.278C2796.68 410.319 2796.57 406.518 2798.57 404.285C2800.68 401.934 2804.13 401.817 2806.48 403.972C2808.8 406.088 2808.95 409.653 2806.88 411.926C2804.84 414.12 2801.07 414.277 2798.84 412.318V412.278Z" fill="white"/>
<path d="M2889.24 230.434C2887.24 228.475 2887.2 224.36 2889.24 222.323C2891.35 220.168 2895.04 220.168 2897.23 222.323C2899.47 224.517 2899.51 228.083 2897.35 230.316C2895.31 232.393 2891.27 232.432 2889.24 230.473V230.434Z" fill="white"/>
<path d="M2776.38 661.086C2774.34 659.401 2773.99 655.914 2775.67 653.719C2777.24 651.643 2780.81 651.329 2783 653.092C2785.04 654.738 2785.43 658.46 2783.79 660.459C2782.18 662.418 2778.42 662.731 2776.38 661.086V661.086Z" fill="white"/>
<path d="M2775.95 434.886C2774.07 433.045 2773.95 429.558 2775.67 427.52C2777.59 425.208 2781.55 425.287 2783.59 427.638C2785.39 429.714 2785.28 433.202 2783.32 434.965C2781.36 436.728 2777.75 436.689 2775.95 434.886Z" fill="white"/>
<path d="M2843.84 320.435C2842.08 318.437 2842.16 314.911 2843.96 313.03C2846.08 310.875 2850.04 311.149 2851.92 313.579C2853.6 315.734 2853.25 319.299 2851.21 320.866C2849.09 322.512 2845.49 322.316 2843.84 320.435V320.435Z" fill="white"/>
<path d="M2775.95 615.987C2773.91 614.145 2773.71 610.893 2775.52 608.816C2777.59 606.387 2781.2 606.074 2783.44 608.111C2785.36 609.874 2785.51 613.126 2783.75 615.321C2781.71 617.828 2778.26 618.142 2775.95 616.026V615.987Z" fill="white"/>
<path d="M2752.74 540.639C2754.47 538.641 2758.07 538.562 2760.03 540.482C2761.95 542.363 2761.88 545.929 2759.92 547.809C2758.19 549.455 2755.09 549.534 2753.29 547.966C2751.21 546.203 2750.94 542.716 2752.74 540.639V540.639Z" fill="white"/>
<path d="M2935.41 132.047C2937.33 130.166 2940.94 130.323 2942.74 132.361C2944.51 134.398 2944.23 138.003 2942.16 139.648C2940.24 141.176 2937.29 141.059 2935.53 139.335C2933.53 137.376 2933.45 133.928 2935.41 132.008V132.047Z" fill="white"/>
<path d="M2919.81 154.498C2921.93 156.34 2922.05 159.866 2920.09 161.747C2918.4 163.354 2915.22 163.589 2913.38 162.257C2911.3 160.728 2910.83 156.928 2912.44 154.93C2914.05 152.931 2917.73 152.735 2919.81 154.498Z" fill="white"/>
<path d="M2753.84 457.26C2751.92 455.575 2751.88 451.931 2753.76 450.05C2755.41 448.404 2758.35 448.444 2760.23 450.128C2762.11 451.813 2762.46 454.634 2760.97 456.515C2759.29 458.67 2755.84 459.023 2753.84 457.26V457.26Z" fill="white"/>
<path d="M2753.41 495.501C2755.25 493.307 2758.46 492.994 2760.5 494.757C2762.5 496.481 2762.62 499.811 2760.74 501.888C2759.01 503.73 2756.39 504.004 2754.35 502.476C2752 500.752 2751.6 497.656 2753.45 495.501H2753.41Z" fill="white"/>
<path d="M2753.76 586.169C2755.41 584.523 2758.35 584.562 2760.23 586.247C2762.38 588.167 2762.46 591.576 2760.42 593.339C2758.58 594.906 2755.56 594.946 2753.84 593.418C2751.92 591.733 2751.88 588.089 2753.76 586.208V586.169Z" fill="white"/>
<path d="M2867.56 252.611C2865.44 250.808 2865.32 247.517 2867.28 245.362C2869.05 243.442 2871.71 243.168 2873.83 244.657C2876.18 246.381 2876.65 249.594 2874.81 251.788C2872.93 254.061 2869.71 254.413 2867.56 252.572V252.611Z" fill="white"/>
<path d="M2890.02 185.022C2888.1 183.337 2888.06 179.693 2889.94 177.812C2891.59 176.166 2894.53 176.206 2896.41 177.89C2898.29 179.575 2898.64 182.396 2897.15 184.277C2895.47 186.432 2892.02 186.785 2890.02 185.022V185.022Z" fill="white"/>
<path d="M2822.09 342.808C2820.44 341.358 2820.21 338.224 2821.66 336.304C2823.03 334.423 2826.05 334.11 2828.01 335.599C2830.28 337.362 2830.59 340.731 2828.59 342.612C2826.87 344.258 2823.81 344.336 2822.09 342.808Z" fill="white"/>
<path d="M2760.11 638.086C2758.23 639.614 2755.29 639.3 2753.76 637.419C2752.23 635.539 2752.51 632.522 2754.35 631.072C2756.23 629.622 2759.37 629.897 2760.74 631.699C2762.19 633.58 2761.87 636.636 2760.07 638.125L2760.11 638.086Z" fill="white"/>
<path d="M2737.1 524.849C2735.3 526.455 2732.24 526.22 2730.75 524.34C2729.22 522.42 2729.57 519.403 2731.53 518.031C2733.18 516.895 2736 517.052 2737.34 518.384C2738.94 519.99 2738.83 523.321 2737.14 524.849H2737.1Z" fill="white"/>
<path d="M2851.02 274.866C2849.53 276.59 2846.19 276.747 2844.55 275.141C2842.94 273.573 2843.02 270.204 2844.67 268.675C2846.19 267.265 2848.74 267.187 2850.39 268.48C2852.27 269.968 2852.58 272.985 2850.98 274.827L2851.02 274.866Z" fill="white"/>
<path d="M2867.79 206.964C2865.99 205.2 2865.99 202.458 2867.79 200.655C2869.48 198.931 2872.46 198.853 2874.14 200.498C2875.83 202.144 2875.83 205.122 2874.14 206.846C2872.34 208.648 2869.64 208.727 2867.83 206.964H2867.79Z" fill="white"/>
<path d="M2799.04 365.808C2797.35 364.28 2797.23 361.146 2798.84 359.422C2800.53 357.58 2803.31 357.463 2805.19 359.147C2807.07 360.832 2807.15 363.575 2805.43 365.417C2803.74 367.219 2800.84 367.415 2799.08 365.808H2799.04Z" fill="white"/>
<path d="M2737.26 563.678C2738.71 565.285 2738.63 567.753 2737.06 569.36C2735.3 571.201 2732.2 571.241 2730.67 569.438C2729.34 567.871 2729.42 565.168 2730.87 563.639C2732.67 561.719 2735.53 561.759 2737.26 563.639V563.678Z" fill="white"/>
<path d="M2737.85 478.653C2736.36 480.377 2733.96 480.769 2732.2 479.554C2730.08 478.104 2729.77 475.244 2731.5 473.246C2733.18 471.287 2736.08 471.13 2737.85 472.932C2739.34 474.421 2739.34 476.929 2737.85 478.653V478.653Z" fill="white"/>
<path d="M2782.42 387.907C2780.77 389.435 2778.3 389.474 2776.73 387.985C2774.85 386.261 2774.89 383.362 2776.81 381.599C2778.34 380.188 2781.08 380.149 2782.61 381.481C2784.41 383.048 2784.3 386.105 2782.42 387.868V387.907Z" fill="white"/>
<path d="M2753.6 410.907C2752.11 409.379 2752.11 406.95 2753.6 405.304C2755.13 403.658 2757.52 403.423 2759.21 404.755C2761.13 406.323 2761.17 409.222 2759.21 410.985C2757.56 412.474 2755.13 412.435 2753.6 410.907V410.907Z" fill="white"/>
<path d="M2737.3 615.007C2735.61 616.418 2733.1 616.339 2731.69 614.811C2730.24 613.283 2730.44 610.775 2732.12 609.247C2733.73 607.758 2736.2 607.876 2737.69 609.482C2739.18 611.128 2739.02 613.557 2737.34 615.007H2737.3Z" fill="white"/>
<path d="M2850.7 229.376C2848.98 230.786 2846.55 230.473 2845.21 228.709C2843.88 226.985 2844.27 224.635 2846.04 223.185C2847.76 221.813 2850.35 222.088 2851.56 223.812C2852.78 225.536 2852.39 228.004 2850.74 229.376H2850.7Z" fill="white"/>
<path d="M2714.4 546.595C2712.99 548.162 2710.37 548.201 2708.92 546.595C2707.54 545.067 2707.54 543.343 2708.56 541.697C2709.58 540.012 2712.52 539.777 2714.09 541.07C2715.7 542.363 2715.81 544.988 2714.4 546.595Z" fill="white"/>
<path d="M2708.76 501.731C2707.39 500.164 2707.66 497.421 2709.35 496.168C2710.76 495.11 2712.95 495.384 2714.21 496.795C2715.5 498.205 2715.54 500.321 2714.33 501.653C2712.88 503.22 2710.09 503.259 2708.76 501.731Z" fill="white"/>
<path d="M2736.59 427.599C2738.16 428.97 2738.16 431.713 2736.59 433.162C2735.22 434.416 2733.18 434.416 2731.73 433.123C2730.32 431.87 2730.01 429.675 2731.02 428.265C2732.24 426.58 2735.02 426.227 2736.59 427.599Z" fill="white"/>
<path d="M2777.05 341.946C2775.83 340.497 2776.1 338.342 2777.75 337.205C2779.12 336.265 2780.57 336.148 2781.87 337.362C2783.24 338.616 2783.16 340.771 2781.79 342.182C2780.42 343.553 2778.26 343.435 2777.05 341.946Z" fill="white"/>
<path d="M2758.62 365.26C2757.64 365.103 2755.92 365.26 2754.66 364.515C2753.17 363.653 2753.49 361.302 2754.9 359.97C2756.27 358.638 2758.23 358.677 2759.52 360.088C2760.78 361.459 2760.66 363.418 2758.62 365.26Z" fill="white"/>
<path d="M2731.61 387.437C2731.61 386.575 2731.14 385.125 2731.57 384.028C2732.2 382.343 2734.67 381.991 2736 383.088C2737.3 384.185 2737.41 385.556 2736.67 386.967C2735.81 388.573 2733.57 388.965 2731.61 387.437V387.437Z" fill="white"/>
</g>
<g style="mix-blend-mode:screen" opacity="0.8">
<g style="mix-blend-mode:color-burn">
<path d="M495.41 739.019V537.622L320.891 436.885L146.373 537.622V739.019L320.891 839.717L495.41 739.019Z" fill="white"/>
</g>
<g style="mix-blend-mode:color-burn">
<path d="M1514.53 21.1615V-159.038L1358.4 -249.118L1202.26 -159.038V21.1615L1358.4 111.281L1514.53 21.1615Z" fill="white"/>
</g>
<g style="mix-blend-mode:color-burn">
<path d="M2756.43 637.772V480.181L2619.89 401.386L2483.36 480.181V637.772L2619.89 716.568L2756.43 637.772Z" fill="white"/>
</g>
<g style="mix-blend-mode:color-burn">
<path d="M830.57 455.731V362.086L749.465 315.263L668.321 362.086V455.731L749.465 502.515L830.57 455.731Z" fill="white"/>
</g>
<g style="mix-blend-mode:color-burn">
<path d="M1664 416.353V341.163L1598.85 303.548L1533.66 341.163V416.353L1598.85 453.968L1664 416.353Z" fill="white"/>
</g>
<g opacity="0.82">
<g style="mix-blend-mode:color-burn">
<path d="M2026.33 109.282V65.79L1988.66 44.0437L1950.98 65.79V109.282L1988.66 131.028L2026.33 109.282Z" fill="white"/>
</g>
</g>
<g opacity="0.41">
<g style="mix-blend-mode:color-burn">
<path d="M1087.41 249.985V148.112L999.13 97.1748L910.89 148.112V249.985L999.13 300.883L1087.41 249.985Z" fill="white"/>
</g>
</g>
<g opacity="0.83">
<g style="mix-blend-mode:color-burn">
<path d="M2907.27 268.284V188.509L2838.16 148.621L2769.05 188.509V268.284L2838.16 308.132L2907.27 268.284Z" fill="white"/>
</g>
</g>
<g style="mix-blend-mode:color-burn">
<path d="M2186.22 688.983V617.201L2124.05 581.31L2061.84 617.201V688.983L2124.05 724.874L2186.22 688.983Z" fill="white"/>
</g>
<g style="mix-blend-mode:color-burn">
<path d="M1685.09 296.377V267.931L1660.43 253.669L1635.78 267.931V296.377L1660.43 310.64L1685.09 296.377Z" fill="white"/>
</g>
<g style="mix-blend-mode:color-burn">
<path d="M1747.18 3.49027V-82.4363L1672.74 -125.38L1598.3 -82.4363V3.49027L1672.74 46.4341L1747.18 3.49027Z" fill="white"/>
</g>
<g style="mix-blend-mode:color-burn">
<path d="M1386.11 412.592V310.718L1297.83 259.781L1209.59 310.718V412.592L1297.83 463.529L1386.11 412.592Z" fill="white"/>
</g>
</g>
<path d="M965.916 520.099H954.562V477.194L921.978 418.07H934.805L960.165 465.841L985.525 418.07H998.353L965.916 477.194V520.099ZM996.845 483.092C996.845 469.625 999.253 459.894 1004.07 453.898C1008.89 447.902 1017 444.904 1028.4 444.904C1039.9 444.904 1048.01 447.902 1052.73 453.898C1057.54 459.894 1059.95 469.625 1059.95 483.092C1059.95 496.558 1057.69 506.338 1053.17 512.432C1048.65 518.527 1040.39 521.574 1028.4 521.574C1016.41 521.574 1008.15 518.527 1003.63 512.432C999.106 506.338 996.845 496.558 996.845 483.092ZM1008.2 482.944C1008.2 493.658 1009.48 501.178 1012.03 505.503C1014.69 509.828 1020.14 511.99 1028.4 511.99C1036.75 511.99 1042.21 509.877 1044.76 505.65C1047.32 501.325 1048.6 493.756 1048.6 482.944C1048.6 472.132 1047.17 464.71 1044.32 460.68C1041.47 456.552 1036.16 454.488 1028.4 454.488C1020.73 454.488 1015.42 456.552 1012.47 460.68C1009.62 464.71 1008.2 472.132 1008.2 482.944ZM1123.99 446.378H1135.05V520.099H1123.99V514.939C1116.62 519.362 1109.34 521.574 1102.17 521.574C1092.14 521.574 1085.46 518.969 1082.11 513.759C1078.87 508.55 1077.25 498.917 1077.25 484.861V446.378H1088.31V484.713C1088.31 495.427 1089.24 502.603 1091.11 506.24C1092.98 509.877 1097.2 511.695 1103.79 511.695C1107.03 511.695 1110.32 511.253 1113.67 510.368C1117.01 509.385 1119.56 508.452 1121.33 507.567L1123.99 506.24V446.378ZM1134.8 428.243V418.07H1208.52V428.243H1177.41V520.099H1166.21V428.243H1134.8ZM1254.3 446.378H1265.35V520.099H1254.3V514.939C1246.92 519.362 1239.65 521.574 1232.47 521.574C1222.45 521.574 1215.76 518.969 1212.42 513.759C1209.18 508.55 1207.56 498.917 1207.56 484.861V446.378H1218.61V484.713C1218.61 495.427 1219.55 502.603 1221.42 506.24C1223.28 509.877 1227.51 511.695 1234.1 511.695C1237.34 511.695 1240.63 511.253 1243.97 510.368C1247.32 509.385 1249.87 508.452 1251.64 507.567L1254.3 506.24V446.378ZM1319.21 444.904C1329.13 444.904 1336.06 447.755 1340 453.456C1344.03 459.058 1346.04 468.937 1346.04 483.092C1346.04 497.246 1343.53 507.223 1338.52 513.022C1333.61 518.723 1324.51 521.574 1311.24 521.574C1307.12 521.574 1300.28 521.181 1290.75 520.394L1286.62 519.952V414.236H1297.53V450.064C1305 446.624 1312.23 444.904 1319.21 444.904ZM1311.1 511.695C1320.73 511.695 1327.07 509.533 1330.12 505.208C1333.26 500.785 1334.84 493.363 1334.84 482.944C1334.84 472.525 1333.61 465.251 1331.15 461.123C1328.69 456.896 1324.32 454.783 1318.03 454.783C1312.33 454.783 1306.48 455.864 1300.48 458.026L1297.53 459.058V510.958C1303.92 511.45 1308.44 511.695 1311.1 511.695ZM1414.36 510.958L1418.64 510.516L1418.93 519.215C1407.73 520.788 1398.14 521.574 1390.18 521.574C1379.56 521.574 1372.04 518.527 1367.62 512.432C1363.2 506.24 1360.99 496.656 1360.99 483.681C1360.99 457.83 1371.26 444.904 1391.8 444.904C1401.73 444.904 1409.15 447.705 1414.07 453.308C1418.98 458.813 1421.44 467.512 1421.44 479.405L1420.85 487.81H1372.19C1372.19 495.968 1373.67 502.013 1376.62 505.945C1379.56 509.877 1384.68 511.843 1391.95 511.843C1399.32 511.843 1406.79 511.548 1414.36 510.958ZM1410.38 478.963C1410.38 469.92 1408.91 463.531 1405.96 459.796C1403.11 456.06 1398.39 454.193 1391.8 454.193C1385.31 454.193 1380.4 456.159 1377.06 460.091C1373.81 464.022 1372.14 470.313 1372.04 478.963H1410.38ZM1505.86 520.099H1494.51V477.194L1461.93 418.07H1474.75L1500.11 465.841L1525.47 418.07H1538.3L1505.86 477.194V520.099ZM1592.81 468.642V506.387C1593.1 510.024 1595.95 512.187 1601.36 512.875L1600.91 521.574C1593.15 521.574 1587.3 519.608 1583.37 515.676C1574.52 519.608 1565.68 521.574 1556.83 521.574C1550.05 521.574 1544.89 519.657 1541.35 515.824C1537.81 511.99 1536.04 506.486 1536.04 499.31C1536.04 492.135 1537.86 486.876 1541.5 483.534C1545.13 480.094 1550.83 477.98 1558.6 477.194L1581.75 474.982V468.642C1581.75 463.629 1580.67 460.041 1578.5 457.879C1576.34 455.716 1573.39 454.635 1569.66 454.635C1561.79 454.635 1553.63 455.127 1545.18 456.11L1540.61 456.552L1540.17 448.148C1550.98 445.985 1560.56 444.904 1568.92 444.904C1577.27 444.904 1583.32 446.821 1587.05 450.654C1590.89 454.488 1592.81 460.484 1592.81 468.642ZM1547.39 498.72C1547.39 507.763 1551.13 512.285 1558.6 512.285C1565.28 512.285 1571.87 511.155 1578.36 508.894L1581.75 507.714V483.386L1559.93 485.451C1555.5 485.844 1552.31 487.122 1550.34 489.284C1548.38 491.447 1547.39 494.592 1547.39 498.72ZM1606.97 446.378H1618.03L1636.46 510.516H1641.33L1659.91 446.378H1670.96L1640.3 552.832H1629.24L1638.82 520.099H1627.91L1606.97 446.378ZM1685.18 520.099V446.378H1696.23V520.099H1685.18ZM1728.49 520.099H1717.43V446.378H1728.34V451.539C1736.3 447.116 1743.92 444.904 1751.19 444.904C1761.02 444.904 1767.61 447.558 1770.95 452.866C1774.39 458.174 1776.11 467.61 1776.11 481.175V520.099H1765.2V481.47C1765.2 471.247 1764.17 464.268 1762.1 460.533C1760.14 456.699 1755.86 454.783 1749.28 454.783C1746.13 454.783 1742.79 455.274 1739.25 456.257C1735.81 457.142 1733.16 458.026 1731.29 458.911L1728.49 460.238V520.099ZM1797.51 520.099V414.236H1808.56V520.099H1797.51ZM1882.79 468.642V506.387C1883.09 510.024 1885.94 512.187 1891.35 512.875L1890.9 521.574C1883.14 521.574 1877.29 519.608 1873.36 515.676C1864.51 519.608 1855.66 521.574 1846.82 521.574C1840.04 521.574 1834.88 519.657 1831.34 515.824C1827.8 511.99 1826.03 506.486 1826.03 499.31C1826.03 492.135 1827.85 486.876 1831.48 483.534C1835.12 480.094 1840.82 477.98 1848.59 477.194L1871.74 474.982V468.642C1871.74 463.629 1870.65 460.041 1868.49 457.879C1866.33 455.716 1863.38 454.635 1859.65 454.635C1851.78 454.635 1843.62 455.127 1835.17 456.11L1830.6 456.552L1830.16 448.148C1840.97 445.985 1850.55 444.904 1858.91 444.904C1867.26 444.904 1873.31 446.821 1877.04 450.654C1880.88 454.488 1882.79 460.484 1882.79 468.642ZM1837.38 498.72C1837.38 507.763 1841.12 512.285 1848.59 512.285C1855.27 512.285 1861.86 511.155 1868.34 508.894L1871.74 507.714V483.386L1849.91 485.451C1845.49 485.844 1842.3 487.122 1840.33 489.284C1838.36 491.447 1837.38 494.592 1837.38 498.72ZM1904.61 520.099V446.378H1915.52V456.404C1924.07 450.507 1933.07 446.624 1942.5 444.757V455.962C1938.38 456.748 1934.05 457.977 1929.53 459.648C1925.11 461.319 1921.72 462.794 1919.36 464.071L1915.67 465.988V520.099H1904.61ZM1955.58 520.099V446.378H1966.64V520.099H1955.58Z" fill="#282728"/>
<path d="M926.982 354V168.008H1040.14V186.285H947.678V250.522H1024.01V268.53H947.678V335.723H1040.14V354H926.982ZM1114.25 234.933C1094.72 234.933 1084.95 241.742 1084.95 255.36C1084.95 261.631 1087.19 266.111 1091.67 268.798C1096.15 271.307 1106.36 273.995 1122.31 276.862C1138.26 279.549 1149.55 283.402 1156.18 288.419C1162.81 293.436 1166.12 302.843 1166.12 316.64C1166.12 330.437 1161.64 340.561 1152.68 347.012C1143.9 353.462 1131 356.688 1113.98 356.688C1102.87 356.688 1089.79 355.433 1074.74 352.925L1066.67 351.581L1067.75 334.111C1088.18 337.157 1103.59 338.68 1113.98 338.68C1124.37 338.68 1132.25 337.067 1137.63 333.842C1143.18 330.437 1145.96 324.883 1145.96 317.178C1145.96 309.294 1143.63 304.008 1138.97 301.32C1134.32 298.453 1124.1 295.765 1108.33 293.257C1092.57 290.748 1081.37 287.075 1074.74 282.237C1068.11 277.399 1064.79 268.44 1064.79 255.36C1064.79 242.279 1069.36 232.603 1078.5 226.332C1087.82 220.061 1099.37 216.925 1113.17 216.925C1124.1 216.925 1137.81 218.179 1154.29 220.688L1161.82 222.032L1161.28 239.233C1141.39 236.366 1125.71 234.933 1114.25 234.933ZM1288.37 337.336L1296.17 336.53L1296.7 352.387C1276.28 355.254 1258.81 356.688 1244.29 356.688C1224.94 356.688 1211.23 351.133 1203.17 340.024C1195.11 328.735 1191.07 311.265 1191.07 287.613C1191.07 240.487 1209.8 216.925 1247.25 216.925C1265.35 216.925 1278.87 222.032 1287.83 232.245C1296.79 242.279 1301.27 258.137 1301.27 279.818L1300.2 295.138H1211.5C1211.5 310.011 1214.19 321.03 1219.56 328.198C1224.94 335.365 1234.26 338.949 1247.52 338.949C1260.96 338.949 1274.57 338.411 1288.37 337.336ZM1281.11 279.012C1281.11 262.527 1278.43 250.88 1273.05 244.071C1267.85 237.262 1259.25 233.858 1247.25 233.858C1235.42 233.858 1226.46 237.441 1220.37 244.609C1214.46 251.776 1211.41 263.244 1211.23 279.012H1281.11ZM1332.69 354V219.613H1352.58V237.889C1368.17 227.138 1384.56 220.061 1401.76 216.656V237.083C1394.24 238.516 1386.35 240.756 1378.11 243.802C1370.05 246.848 1363.87 249.536 1359.56 251.866L1352.85 255.36V354H1332.69ZM1501.86 261.81C1501.86 289.046 1505.45 308.667 1512.61 320.672C1519.78 332.498 1533.58 338.411 1554 338.411C1574.61 338.411 1588.41 332.588 1595.4 320.941C1602.56 309.294 1606.15 289.763 1606.15 262.348C1606.15 234.933 1602.47 214.954 1595.13 202.411C1587.78 189.868 1573.98 183.597 1553.74 183.597C1533.67 183.597 1519.96 189.868 1512.61 202.411C1505.45 214.775 1501.86 234.574 1501.86 261.81ZM1627.65 262.348C1627.65 295.497 1622.36 319.507 1611.79 334.379C1601.22 349.252 1581.96 356.688 1554 356.688C1526.23 356.688 1507.06 349.072 1496.49 333.842C1485.91 318.611 1480.63 294.69 1480.63 262.079C1480.63 229.288 1486 205.009 1496.76 189.241C1507.51 173.294 1526.59 165.32 1554 165.32C1581.42 165.32 1600.5 173.204 1611.25 188.972C1622.18 204.74 1627.65 229.199 1627.65 262.348ZM1516.91 136.83V112.64H1536.53V136.83H1516.91ZM1571.74 136.83V112.64H1591.1V136.83H1571.74ZM1654.03 237.62V219.613H1753.75V237.62L1678.49 335.992H1753.75V354H1654.03V335.992L1729.29 237.62H1654.03ZM1771.77 219.613H1793.28L1824.72 336.53H1834.67L1867.19 219.613H1887.89L1849.99 354H1809.67L1771.77 219.613ZM2006.59 260.198V329.004C2007.12 335.634 2012.32 339.576 2022.17 340.83L2021.37 356.688C2007.21 356.688 1996.55 353.104 1989.38 345.937C1973.26 353.104 1957.13 356.688 1941 356.688C1928.64 356.688 1919.23 353.194 1912.78 346.206C1906.33 339.217 1903.11 329.183 1903.11 316.103C1903.11 303.022 1906.42 293.436 1913.05 287.344C1919.68 281.072 1930.07 277.22 1944.23 275.787L1986.43 271.755V260.198C1986.43 251.059 1984.46 244.519 1980.51 240.577C1976.57 236.635 1971.2 234.664 1964.39 234.664C1950.05 234.664 1935.18 235.56 1919.77 237.352L1911.44 238.158L1910.63 222.838C1930.34 218.896 1947.81 216.925 1963.04 216.925C1978.27 216.925 1989.29 220.419 1996.1 227.407C2003.09 234.395 2006.59 245.325 2006.59 260.198ZM1923.8 315.028C1923.8 331.513 1930.61 339.755 1944.23 339.755C1956.41 339.755 1968.42 337.694 1980.25 333.573L1986.43 331.423V287.075L1946.65 290.838C1938.59 291.555 1932.76 293.884 1929.18 297.826C1925.59 301.768 1923.8 307.502 1923.8 315.028ZM2115.97 237.083H2073.24V301.32C2073.24 316.73 2074.31 326.854 2076.46 331.692C2078.79 336.53 2084.17 338.949 2092.59 338.949L2116.51 337.336L2117.85 354C2105.85 355.971 2096.71 356.957 2090.44 356.957C2076.46 356.957 2066.78 353.552 2061.41 346.743C2056.03 339.934 2053.35 326.943 2053.35 307.771V237.083H2034.26V219.613H2053.35V178.49H2073.24V219.613H2115.97V237.083ZM2235.46 260.198V329.004C2236 335.634 2241.2 339.576 2251.05 340.83L2250.25 356.688C2236.09 356.688 2225.43 353.104 2218.26 345.937C2202.14 353.104 2186.01 356.688 2169.88 356.688C2157.52 356.688 2148.11 353.194 2141.66 346.206C2135.21 339.217 2131.99 329.183 2131.99 316.103C2131.99 303.022 2135.3 293.436 2141.93 287.344C2148.56 281.072 2158.95 277.22 2173.11 275.787L2215.31 271.755V260.198C2215.31 251.059 2213.33 244.519 2209.39 240.577C2205.45 236.635 2200.08 234.664 2193.27 234.664C2178.93 234.664 2164.06 235.56 2148.65 237.352L2140.32 238.158L2139.51 222.838C2159.22 218.896 2176.69 216.925 2191.92 216.925C2207.15 216.925 2218.17 220.419 2224.98 227.407C2231.97 234.395 2235.46 245.325 2235.46 260.198ZM2152.68 315.028C2152.68 331.513 2159.49 339.755 2173.11 339.755C2185.29 339.755 2197.3 337.694 2209.12 333.573L2215.31 331.423V287.075L2175.53 290.838C2167.46 291.555 2161.64 293.884 2158.06 297.826C2154.47 301.768 2152.68 307.502 2152.68 315.028ZM2301.04 237.083V354H2280.88V237.083H2263.95V219.613H2280.88V207.518C2280.88 188.524 2283.57 175.623 2288.94 168.814C2294.32 161.826 2303.73 158.332 2317.17 158.332L2344.31 160.213L2344.04 176.877C2334.01 176.519 2325.68 176.34 2319.05 176.34C2312.6 176.34 2307.94 178.49 2305.07 182.79C2302.38 187.091 2301.04 195.423 2301.04 207.786V219.613H2340.01V237.083H2301.04Z" fill="#282728"/>
<g clip-path="url(#clip2_45_27)">
<mask id="mask0_45_27" style="mask-type:alpha" maskUnits="userSpaceOnUse" x="128" y="40" width="615" height="615">
<circle cx="435.5" cy="347.487" r="306.904" fill="#70B5EC"/>
</mask>
<g mask="url(#mask0_45_27)">
<rect x="125.835" y="39.6632" width="616.569" height="614.728" fill="#70B5EC"/>
<circle cx="681.396" cy="292.561" r="95.3639" fill="#3F9AE0"/>
<circle cx="574.403" cy="309.618" r="37.9905" fill="#176FC9" fill-opacity="0.8"/>
<circle cx="352.662" cy="125.093" r="36.4398" fill="#3B92E1"/>
<circle cx="258.849" cy="273.178" r="23.2595" fill="#0782D5" fill-opacity="0.6"/>
<circle cx="242.568" cy="376.295" r="69.0031" fill="#97CBF3" fill-opacity="0.8"/>
<circle cx="296.84" cy="304.966" r="37.9905" fill="#3E90DD" fill-opacity="0.6"/>
<circle cx="188.295" cy="483.289" r="48.8449" fill="#519BD1" fill-opacity="0.8"/>
<circle cx="458.88" cy="606.564" r="34.1139" fill="#3A9DE2"/>
</g>
</g>
<g clip-path="url(#clip3_45_27)">
<path d="M674.613 336.866C668.918 300.532 639.03 271.737 600.915 276.159L595.085 277.149C588.619 277.872 578.881 280.798 567.525 284.356L567.372 263.991L567.31 256.165C555.08 226.371 492.385 210.83 432.762 210.83C373.14 210.83 310.449 226.371 298.214 256.161L296.082 537.889C296.089 574.113 366.508 593.655 432.762 593.655C499.012 593.655 569.435 574.113 569.447 537.889L569.17 501.18C604.681 500.95 623.409 490.737 628.322 488.293C676.983 468.487 683.515 393.611 674.613 336.866ZM567.989 345.335L576.358 341.399C586.395 337.532 599.78 334.368 608.229 339.161C615.105 343.067 618.641 352.396 618.733 366.897L618.787 373.002C618.964 391.741 619.063 402.065 613.625 414.462L612.367 417.388C606.79 430.504 601.924 441.926 568.714 441.142L567.989 345.335Z" fill="white"/>
<path d="M539.873 270.375C539.344 267.912 538.178 265.758 536.813 264.037C533.998 260.613 530.619 258.555 527.286 256.819C520.49 253.579 513.548 251.666 506.514 250.324L506.161 251.414C512.547 254.455 518.963 257.546 524.248 261.692C526.879 263.689 529.265 265.995 530.527 268.382C531.858 270.78 531.831 272.72 530.86 274.758C530.147 276.273 528.786 277.738 527.159 279.1C516.332 266.561 478.099 257.297 432.594 257.297C387.066 257.297 348.817 266.573 338.013 279.119C336.375 277.757 335.002 276.281 334.293 274.758C333.326 272.72 333.295 270.78 334.626 268.382C335.892 265.999 338.274 263.692 340.905 261.692C346.189 257.546 352.606 254.455 358.992 251.414L358.639 250.324C351.605 251.666 344.667 253.579 337.867 256.819C334.534 258.555 331.155 260.613 328.336 264.037C326.975 265.758 325.801 267.912 325.276 270.375C324.731 272.831 324.919 275.462 325.59 277.753C328.256 285.568 333.192 290.885 338.814 294.438C350.577 306.552 388.097 315.419 432.598 315.419C477.178 315.419 514.752 306.522 526.442 294.373C532.019 290.82 536.916 285.526 539.566 277.757C540.23 275.458 540.418 272.827 539.873 270.375Z" fill="black"/>
<path d="M674.613 336.866C668.918 300.532 639.03 271.737 600.915 276.158L595.085 277.149C588.619 277.872 578.881 280.798 567.525 284.356L567.372 263.991L567.31 256.165C555.08 226.371 492.385 210.83 432.762 210.83C373.14 210.83 310.449 226.371 298.214 256.161L296.082 537.889C296.089 574.113 366.508 593.655 432.762 593.655C499.012 593.655 569.435 574.113 569.447 537.889L569.171 501.18C604.681 500.95 623.409 490.737 628.322 488.293C676.983 468.487 683.515 393.611 674.613 336.866ZM567.989 345.335L576.358 341.399C586.395 337.532 599.78 334.368 608.229 339.161C615.105 343.067 618.641 352.396 618.733 366.897L618.787 373.002C618.964 391.741 619.063 402.065 613.625 414.462L612.367 417.388C606.79 430.504 601.924 441.926 568.714 441.142L567.989 345.335ZM554.106 537.885C554.102 556.988 502.207 578.355 432.762 578.355C363.317 578.355 311.427 556.988 311.423 537.889V265.907L311.569 264.966C314.445 246.212 363.831 226.13 432.762 226.13C501.693 226.13 551.087 246.212 553.964 264.966L554.106 265.728V537.885V537.885ZM622.415 473.555L621.836 473.815C613.157 478.164 589.762 486.071 569.059 486.427L568.829 456.472C609.985 456.553 620.494 437.466 626.488 423.359L627.677 420.593C634.435 405.193 634.308 392.33 634.128 372.856L634.074 366.797C633.944 346.437 627.796 332.666 615.815 325.861C600.355 317.091 580.116 323.039 567.859 328.264L567.648 300.379C581.175 296.022 592.002 292.989 595.879 292.465L600.692 291.662C622.726 286.999 653.646 302.184 659.456 339.234C667.502 390.543 659.632 458.634 622.415 473.555Z" fill="black"/>
<path d="M365.884 193.345C370.244 183.411 370.591 172.207 365.09 164.361C363.819 162.426 361.947 160.636 360.248 157.952C358.614 155.493 357.193 152.786 356.222 149.826C354.219 143.896 354.731 136.982 357.069 131.342C359.342 125.763 363.318 120.838 366.361 117.049C368.908 113.653 370.202 108.74 370.768 103.864C371.689 93.8994 369.52 83.3801 365.248 73.3999C372.544 81.5561 377.125 92.5113 377.387 104.105C377.506 109.921 376.416 115.932 372.976 121.588C372.117 122.976 371.2 124.008 370.487 125.002C369.724 126.035 368.996 127.063 368.311 128.107C366.958 130.199 365.776 132.325 364.94 134.485C363.071 138.76 362.74 143.192 363.915 147.59C364.451 149.8 365.391 151.995 366.577 154.117C367.617 156.09 369.428 158.323 370.818 161.103C373.638 166.483 374.428 172.8 373.326 178.467C372.167 184.13 369.609 189.307 365.884 193.345Z" fill="black"/>
<path d="M499.579 193.345C495.846 189.303 493.288 184.13 492.136 178.467C491.038 172.8 491.82 166.494 494.648 161.103C496.038 158.323 497.837 156.094 498.885 154.121C500.075 151.998 501.008 149.8 501.547 147.593C502.737 143.192 502.391 138.76 500.53 134.489C499.686 132.325 498.508 130.199 497.159 128.107C496.466 127.063 495.745 126.035 494.979 125.002C494.27 124.016 493.345 122.979 492.494 121.588C489.046 115.936 487.956 109.929 488.079 104.105C488.341 92.5074 492.926 81.5599 500.222 73.4037C495.95 83.38 493.773 93.8993 494.705 103.868C495.256 108.743 496.554 113.657 499.109 117.049C502.156 120.834 506.127 125.763 508.408 131.342C510.746 136.982 511.266 143.903 509.244 149.826C508.281 152.79 506.859 155.489 505.226 157.952C503.535 160.636 501.651 162.426 500.38 164.357C494.863 172.207 495.214 183.422 499.579 193.345Z" fill="black"/>
<path d="M435.853 183.147C441.142 168.72 439.725 153.123 433.553 140.122C430.152 133.48 426.966 125.966 425.09 118.173C423.202 110.326 423.114 101.738 424.966 93.7463C426.866 85.8158 430.452 78.4358 433.8 71.8015C437.132 65.1595 439.744 58.334 441.343 51.2867C444.54 37.1195 441.847 22.004 437.159 7.45435C445.026 20.4706 450.122 36.2821 447.869 52.3918C446.913 60.3836 444.159 67.97 441.096 75.1397C437.81 82.2023 434.775 88.6989 433.237 95.6544C429.632 109.405 433.896 123.553 439.659 137.613C445.407 152.56 444.444 170.226 435.853 183.147Z" fill="black"/>
</g>
</g>
</g>
<defs>
<linearGradient id="paint0_linear_45_27" x1="2601.94" y1="1139.85" x2="3042.25" y2="1328.07" gradientUnits="userSpaceOnUse">
<stop stop-color="white"/>
<stop offset="1" stop-color="white"/>
</linearGradient>
<radialGradient id="paint1_radial_45_27" cx="0" cy="0" r="1" gradientUnits="userSpaceOnUse" gradientTransform="translate(202.161 661.136) scale(1343.73 1165.73)">
<stop stop-color="#CED5DB"/>
<stop offset="0.17" stop-color="#DFE3E7"/>
<stop offset="0.41" stop-color="#F0F2F4"/>
<stop offset="0.67" stop-color="#FBFCFC"/>
<stop offset="0.96" stop-color="white"/>
</radialGradient>
<radialGradient id="paint2_radial_45_27" cx="0" cy="0" r="1" gradientUnits="userSpaceOnUse" gradientTransform="translate(2742.15 -15303.8) scale(1343.73 1165.73)">
<stop stop-color="#CED5DB"/>
<stop offset="0.17" stop-color="#DFE3E7"/>
<stop offset="0.41" stop-color="#F0F2F4"/>
<stop offset="0.67" stop-color="#FBFCFC"/>
<stop offset="0.96" stop-color="white"/>
</radialGradient>
<linearGradient id="paint3_linear_45_27" x1="1470.16" y1="1636.06" x2="1470.16" y2="-732.861" gradientUnits="userSpaceOnUse">
<stop stop-color="#CED5DB"/>
<stop offset="0.2" stop-color="#D6DCE1" stop-opacity="0.82"/>
<stop offset="0.63" stop-color="#EDEFF1" stop-opacity="0.36"/>
<stop offset="0.96" stop-color="white" stop-opacity="0"/>
</linearGradient>
<radialGradient id="paint4_radial_45_27" cx="0" cy="0" r="1" gradientUnits="userSpaceOnUse" gradientTransform="translate(1477.32 -130.013) scale(2898.74 2094.93)">
<stop stop-color="#CED5DB"/>
<stop offset="0.6" stop-color="#ECEEF1" stop-opacity="0.57"/>
<stop offset="1" stop-color="white" stop-opacity="0.3"/>
</radialGradient>
<clipPath id="clip0_45_27">
<rect width="2938.72" height="675" fill="white"/>
</clipPath>
<clipPath id="clip1_45_27">
<rect width="2940" height="1653" fill="white" transform="translate(0 -249)"/>
</clipPath>
<clipPath id="clip2_45_27">
<rect width="613.808" height="613.808" fill="white" transform="translate(128.596 40.5834)"/>
</clipPath>
<clipPath id="clip3_45_27">
<rect width="387.426" height="724.238" fill="white" transform="translate(296.082 7.45435)"/>
</clipPath>
</defs>
</svg>
