<svg width="357" height="82" viewBox="0 0 357 82" fill="none" xmlns="http://www.w3.org/2000/svg">
<g clip-path="url(#clip0_1_65)">
<rect width="357" height="82" fill="white"/>
<path d="M0 -1.54305e-05H82.4533V82.4533H0V-1.54305e-05Z" fill="#F5DE17"/>
<path d="M112.787 66.4389C112.787 68.0682 112.603 69.6002 112.237 71.0362C111.87 72.4736 111.231 73.7269 110.321 74.7962C109.411 75.8656 108.182 76.7123 106.634 77.3349C105.085 77.9576 103.13 78.2682 100.767 78.2682C98.5953 78.2682 96.7287 78.0056 95.1647 77.4776C93.5993 76.9509 92.3073 76.3376 91.286 75.6336L93.7754 69.8403C94.702 70.3829 95.6913 70.8616 96.7447 71.2762C97.798 71.6909 98.9473 71.8989 100.193 71.8989C102.013 71.8989 103.321 71.4522 104.119 70.5576C104.918 69.6642 105.317 68.1629 105.317 66.0562V44.4109H112.787V66.4389Z" fill="#043642"/>
<path d="M128.495 71.8985C129.548 71.8985 130.418 71.8118 131.106 71.6358C131.791 71.4598 132.342 71.2212 132.758 70.9172C133.171 70.6145 133.459 70.2558 133.619 69.8398C133.778 69.4252 133.858 68.9625 133.858 68.4505C133.858 67.3665 133.347 66.4638 132.326 65.7452C131.303 65.0265 129.548 64.2532 127.058 63.4225C125.972 63.0385 124.887 62.5998 123.802 62.1052C122.716 61.6105 121.743 60.9878 120.88 60.2385C120.019 59.4878 119.316 58.5785 118.774 57.5078C118.23 56.4385 117.959 55.1385 117.959 53.6052C117.959 52.0732 118.246 50.6918 118.822 49.4625C119.396 48.2345 120.21 47.1878 121.264 46.3252C122.318 45.4638 123.594 44.8025 125.095 44.3385C126.595 43.8758 128.287 43.6452 130.171 43.6452C132.406 43.6452 134.338 43.8825 135.966 44.3625C137.594 44.8412 138.935 45.3692 139.988 45.9425L137.834 51.8332C136.907 51.3545 135.878 50.9305 134.744 50.5638C133.611 50.1985 132.246 50.0132 130.65 50.0132C128.862 50.0132 127.578 50.2598 126.795 50.7558C126.012 51.2518 125.622 52.0092 125.622 53.0305C125.622 53.6372 125.766 54.1478 126.052 54.5625C126.34 54.9785 126.747 55.3531 127.274 55.6891C127.8 56.0238 128.407 56.3265 129.094 56.5971C129.779 56.8705 130.538 57.1478 131.368 57.4358C133.092 58.0758 134.592 58.7052 135.87 59.3278C137.147 59.9505 138.208 60.6772 139.054 61.5065C139.9 62.3372 140.531 63.3118 140.946 64.4278C141.36 65.5451 141.568 66.9025 141.568 68.4985C141.568 71.5945 140.483 73.9985 138.312 75.7052C136.14 77.4145 132.868 78.2678 128.495 78.2678C127.026 78.2678 125.7 78.1798 124.52 78.0051C123.339 77.8291 122.294 77.6132 121.383 77.3585C120.474 77.1025 119.691 76.8318 119.036 76.5438C118.382 76.2572 117.831 75.9852 117.384 75.7305L119.492 69.7918C120.48 70.3345 121.702 70.8212 123.155 71.2532C124.607 71.6838 126.387 71.8985 128.495 71.8985" fill="#043642"/>
<path d="M173.622 45.0588V47.8841H162.99V78.2468H159.734V47.8841H149.102V45.0588H173.622Z" fill="#043642"/>
<path d="M192.706 48.7944C191.505 51.5504 190.335 54.3477 189.197 57.1851C188.058 60.0237 186.881 63.0851 185.662 66.3691H199.827C198.602 63.0811 197.409 60.0144 196.249 57.1731C195.087 54.3304 193.906 51.5384 192.706 48.7944M204.126 78.2464C203.493 76.6157 202.911 75.0477 202.379 73.5437C201.846 72.0397 201.339 70.5731 200.854 69.1477H184.641C184.087 70.5811 183.545 72.0491 183.015 73.5557C182.485 75.0611 181.925 76.6251 181.333 78.2464H177.931C179.193 74.7904 180.382 71.5717 181.503 68.5877C182.625 65.6037 183.725 62.7811 184.802 60.1184C185.879 57.4557 186.95 54.8984 188.013 52.4424C189.075 49.9891 190.191 47.5277 191.363 45.0584H194.234C195.405 47.5157 196.515 49.9744 197.567 52.4331C198.618 54.8931 199.683 57.4531 200.765 60.1144C201.846 62.7744 202.942 65.5997 204.053 68.5877C205.163 71.5757 206.386 74.7944 207.719 78.2464H204.126Z" fill="#043642"/>
<path d="M240.523 78.2462C239.907 77.1355 239.134 75.8262 238.204 74.3169C237.274 72.8076 236.24 71.2062 235.104 69.5102C233.967 67.8169 232.78 66.0636 231.544 64.2542C230.307 62.4449 229.076 60.6849 227.851 58.9742C226.624 57.2649 225.426 55.6622 224.252 54.1662C223.079 52.6702 222.038 51.3796 221.128 50.2902V78.2462H217.919V45.0582H220.506C222.135 46.8769 223.882 48.9782 225.743 51.3609C227.606 53.7435 229.43 56.1716 231.219 58.6449C233.008 61.1182 234.678 63.5355 236.228 65.8955C237.779 68.2582 239.051 70.3156 240.044 72.0676V45.0582H243.252V78.2462H240.523Z" fill="#043642"/>
<path d="M260.589 62.2982V75.4209C261.067 75.4849 261.786 75.5556 262.743 75.6356C263.701 75.7156 264.674 75.7556 265.665 75.7556C267.133 75.7556 268.562 75.6595 269.951 75.4675C271.339 75.2742 272.561 74.9222 273.615 74.4102C274.669 73.8969 275.514 73.1929 276.153 72.2956C276.791 71.3982 277.11 70.2449 277.11 68.8342C277.11 67.5529 276.887 66.4889 276.441 65.6382C275.993 64.7902 275.354 64.1169 274.525 63.6209C273.694 63.1236 272.681 62.7796 271.483 62.5876C270.286 62.3942 268.953 62.2982 267.485 62.2982H260.589ZM260.589 59.5209H266.91C268.09 59.5209 269.209 59.4342 270.262 59.2596C271.315 59.0836 272.233 58.7662 273.015 58.3049C273.798 57.8436 274.413 57.2236 274.859 56.4449C275.306 55.6649 275.53 54.6716 275.53 53.4622C275.53 52.3822 275.29 51.4676 274.811 50.7196C274.333 49.9742 273.654 49.3622 272.777 48.8836C271.898 48.4076 270.853 48.0649 269.639 47.8596C268.426 47.6529 267.086 47.5476 265.617 47.5476C264.435 47.5476 263.438 47.5809 262.623 47.6449C261.81 47.7089 261.131 47.7876 260.589 47.8836V59.5209ZM265.282 78.5329C264.738 78.5329 264.109 78.5089 263.39 78.4609C262.671 78.4129 261.937 78.3489 261.187 78.2702C260.437 78.1902 259.727 78.0956 259.057 77.9822C258.386 77.8716 257.811 77.7516 257.333 77.6222V45.6809C257.907 45.5209 258.545 45.3849 259.247 45.2729C259.95 45.1622 260.675 45.0662 261.426 44.9876C262.177 44.9076 262.911 44.8516 263.63 44.8196C264.347 44.7876 265.01 44.7702 265.617 44.7702C267.405 44.7702 269.105 44.9142 270.717 45.2009C272.329 45.4889 273.742 45.9662 274.955 46.6356C276.169 47.3049 277.134 48.1902 277.853 49.2902C278.571 50.3889 278.93 51.7529 278.93 53.3782C278.93 55.1635 278.475 56.6862 277.565 57.9436C276.655 59.2036 275.434 60.0716 273.902 60.5502C274.859 60.7742 275.737 61.0942 276.535 61.5089C277.334 61.9262 278.035 62.4609 278.643 63.1156C279.249 63.7716 279.721 64.5702 280.055 65.5129C280.391 66.4569 280.559 67.5836 280.559 68.8942C280.559 72.0276 279.313 74.4182 276.823 76.0636C274.333 77.7102 270.485 78.5329 265.282 78.5329" fill="#043642"/>
<path d="M304.934 78.9637C302.731 78.9637 300.855 78.629 299.307 77.9584C297.758 77.2877 296.506 76.3624 295.547 75.181C294.59 73.9997 293.895 72.6184 293.464 71.0384C293.034 69.4584 292.818 67.7584 292.818 65.937V45.0583H296.074V65.5063C296.074 67.3263 296.29 68.8997 296.72 70.2237C297.152 71.549 297.75 72.6423 298.516 73.5037C299.283 74.3663 300.208 75.005 301.294 75.421C302.379 75.8357 303.592 76.0437 304.934 76.0437C306.275 76.0437 307.488 75.8357 308.572 75.421C309.658 75.005 310.585 74.3663 311.351 73.5037C312.118 72.6423 312.715 71.549 313.147 70.2237C313.578 68.8997 313.794 67.3263 313.794 65.5063V45.0583H317.05V65.937C317.05 67.7584 316.834 69.4584 316.403 71.0384C315.973 72.6184 315.278 73.9997 314.32 75.181C313.362 76.3624 312.108 77.2877 310.56 77.9584C309.012 78.629 307.136 78.9637 304.934 78.9637" fill="#043642"/>
<path d="M349.854 75.4206V78.246H330.986V45.0593H334.242V75.4206H349.854Z" fill="#043642"/>
<path d="M51.0166 69.2189C48.2072 69.8456 45.3979 70.4696 42.5885 71.0949C42.5312 70.9309 42.4739 70.7656 42.4179 70.6016C44.7579 69.3536 47.0992 68.1056 49.4792 66.8362C45.7379 61.2869 42.1419 60.0309 36.5152 62.5802C31.0712 65.0482 25.8139 67.9282 20.4739 70.6282C19.9699 70.8816 19.4646 71.1336 18.6659 71.0443C19.0739 70.6616 19.4405 70.2162 19.8979 69.9056C26.7179 65.2576 33.4779 60.4976 41.2205 57.4402C42.7152 56.8509 44.3032 56.4829 45.8659 56.0856C48.1739 55.5002 50.0272 55.8749 51.6325 57.9976C52.7512 59.4749 54.5672 60.4243 56.2406 61.7429C58.7086 55.7456 63.1072 51.7802 67.6859 47.9802C68.4725 47.3282 69.3845 46.8069 70.2939 46.3336C72.4499 45.2109 74.1899 45.9162 75.0285 48.1896C75.8272 50.3509 75.0312 51.4336 72.7472 51.4176C71.3952 51.4109 69.9645 51.3016 68.7125 51.6922C67.5112 52.0696 66.1725 52.8029 65.4659 53.7909C63.9872 55.8536 63.3192 58.2816 63.6579 60.9602C66.4885 61.1562 68.4992 62.3229 69.7992 64.8416C70.3019 65.8162 71.4859 66.4403 72.4219 67.2803C72.0792 67.4776 71.9339 67.6069 71.8925 67.5802C69.2419 65.8376 67.0219 66.6242 64.5139 68.2509C61.2165 70.3909 57.4699 71.4416 53.4272 70.5016C53.1072 70.4269 52.7126 70.5482 52.3832 70.6669C50.6152 71.3042 48.8566 71.9696 46.9579 72.3269C47.4019 69.7962 49.6726 70.4136 51.0166 69.2189" fill="#043642"/>
</g>
<defs>
<clipPath id="clip0_1_65">
<rect width="357" height="82" fill="white"/>
</clipPath>
</defs>
</svg>
