<svg width="440" height="160" viewBox="0 0 440 160" fill="none" xmlns="http://www.w3.org/2000/svg">
<g clip-path="url(#clip0_1_12)">
<path d="M440 0H0V160H440V0Z" fill="white"/>
<path d="M78.625 82.0552C78.625 75.2876 79.5332 68.8716 81.3496 62.8071C83.166 56.7134 85.832 51.2788 89.3477 46.5034C92.8633 41.6987 96.584 38.3296 100.51 36.396L102.619 42.6362C98.4883 45.771 95.1338 50.561 92.5557 57.0063C90.0068 63.4224 88.6152 70.7759 88.3809 79.0669L88.3369 82.8462C88.3369 91.7231 89.582 99.6479 92.0723 106.621C94.5918 113.564 98.1074 118.852 102.619 122.485L100.51 128.417C96.584 126.484 92.8486 123.1 89.3037 118.266C85.7881 113.461 83.1221 108.042 81.3057 102.006C79.5186 95.9419 78.625 89.2915 78.625 82.0552Z" fill="#152A35" fill-opacity="0.8"/>
<path d="M46.875 80.6722C46.875 72.4007 47.985 64.5589 50.2051 57.1468C52.4251 49.6989 55.6836 43.0566 59.9805 37.22C64.2773 31.3476 68.8249 27.2298 73.623 24.8665L76.2012 32.4935C71.1523 36.3248 67.0524 42.1793 63.9014 50.0569C60.7861 57.8987 59.0853 66.8864 58.7988 77.0198L58.7451 81.639C58.7451 92.4886 60.2669 102.174 63.3105 110.697C66.39 119.183 70.6868 125.646 76.2012 130.086L73.623 137.337C68.8249 134.974 64.2594 130.838 59.9268 124.93C55.6299 119.058 52.3714 112.433 50.1514 105.057C47.9671 97.6448 46.875 89.5166 46.875 80.6722Z" fill="#152A35" fill-opacity="0.7"/>
<path d="M8.75 80.5312C8.75 70.0039 10.1628 60.0234 12.9883 50.5898C15.8138 41.1107 19.9609 32.6569 25.4297 25.2285C30.8984 17.7546 36.6862 12.5137 42.793 9.50586L46.0742 19.2129C39.6484 24.0892 34.4303 31.5404 30.4199 41.5664C26.4551 51.5469 24.2904 62.9857 23.9258 75.8828L23.8574 81.7617C23.8574 95.5703 25.7943 107.898 29.668 118.744C33.5872 129.545 39.056 137.771 46.0742 143.422L42.793 152.65C36.6862 149.643 30.8757 144.379 25.3613 136.859C19.8926 129.385 15.7454 120.954 12.9199 111.566C10.14 102.133 8.75 91.7878 8.75 80.5312Z" fill="#152A35" fill-opacity="0.6"/>
<path d="M133.585 103.826C129.75 103.826 126.403 102.947 123.544 101.189C120.686 99.4311 118.466 96.9719 116.886 93.8114C115.306 90.6509 114.516 86.9577 114.516 82.7319C114.516 78.4883 115.306 74.7773 116.886 71.5991C118.466 68.4208 120.686 65.9528 123.544 64.195C126.403 62.4371 129.75 61.5582 133.585 61.5582C137.42 61.5582 140.767 62.4371 143.626 64.195C146.485 65.9528 148.704 68.4208 150.284 71.5991C151.865 74.7773 152.655 78.4883 152.655 82.7319C152.655 86.9577 151.865 90.6509 150.284 93.8114C148.704 96.9719 146.485 99.4311 143.626 101.189C140.767 102.947 137.42 103.826 133.585 103.826ZM133.612 97.1406C136.098 97.1406 138.157 96.4837 139.791 95.1697C141.424 93.8558 142.632 92.1069 143.413 89.9229C144.212 87.739 144.612 85.3331 144.612 82.7053C144.612 80.0952 144.212 77.6982 143.413 75.5142C142.632 73.3125 141.424 71.5458 139.791 70.2141C138.157 68.8825 136.098 68.2166 133.612 68.2166C131.108 68.2166 129.031 68.8825 127.38 70.2141C125.746 71.5458 124.53 73.3125 123.731 75.5142C122.95 77.6982 122.559 80.0952 122.559 82.7053C122.559 85.3331 122.95 87.739 123.731 89.9229C124.53 92.1069 125.746 93.8558 127.38 95.1697C129.031 96.4837 131.108 97.1406 133.612 97.1406ZM157.794 118.341V62.0909H165.571V68.7227H166.237C166.698 67.8704 167.364 66.8849 168.234 65.7663C169.104 64.6477 170.312 63.6712 171.856 62.8366C173.401 61.9844 175.443 61.5582 177.982 61.5582C181.285 61.5582 184.232 62.3928 186.824 64.0618C189.417 65.7308 191.45 68.1367 192.923 71.2795C194.415 74.4222 195.161 78.2042 195.161 82.6254C195.161 87.0465 194.424 90.8374 192.95 93.9979C191.476 97.1406 189.452 99.5643 186.878 101.269C184.303 102.956 181.364 103.799 178.062 103.799C175.576 103.799 173.543 103.382 171.963 102.547C170.4 101.713 169.175 100.736 168.287 99.6175C167.4 98.4989 166.716 97.5046 166.237 96.6346H165.757V118.341H157.794ZM165.597 82.5455C165.597 85.4219 166.015 87.9432 166.849 90.1094C167.684 92.2756 168.891 93.9712 170.471 95.1964C172.052 96.4038 173.987 97.0075 176.277 97.0075C178.657 97.0075 180.645 96.3771 182.243 95.1165C183.841 93.8381 185.049 92.1069 185.866 89.9229C186.7 87.739 187.117 85.2798 187.117 82.5455C187.117 79.8466 186.709 77.4229 185.892 75.2745C185.093 73.1261 183.886 71.4304 182.27 70.1875C180.672 68.9446 178.674 68.3232 176.277 68.3232C173.969 68.3232 172.016 68.918 170.418 70.1076C168.838 71.2972 167.639 72.9574 166.823 75.0881C166.006 77.2187 165.597 79.7045 165.597 82.5455ZM217.964 103.826C213.934 103.826 210.462 102.964 207.551 101.242C204.656 99.5021 202.419 97.0607 200.839 93.918C199.276 90.7575 198.495 87.0554 198.495 82.8118C198.495 78.6214 199.276 74.9283 200.839 71.7322C202.419 68.5362 204.621 66.0415 207.444 64.2482C210.285 62.4549 213.605 61.5582 217.405 61.5582C219.713 61.5582 221.95 61.94 224.117 62.7035C226.283 63.467 228.227 64.6655 229.949 66.299C231.672 67.9325 233.03 70.0543 234.024 72.6644C235.019 75.2567 235.516 78.4084 235.516 82.1193V84.9425H202.996V78.9766H227.712C227.712 76.8814 227.286 75.0259 226.434 73.4102C225.581 71.7766 224.383 70.4893 222.838 69.5483C221.311 68.6072 219.518 68.1367 217.458 68.1367C215.221 68.1367 213.268 68.6871 211.599 69.788C209.948 70.8711 208.669 72.2915 207.764 74.0494C206.876 75.7894 206.432 77.6804 206.432 79.7223V84.3832C206.432 87.1175 206.911 89.4435 207.87 91.3612C208.847 93.2788 210.205 94.7436 211.945 95.7557C213.685 96.75 215.718 97.2472 218.044 97.2472C219.553 97.2472 220.929 97.0341 222.172 96.608C223.415 96.1641 224.489 95.5071 225.395 94.6371C226.301 93.767 226.993 92.6928 227.472 91.4144L235.01 92.7727C234.406 94.9922 233.323 96.9364 231.76 98.6055C230.216 100.257 228.271 101.544 225.928 102.467C223.602 103.373 220.947 103.826 217.964 103.826ZM248.565 78.7102V103H240.601V62.0909H248.245V68.7493H248.751C249.692 66.5831 251.166 64.843 253.172 63.5291C255.197 62.2152 257.744 61.5582 260.816 61.5582C263.604 61.5582 266.045 62.1442 268.14 63.3161C270.236 64.4702 271.86 66.1925 273.014 68.483C274.169 70.7734 274.746 73.6055 274.746 76.979V103H266.782V77.9379C266.782 74.9727 266.01 72.6555 264.465 70.9865C262.92 69.2997 260.798 68.4563 258.1 68.4563C256.253 68.4563 254.611 68.8558 253.172 69.6548C251.752 70.4538 250.624 71.6257 249.79 73.1705C248.973 74.6974 248.565 76.544 248.565 78.7102ZM298.694 103.852C294.859 103.852 291.557 102.947 288.787 101.136C286.017 99.3246 283.886 96.8299 282.395 93.6516C280.903 90.4734 280.157 86.8423 280.157 82.7585C280.157 78.6037 280.921 74.9371 282.448 71.7589C283.993 68.5629 286.141 66.0682 288.893 64.2749C291.663 62.4638 294.895 61.5582 298.588 61.5582C301.464 61.5582 304.057 62.0909 306.365 63.1562C308.673 64.2216 310.564 65.7131 312.038 67.6307C313.512 69.5483 314.426 71.7855 314.781 74.3423H308.496C308.016 72.478 306.951 70.8267 305.3 69.3885C303.666 67.9325 301.464 67.2045 298.694 67.2045C296.244 67.2045 294.096 67.8437 292.249 69.1222C290.42 70.3828 288.991 72.1673 287.961 74.4755C286.949 76.766 286.443 79.456 286.443 82.5455C286.443 85.706 286.94 88.4581 287.934 90.8018C288.947 93.1456 290.367 94.9656 292.196 96.2617C294.042 97.5579 296.209 98.206 298.694 98.206C300.328 98.206 301.811 97.9219 303.142 97.3537C304.474 96.7855 305.601 95.9688 306.525 94.9034C307.448 93.8381 308.105 92.5597 308.496 91.0682H314.781C314.426 93.483 313.547 95.658 312.144 97.5934C310.759 99.511 308.922 101.038 306.631 102.174C304.358 103.293 301.713 103.852 298.694 103.852ZM332.258 103.959C329.666 103.959 327.313 103.471 325.2 102.494C323.087 101.5 321.409 100.07 320.166 98.206C318.923 96.3239 318.302 94.0511 318.302 91.3878C318.302 89.044 318.764 87.1442 319.687 85.6882C320.61 84.2145 321.844 83.0604 323.389 82.2259C324.934 81.3913 326.638 80.7699 328.503 80.3615C330.385 79.9354 332.276 79.598 334.176 79.3494C336.661 79.0298 338.677 78.7901 340.221 78.6303C341.784 78.4528 342.92 78.1598 343.631 77.7514C344.358 77.343 344.722 76.6328 344.722 75.6207V75.4077C344.722 72.7798 344.003 70.7379 342.565 69.282C341.145 67.826 338.987 67.098 336.093 67.098C333.093 67.098 330.74 67.755 329.035 69.0689C327.331 70.3828 326.132 71.7855 325.44 73.277L319.474 71.1463C320.539 68.6605 321.96 66.7251 323.735 65.3402C325.529 63.9375 327.482 62.9609 329.595 62.4105C331.725 61.8423 333.82 61.5582 335.88 61.5582C337.194 61.5582 338.703 61.718 340.408 62.0376C342.13 62.3395 343.79 62.9698 345.388 63.9286C347.004 64.8874 348.345 66.3345 349.41 68.2699C350.475 70.2053 351.008 72.7976 351.008 76.0469V103H344.722V97.4602H344.403C343.977 98.348 343.267 99.2979 342.272 100.31C341.278 101.322 339.955 102.183 338.304 102.893C336.653 103.604 334.637 103.959 332.258 103.959ZM333.217 98.3125C335.703 98.3125 337.798 97.8242 339.502 96.8477C341.225 95.8711 342.521 94.6104 343.391 93.0657C344.279 91.521 344.722 89.8963 344.722 88.1918V82.4389C344.456 82.7585 343.87 83.0515 342.965 83.3178C342.077 83.5664 341.047 83.7884 339.875 83.9837C338.721 84.1612 337.594 84.321 336.493 84.4631C335.41 84.5874 334.531 84.6939 333.856 84.7827C332.222 84.9957 330.695 85.342 329.275 85.8214C327.872 86.283 326.736 86.9844 325.866 87.9254C325.014 88.8487 324.588 90.1094 324.588 91.7074C324.588 93.8913 325.395 95.5426 327.011 96.6612C328.645 97.7621 330.713 98.3125 333.217 98.3125ZM387.708 71.2528L382.061 72.8509C381.706 71.9098 381.182 70.9954 380.49 70.1076C379.815 69.2021 378.892 68.4563 377.72 67.8704C376.548 67.2844 375.048 66.9915 373.219 66.9915C370.715 66.9915 368.629 67.5685 366.96 68.7227C365.309 69.859 364.483 71.3061 364.483 73.0639C364.483 74.6264 365.051 75.8604 366.188 76.766C367.324 77.6715 369.1 78.4261 371.514 79.0298L377.587 80.5213C381.245 81.4091 383.97 82.7674 385.763 84.5962C387.557 86.4073 388.453 88.7422 388.453 91.6009C388.453 93.9446 387.779 96.0398 386.429 97.8864C385.098 99.733 383.233 101.189 380.836 102.254C378.439 103.32 375.652 103.852 372.473 103.852C368.301 103.852 364.847 102.947 362.113 101.136C359.378 99.3246 357.647 96.679 356.919 93.1989L362.885 91.7074C363.453 93.9091 364.528 95.5604 366.108 96.6612C367.706 97.7621 369.792 98.3125 372.367 98.3125C375.296 98.3125 377.622 97.6911 379.345 96.4482C381.085 95.1875 381.955 93.6783 381.955 91.9205C381.955 90.5 381.458 89.3104 380.463 88.3516C379.469 87.375 377.942 86.647 375.882 86.1676L369.064 84.5696C365.318 83.6818 362.566 82.3058 360.808 80.4414C359.068 78.5593 358.198 76.2067 358.198 73.3835C358.198 71.0753 358.846 69.0334 360.142 67.2578C361.456 65.4822 363.24 64.0884 365.495 63.0763C367.768 62.0643 370.343 61.5582 373.219 61.5582C377.267 61.5582 380.446 62.446 382.754 64.2216C385.08 65.9972 386.731 68.3409 387.708 71.2528ZM411.956 62.0909V67.4176H390.756V62.0909H411.956ZM396.935 52.2898H403.22V91.2812C403.22 93.0568 403.478 94.3885 403.993 95.2763C404.525 96.1463 405.2 96.7322 406.017 97.0341C406.851 97.3182 407.73 97.4602 408.654 97.4602C409.346 97.4602 409.914 97.4247 410.358 97.3537C410.802 97.2649 411.157 97.1939 411.423 97.1406L412.702 102.787C412.276 102.947 411.681 103.107 410.917 103.266C410.154 103.444 409.186 103.533 408.014 103.533C406.239 103.533 404.499 103.151 402.794 102.387C401.107 101.624 399.705 100.461 398.586 98.8984C397.485 97.3359 396.935 95.3651 396.935 92.9858V52.2898Z" fill="#152A35"/>
</g>
<defs>
<clipPath id="clip0_1_12">
<rect width="440" height="160" fill="white"/>
</clipPath>
</defs>
</svg>
