<?xml version="1.0" encoding="UTF-8"?>
<svg id="Layer_2" data-name="Layer 2" xmlns="http://www.w3.org/2000/svg" viewBox="0 0 553.14 251.96">
  <defs>
    <style>
      .cls-1 {
        fill: #f58d80;
      }

      .cls-2 {
        fill: #f79c8d;
      }

      .cls-3 {
        fill: #f8cc7f;
      }

      .cls-4 {
        fill: #f8a592;
      }

      .cls-5 {
        fill: #f8a491;
      }

      .cls-6 {
        fill: #f8a492;
      }

      .cls-7 {
        fill: #f58761;
      }

      .cls-8 {
        fill: #f9e0b2;
      }

      .cls-9 {
        fill: #f7cc7f;
      }

      .cls-10 {
        fill: #f0efef;
      }

      .cls-11 {
        fill: #fff;
      }

      .cls-12 {
        fill: #f37458;
      }

      .cls-13 {
        fill: #f37559;
      }

      .cls-14 {
        fill: #fae0b2;
      }

      .cls-15 {
        fill: #98d5c7;
      }

      .cls-16 {
        fill: #a0bfe4;
      }

      .cls-17 {
        fill: #ba4939;
      }

      .cls-18 {
        fill: #b85843;
      }

      .cls-19 {
        fill: #b85742;
      }

      .cls-20 {
        fill: #8cb0dd;
      }

      .cls-21 {
        fill: #13385c;
      }

      .cls-22 {
        fill: #13375b;
      }

      .cls-23 {
        fill: #35548a;
      }

      .cls-24 {
        fill: #1a4755;
      }

      .cls-25 {
        fill: #194655;
      }

      .cls-26 {
        fill: #3d8f7c;
      }

      .cls-27 {
        fill: #3c8f7c;
      }

      .cls-28 {
        fill: #52c0a6;
      }

      .cls-29 {
        fill: #476fb6;
      }

      .cls-30 {
        fill: #476eb5;
      }

      .cls-31 {
        fill: #34548a;
      }

      .cls-32 {
        fill: #60ccf4;
      }

      .cls-33 {
        fill: #51c0a5;
      }

      .cls-34 {
        opacity: .57;
      }
    </style>
  </defs>
  <g id="Layer_1-2" data-name="Layer 1">
    <g>
      <polygon class="cls-33" points="132.99 37.54 131.65 35.39 129.09 35.71 127.76 33.2 125.14 34.38 123.5 31.6 120.96 32.4 118.95 29.98 119.86 29.22 121.36 31.02 124.05 30.19 125.62 32.86 128.29 31.65 129.76 34.43 132.26 34.12 133.5 36.11 135.1 35.56 135.48 36.69 132.99 37.54"/>
      <polygon class="cls-3" points="390.44 37.47 387.56 36.8 386.79 38.86 383.92 38.3 382.88 40.17 380.68 40.03 380.67 40.92 383.62 41.11 384.61 39.33 387.59 39.91 388.34 37.89 390.96 38.49 390.44 37.47"/>
      <g>
        <path class="cls-1" d="m228.73,234.87s-2.07,2.08-2.12,2.84c-.05.76-.18,8.92.66,9.68.85.76,3.33,1.3,2.53,2.16-.6.65-5.25.51-8.33.34-.9-.05-2.03-7.41-2.38-8.49-.52-1.57-2.38-4.99-1.91-6.09.23-.53,1.93-1.75,3.47-2.77,1.62-1.08,3.18-3.47,3.18-3.47l4.89,5.81Z"/>
        <path class="cls-4" d="m256.46,239.97s-1.85,5.38-1.86,5.39c-.14.85-.68,2.96-.68,3.73,0,2.91,12.78-2.47,9.92-3.76-.26-.12-1.07-1.05-1.16-2.04-.13-1.53,1.08-3.44,1.08-3.44l-7.3.12Z"/>
        <g>
          <path class="cls-24" d="m277.8,138.3s.96,8.9.96,9.04c0,15.59,1.8,46.05,1.22,48.98-1.4,7.15-16.66,46.07-16.66,46.07l-7.91-1.14,10.59-45.97-3.9-17.58-5.51-34.75,21.2-4.66Z"/>
          <path class="cls-23" d="m248,146.08l-1.54,9.14-4.17,37.6-20.42,38.16s3.07,4.77,6.37,5.53l28.99-38.56,15.71-48.28-.55-10.73-24.38,7.15Z"/>
        </g>
        <path class="cls-30" d="m278.52,114.61l-11.27,1.18s-.52-9.48-.52-14.01c0-5.49.6-12.48,1.25-12.32,1.81.43,4.1,1.37,5.56,3.42,5.03,7.09,4.98,21.73,4.98,21.73Z"/>
        <path class="cls-6" d="m236.84,160.15c-1.72-2.85-2.11-2.45-2.32-2.82-.25-.44.03-7.23.03-7.23,0,0,.69-20.03.76-21.11l8.8-18.49-7.61-7.26s-9.06,20.39-9.36,21.55c-.29,1.15,1.8,28.38,1.91,30.78,0,0-.88,2.9-1.38,4.75-.5,1.84-.18,3.83-.24,4.37,0,.08-.12,1.9.32,4.18.38,1.97.88-.07.88-.07,0,0-.07-3.77.21-3.72.22.04.14,2.1.54,4.28.1.56.2,1.11.3,1.62.26,1.33,1.11,1.56,1.06.12-.02-.51-.07-1.35-.19-1.95-.13-.64-.05-1.28-.08-1.83-.06-1.11-.11-1.91-.07-1.89.06.03.2-.2.32.4.15.71.15,2.3.45,3.33.17.58.46,1.83.46,1.83,0,0,.77,1.8.88,1.79.62-.06.43-1.43.1-2.2.03-.6-.31-1.89-.31-1.89,0,0-.11-2.78.26-2.8.16,0,.43,1.69.94,3.31.47,1.51,1.19,2.95,1.49,2.9.51-.08.15-1.81.15-1.81,0,0-.31-1.2-.39-1.61-.09-.48-.24-1.92-.24-1.92,0,0-.32-5.06.04-5.04.36.01,1.27.43,1.39.74.12.31.07.99.19,1.3.12.31.54.6.91.47.37-.13.32-1.84.32-1.84,0,0-.06-1.4-.55-2.22Z"/>
        <path class="cls-20" d="m272.98,100.81c.24,1.67,5.79,46.53,5.79,46.53-20.52,10.17-33.9,7.12-33.9,7.12,0,0,1.51-36.62.7-40.97-.53-2.88-1.2-21.99.62-22.53,2.33-.69,5-1.42,7.92-1.73,2.49-.26,12.14-.42,13.87.18,0,0,4.01,4.36,5,11.39Z"/>
        <path class="cls-30" d="m231.55,110.27l9.76,6.73s5.5-8.4,8.46-11.4c3.7-3.75-1.35-15.23-3.73-14.58-5.33,1.45-14.49,19.25-14.49,19.25Z"/>
        <path class="cls-26" d="m220.76,232.49s4.78,13.8,6.65,14.47c.5.18,2.88.63,3.33,1.71.14.33,0,1.41,0,1.41h-9.96s-1.26-6.08-1.76-8.75c0,0-2.64-6.53-2.34-7.12.29-.59,4.08-1.71,4.08-1.71Z"/>
        <path class="cls-26" d="m253.19,250.05l1.46-4.75s3.07,1.34,4.61,1.11c1.54-.22,4.54-1.11,4.54-1.11,6.14,2.07,11.16,3.08,10.25,4.75h-20.86Z"/>
        <path class="cls-7" d="m293.13,152.22c1.05.92,2.2,1.3,3.54,1.02-1.25.95-3,.22-3.54-1.02Z"/>
        <path class="cls-4" d="m256.84,79.9l-1.51,9.47s5.53,12.05,8.83,11.04c2.77-.85,1.07-11.2,1.07-11.2,0,0-1.51-5.56-1.06-8.34.45-2.78-7.33-.97-7.33-.97Z"/>
        <path class="cls-13" d="m264.16,80.87c.45-2.78-7.33-.97-7.33-.97l-.13.82c.23.55.51,1.01.84,1.37,1.74,1.84,4.45,2.95,6.8,3.03-.23-1.5-.38-3.11-.19-4.25Z"/>
        <g>
          <path class="cls-4" d="m255.56,66c-.22-.08-1.76,11.19,1.17,14.29,2.93,3.1,8.63,4.12,10.68,1.67,2.26-2.7,2.15-14.82-2.4-18.01-4.55-3.19-9.44,2.04-9.44,2.04Z"/>
          <path class="cls-3" d="m256.63,61.66c-1.6.19-3.77,1.05-6.01,4.71-2.76,4.49-.72,9.47,2.49,11.91,3.21,2.44,3.15,5.24,3.15,5.24l.52-1.44c.37-1.11.53-2.28.4-3.44-.08-.7-.23-1.45-.52-2.07-.77-1.63,1.66-2.72,2.34-4.07.52-1.05.55-3.44,1.38-5.16l.99-1.32s2.28-1.74,4.51-1.25c2.23.49-.51-10.21-9.24-3.12Z"/>
          <path class="cls-4" d="m258.85,74.52c.02,1.38-.61,2.5-1.42,2.51-.81.01-1.48-1.09-1.5-2.47-.02-1.38.61-2.5,1.42-2.51.81-.01,1.48,1.09,1.5,2.47Z"/>
        </g>
      </g>
      <g>
        <path class="cls-5" d="m484.87,222.49s.53,5.38,1.89,6.37c1.36.99,3.18,4.65,2.27,6.62-.91,1.98-4.73,1.29-4.73,1.29,0,0-2.27-2.08-2.48-6.45-.2-4.38-1.57-6.6-1.57-6.6l4.61-1.23Z"/>
        <path class="cls-5" d="m463.28,224.64s-.43,5.43-.08,7.2c.19.95,1.23,2.89.75,3.78-.48.89-1.02,1.11-1.02,1.11l-13.84.22s.03-1.75,6.61-3.63c.84-.24,1.75-1.06,2.49-1.89.89-.99.97-5.77.97-5.77l4.12-1.02Z"/>
        <path class="cls-27" d="m453.4,152.42s-1.58,8.82-.54,14.61c1.04,5.78,5.37,59.68,5.37,59.68l6.6.07s1.21-22.07,1-25.18c-.21-3.11-1.65-7.92-1.65-7.92l-.13-18.86-6.98-23.75-3.67,1.36Z"/>
        <path class="cls-33" d="m469.65,150.56s4.35,6.45,5.39,11.79c1.04,5.34-.76,21.75,1.23,28.74,1.08,3.79,6.35,9.18,6.97,14.08.62,4.89,3.23,18.3,3.23,18.3l-6.87.95-12.84-32.01-10.07-28.94-2.58-14.9,15.55,2Z"/>
        <path class="cls-12" d="m482.4,233.47c2.97.54,4.95-1.19,5.98-2.49.76,1.47,1.22,3.31.66,4.52-.91,1.98-4.73,1.29-4.73,1.29,0,0-1.18-1.08-1.91-3.31Z"/>
        <path class="cls-12" d="m455.7,233.32c.24-.07.48-.18.72-.33,3.27.84,5.69.27,7.04-.28.35.99.83,2.15.73,2.9-.13.91-.53,1.23-.53,1.23l-14.58.11s.03-1.75,6.61-3.63Z"/>
        <g>
          <path class="cls-1" d="m434.81,167.85s.65-.7.85-.95c.23-.29.86-1.22.86-1.22,0,0,2.04-3.33,1.78-3.46-.26-.13-.94.26-1.13.42-.2.16-.45.33-.65.5-.2.16-.49.15-.71-.08-.22-.23.43-1.04.71-1.28.88-.74,3.63-2.27,3.92-2.44.34-.21,2.79-6.61,3.81-8.75,0,0,0,0,0,0,1.56-3.54,2.99-7.25,3.15-7.62l1.97-16.37,6.39-1.66s-1.92,18.2-2.13,19.1c-.1.43-4.36,8.35-4.36,8.35-2.35,3.77-4.43,7.09-4.81,7.74,0,0-.61,2.24-.91,3.69-.3,1.45-1.17,2.66-1.32,3.06-.02.06-.46,1.44-1.59,2.83-.98,1.2-.61-.38-.61-.38,0,0,1.4-2.55,1.18-2.62-.17-.06-.85,1.38-1.92,2.72-.27.34-.55.68-.8.99-.66.81-1.36.64-.8-.32.2-.34.54-.89.83-1.25.32-.39.49-.85.71-1.22.44-.73.77-1.26.73-1.26-.05,0-.07-.21-.37.15-.36.43-.93,1.51-1.51,2.1-.33.33-.98,1.07-.98,1.07,0,0-1.18,1.08-1.26,1.03-.43-.28.19-1.29.7-1.69.19-.42.9-1.18.9-1.18,0,0,1.08-1.85.81-2.01-.22-.13-3.66,3.81-4.07,3.51-.33-.25.65-1.48.65-1.48Z"/>
          <path class="cls-13" d="m441.2,162.06s-1.88,1.06-2.87.19c0,0,.37.71,1.2.72s1.68-.9,1.68-.9Z"/>
        </g>
        <path class="cls-25" d="m465.96,93.41c.92,2.52,3.33,2.87,5.77,3.99,1.64.75,2.18,3.77,1.63,5.88-1.41,5.34,3.03,3.72,6.04,6.6,7.25,6.94-4.74,13.46-6.46,14.56-1.71,1.1-8.16,3.18-9.3,3.34-3.44.49-7.91-1.35-10.75-5.31-2.84-3.96-.37-6.81-.82-9.39-.45-2.58-3.65-2.45-3.47-7.59.2-5.56,1.92-10.06,4.41-12.38,4.12-3.83,9.98-3.06,11.85-1.32.56.52.91,1.07,1.11,1.62Z"/>
        <path class="cls-9" d="m454.8,114.02s-1.9.88-4.48,6.09c-2.4,4.86-2.79,16.14-2.79,16.14,0,0,3.82,1.21,6.01.8,2.19-.42,1.26-23.03,1.26-23.03Z"/>
        <path class="cls-14" d="m462.01,112.38s1.27.11,7.74,1.49c1.05.22,2.71,1.43,3.34,2.56,3.31,5.88,6.22,16.42,6.22,16.42,0,0-5.41,1.77-7.29,1.77l-2.22-7.01s-2.53,14.79-1.49,17.29,3.66,8.86,3.66,8.86c0,0-.04,1.35-9.92,2.39-3.97.42-8.91-.43-8.91-.43,0,0,.9-9.6.1-13.78-1.3-6.8-3.83-14.94-3.96-15.97-.21-1.67,3.64-11.12,5.63-12.02.51-.23,1.37-.71,2.12-.88,2.29-.53,4.97-.69,4.97-.69Z"/>
        <path class="cls-4" d="m461.15,105.68s.21,4.73.81,6.47c.6,1.74-1.26,8.06-5.04,8.98-3.4.83-.95-5.07-.48-7.59.05-.28-.61-9.04-.61-9.04l5.31,1.17Z"/>
        <path class="cls-13" d="m456.09,107.27c-.3-1.49-.57-2.73-.57-2.73l5.63,1.15s.04.97.14,2.19c-2.11.98-3.91.54-5.2-.6Z"/>
        <path class="cls-4" d="m459.44,92.81s2.21.62,3.48,2.79c1.27,2.18,1.91,8.42-2.78,11.09-4.69,2.67-8.02-1.61-7.88-5.6.14-4,1.27-9.28,7.18-8.28Z"/>
        <path class="cls-4" d="m451.86,99.74c.34.98,1.08,1.62,1.65,1.42.57-.2.76-1.15.42-2.14-.34-.98-1.08-1.62-1.65-1.42-.57.2-.76,1.15-.42,2.14Z"/>
        <path class="cls-4" d="m463.29,101.11c-.38,1.02-.13,2.06.56,2.32.69.26,1.56-.36,1.94-1.38.38-1.02.13-2.06-.56-2.32-.69-.26-1.56.36-1.94,1.38Z"/>
        <polygon class="cls-30" points="452.93 156.19 469.06 153.5 465.59 131.08 448.61 134.41 452.93 156.19"/>
        <path class="cls-1" d="m450.51,143.87c.02-.09,1.36.27,2.28-.12.18-.08-.64-.53-.76-.68-.02-.02-1.61-.65-1.61-1.28s1.3-.48,1.3-.48c0,0,3.77.93,4.35,1.33.58.4.86.73.9.77.23.03.42.04.56.03,3.26-.2,8.32-1.93,15.99-4.7l-.79-4.16c1.7-.22,4.57-1.08,5.89-1.49.54,3.18,1.64,8.67,1.16,9.85-.33.83-4.42,2.13-9,3.38-5.84,1.6-7.46,1.56-12.67,2.19-1.58.19-3.63,1.07-4.44,1.24-1.21.24-1.61.46-2.34-.06-.62-.44-.81-1.77-.88-2.6-.14-1.58-.2-2.18.07-3.2Z"/>
      </g>
      <g>
        <path class="cls-22" d="m60.94,166.18h-16.91c-1.4,0-2.53,1.13-2.53,2.53v9.49h2.83v-9h16.62v-3.02Z"/>
        <path class="cls-4" d="m64.17,159.77l-5.24-5.53s-5.61,3.09-12.15,6.04c-1.8-3.13-4.73-13.43-4.89-13.92-.16-.49,3.44-6.68,2.63-6.83-.8-.16-1.85,3.3-2.7,2.95-.85-.35-3.04-8.37-3.55-7.94-.96.82,1.15,4.99.65,5.29-.5.3-1.79-4.62-2.76-4.41-.97.21,1.65,4.49,1.36,4.9-.29.41-3.03-3.6-3.59-2.67-.31.5,2.53,3.49,1.94,3.83-.58.33-3.14-1.55-3.44-.94-.3.61,2.38,1.24,3.13,2.79.75,1.54,2.1,2.14,2.55,5.06.45,2.91,1.68,18.51,4.86,19.76,2.78,1.09,21.21-8.37,21.21-8.37Z"/>
        <g>
          <path class="cls-4" d="m112.53,231.66c.41-2.94.38-8.37.17-14.1,2.57-.13,4.74-.29,7.3-.46-1.07,7.32-1.79,14.85-1.79,14.85l.18,1.45.09,4.29-14.52.11s3.06-1.36,7.34-4.04c.32-.2,1.05-.83,1.22-2.09Z"/>
          <path class="cls-12" d="m118.88,238.6l-15.31.18c-.55-.05-.69-.5-.5-.77.4-.57,2.14-.99,4.11-1.89,3.45.36,10.66-2,11.2-2.79.31,1.59.8,5.21.49,5.27Z"/>
        </g>
        <g>
          <path class="cls-4" d="m138.55,228.63c-1.2-2.72-4.09-7.32-7.29-12.07,2.11-1.46,4.21-2.95,6.29-4.45,2.95,6.78,5.98,13.77,5.98,13.77l.91,1.14,2.34,3.59-12.28,7.75s1.89-2.77,4.11-7.3c.16-.34.45-1.26-.06-2.42Z"/>
          <path class="cls-12" d="m147.42,231.5l-12.74,7.9c-.5.25-.85-.06-.83-.4.04-.69,1.3-1.97,2.49-3.77,3.12-1.51,7.98-7.35,8.02-8.31,1.1,1.18,3.28,4.36,3.05,4.58Z"/>
        </g>
        <path class="cls-31" d="m132.57,109.03c1.14-5.54-2.43-11.03-7.42-13.09.03-3.15-.99-7.14-3.14-9.3-4.24-4.26-12.34-5.75-15.46-.32-4.12,2.33-7.36,7.38-6.14,11.98-4,4.14-2.48,11.62,3.35,15.16-.09,4.64,2.36,9.26,6.42,11.24.97.48,2.5,1.14,2.69,1.35-.25-.24,3.01,8.84,13.14,4.68,10.34-4.24,13.3-16.18,6.56-21.71Z"/>
        <path class="cls-25" d="m112.26,227.5c1.26-6.97-3.11-24.27-5.78-31.87-2.77-7.91-4.53-41.37-4.53-41.37l3.14-3.67,12.82-.77s-5.46,16.76-5.46,22.52,2.65,20.63,5.77,28.36c2.88,7.14,1.68,22.1.81,27.02-2.32.37-4.52.24-6.78-.22Z"/>
        <path class="cls-27" d="m121.16,151.37c.59.59,4.03,4.67,4.03,7.52s-6.49,28.52-4.94,30.08c1.56,1.56,7.32,5.45,11,10.88,3.1,4.57,10.21,17.79,11.56,20.94-2.68,1.86-5,2.71-7.69,3.61-.43-2.34-21.43-25.49-23.83-30.33-2.4-4.84-3.7-26.97-4.91-29.91-1.21-2.94-4.45-10.4-4.45-10.4l19.2-2.39Z"/>
        <path class="cls-2" d="m102.45,132.45s-7.91,9.03-16.68,12.43c-1.37.53-2.55,1.57-2.55,1.57,0,.92,1.85-.17,1.85-.17,0,0-.75,1.33-.46,2.42s2.2.37,3.24.37c.48,0,2.92-2.73,6.22-4.34,3.9-1.9,8.51-3.76,9.07-4.32,1.04-1.04-.38-8.28-.68-7.95Z"/>
        <path class="cls-19" d="m118.55,107.03s-7.97-.81-12.12,1.84c-4.16,2.65-6.81,12.1-6.81,16.14s3,25.24,1.84,29.27c0,0,13.16-.58,17.67-.58s5.43-1.73,5.43-1.73c0,0-9.35-9.22-9.35-13.25s3.35-31.69,3.35-31.69Z"/>
        <g>
          <path class="cls-22" d="m9.77,215.68v13.82h1.49v-12.56h9.9v4.31c-3.83.41-6.82,3.95-6.82,8.25,0,4.58,3.39,8.29,7.57,8.29s7.57-3.71,7.57-8.29c0-4.3-2.99-7.84-6.82-8.25v-4.31h2.06v-1.64h-2.06v-4.97h2.06v-1.64h-2.06v-5.53h27.1v-2.46h-14.97v-14.07c0-3.76,3.45-7.96,8.08-7.96h12.87v-2.46h-12.87c-5.5,0-10.32,4.87-10.32,10.42v14.07h-9.88v-7.89h-1.49v15.88h-5.01c-3.52,0-6.38,3.14-6.38,6.99Zm11.4-.38h-9.89c.18-2.78,2.3-4.97,4.88-4.97h5.01v4.97Z"/>
          <path class="cls-1" d="m15.64,217.85s.3,5.33.3,5.34c.11.68.55,2.35.55,2.96,0,2.31-10.28-1.96-7.97-2.98.21-.09,1.4-1.37,1.69-2.1.53-1.3.76-3.85.76-3.85l4.67.64Z"/>
          <path class="cls-30" d="m8.54,223.15s2.41.71,3.65.88c1.24.18,2.87-1.31,3.74-.91.96.44,1.02,4.5,1.02,4.5,0,0-12.92.43-16.67-.12-1.5-.22,3.33-2.71,8.27-4.36Z"/>
          <path class="cls-22" d="m67.1,206.47h2.84v-54.09c0-1.82,1.79-3.31,3.98-3.31h25.54c.68,0,1.23-.53,1.23-1.18h0c0-.65-.55-1.18-1.23-1.18h-25.54c-3.76,0-6.82,2.54-6.82,5.67v54.09Z"/>
          <g>
            <ellipse class="cls-22" cx="53.78" cy="212.41" rx="17.13" ry="17.29"/>
            <path class="cls-22" d="m32.92,212.41c0,11.63,9.34,21.05,20.86,21.05s20.86-9.42,20.86-21.05-9.34-21.05-20.86-21.05-20.86,9.42-20.86,21.05Zm1.98,0c0-10.52,8.46-19.06,18.89-19.06s18.89,8.53,18.89,19.06-8.46,19.06-18.89,19.06-18.89-8.53-18.89-19.06Z"/>
          </g>
          <rect class="cls-30" x="67.48" y="155.95" width="8.38" height="32.48" transform="translate(143.35 344.38) rotate(180)"/>
          <path class="cls-20" d="m25.96,229.5h1.62v-13.82c0-2.95,2.38-5.36,5.31-5.36h9.3v-1.64h-9.3c-3.82,0-6.93,3.14-6.93,6.99v13.82Z"/>
          <rect class="cls-22" x="15.01" y="190.52" width="22.04" height="3.78" transform="translate(52.06 384.82) rotate(180)"/>
          <rect class="cls-20" x="26.77" y="215.3" width="15.42" height="1.64"/>
          <rect class="cls-20" x="39.15" y="200.7" width="30.23" height="2.46"/>
          <rect class="cls-22" x="36.51" y="190.46" width="39.36" height="3.84" transform="translate(112.37 384.76) rotate(180)"/>
          <path class="cls-20" d="m74.65,209.37h2.43v-54.09c0-1.82,1.53-3.31,3.41-3.31h22.96v-2.36h-22.96c-3.23,0-5.85,2.54-5.85,5.67v54.09Z"/>
          <path class="cls-25" d="m30.01,229.5c0,4.58,4.09,8.29,9.14,8.29s9.13-3.71,9.13-8.29-4.09-8.29-9.13-8.29-9.14,3.71-9.14,8.29Z"/>
          <path class="cls-16" d="m33.58,229.5c0,2.79,2.49,5.05,5.56,5.05s5.56-2.26,5.56-5.05-2.49-5.05-5.56-5.05-5.56,2.26-5.56,5.05Z"/>
          <path class="cls-20" d="m39.2,225.95h0c1.18,0,2.13.95,2.13,2.13v5.75h-4.26v-5.75c0-1.18.95-2.13,2.13-2.13Z" transform="translate(78.39 459.78) rotate(180)"/>
          <path class="cls-22" d="m16.87,176.21c2.64-2.64,39.46-1.37,39.46-1.37,0,0-31.19,7.61-33.01,8.6-1.82.99-8.6,34.49-8.61,34.93-1.88-.45-3.02-.11-4.93-.5.31-5.82,2.84-37.41,7.09-41.66Z"/>
          <path class="cls-5" d="m20.46,218.02s.3,5.33.3,5.34c.11.68.55,2.35.55,2.96,0,2.31-10.28-1.96-7.97-2.98.21-.09,1.62-1.32,1.69-2.1.11-1.21.05-3.14.05-3.14l5.38-.07Z"/>
          <path class="cls-30" d="m13.36,223.31s2.41.71,3.65.88c1.24.18,2.87-1.31,3.74-.91.96.44,1.02,4.5,1.02,4.5,0,0-12.92.43-16.67-.12-1.5-.22,3.33-2.71,8.27-4.36Z"/>
          <path class="cls-31" d="m62.07,182.41s-.32,8.36-3.1,8.46c-2.78.1-20.63.5-30.69-.4l-6.76,29.9-7.94-.77s2.39-19.97,3.24-27.56c.84-7.47,3.25-13.74,7.47-13.89,4.22-.15,31.99-4.45,31.99-4.45l5.78,8.72Z"/>
          <path class="cls-33" d="m69.55,143.39s4.51,1.14,3.9,9.95c-.61,8.8-5.48,35.44-14.48,37.53-9,2.09-14.87-16.87-14.87-16.87,0,0,5.68-1.87,8.05-10.68,1.64-6.1,6.03-19.88,7.13-20.54,2.73-1.65,10.28.62,10.28.62Z"/>
          <path class="cls-20" d="m50.69,202.59h2.43v-15.96c0-3.76,3.75-7.96,8.77-7.96h13.98v-2.46h-13.98c-5.97,0-11.2,4.87-11.2,10.42v15.96Z"/>
          <ellipse class="cls-16" cx="75.86" cy="214.69" rx="19.68" ry="19.85"/>
          <path class="cls-16" d="m51.9,214.69c0,13.35,10.73,24.18,23.96,24.18s23.96-10.82,23.96-24.18-10.73-24.18-23.96-24.18-23.96,10.82-23.96,24.18Zm2.27,0c0-12.09,9.71-21.89,21.69-21.89s21.69,9.8,21.69,21.89-9.71,21.89-21.69,21.89-21.69-9.8-21.69-21.89Z"/>
          <ellipse class="cls-25" cx="75.86" cy="214.69" rx="16.23" ry="16.37"/>
          <path class="cls-22" d="m72.21,214.69c0,2.03,1.64,3.68,3.65,3.68s3.65-1.65,3.65-3.68-1.63-3.68-3.65-3.68-3.65,1.65-3.65,3.68Z"/>
          <rect class="cls-31" x="3.48" y="227.73" width="24.78" height="4.29" transform="translate(31.74 459.74) rotate(180)"/>
          <rect class="cls-20" x="14.19" y="227.73" width="14.07" height="4.29" transform="translate(42.45 459.74) rotate(180)"/>
          <rect class="cls-20" x="38.34" y="194.25" width="1.62" height="37.76"/>
          <path class="cls-22" d="m38.18,229.98c0,.56.45,1.01,1,1.01s1-.45,1-1.01-.45-1.01-1-1.01-1,.45-1,1.01Z"/>
          <g>
            <path class="cls-25" d="m66.83,119.82s3.16-2.13,4.49,1.6c-.01-.03,1.11-.02,1.27.03.65.22,1.28.9,1.86,1.27,2.06,1.32,3.01,3.88,3.12,6.24.14,2.86-1.04,4.95-2.92,7.01-.55.61-1.15,1.2-1.87,1.59-.87.47-1.57.1-2.39.3-.69.17-.94.9-1.75.63-1.14-.37-2.35-1.8-3.77-1.59-1.42.21-4.69-1.06-4.7-1.07-4.2-1.64-1.37-9.78-.56-12.67.76-2.72,4.62-4.33,7.22-3.35Z"/>
            <path class="cls-4" d="m63.03,138.32l-1.09,2.98-.59,1.67s-.04,2.98.65,3.75c1.2,1.33,6.12-3.6,6.12-3.6l1.56-9.37-6.65,4.57Z"/>
            <path class="cls-13" d="m69.18,136.78c-1.87,2.9-5.1,4.23-7.25,4.54l1.1-3.01,6.65-4.57-.51,3.04Z"/>
            <path class="cls-4" d="m68.41,124.11c-2.51-1.53-5.79-.37-6.82,2.33-.45,1.18-.95,2.67-1.35,4.33-.96,4,.26,8.37,2.08,8.77,1.82.4,7.44-1.08,8.88-6.75.89-3.5-.16-7.08-2.79-8.69Z"/>
            <path class="cls-4" d="m69.75,132.96c-.2.89.23,1.73.96,1.89.72.16,1.47-.43,1.67-1.31.2-.89-.23-1.73-.96-1.89-.72-.16-1.47.43-1.67,1.32Z"/>
            <path class="cls-25" d="m64.12,134.62s2.4.79,2.6,1.67c.2.88-.1,2.16-1.28,3.14-1.18.98-3.7.38-4.38-.16-.69-.54-1.21-2.83-.52-4.11.69-1.28,3.58-.54,3.58-.54Z"/>
            <path class="cls-4" d="m64.9,136.47s-.01.98-.34,1.16c-.32.17-.72.32-1.1.35-.61.06-1.15-.2-1.47-.67-.03-.05-.06-.09-.08-.14-.25-.49-.29-1.36-.29-1.36,0,0,1.01-.25,1.6-.15.59.1,1.68.8,1.68.8Z"/>
          </g>
        </g>
        <path class="cls-2" d="m90.9,147.94c.95-.95,5.37-2.42,8.72-4.84,1.48-1.07,4.33-2.48,7.1-4.01,2.02,1.12,3.85,2.53,5.22,4.21-5.01,2.3-10.45,4.62-11.28,5.45-1.56,1.56-4.27,5.07-4.91,5.07s-5.46-1.41-6.18-2.13c-.72-.72.38-2.79,1.33-3.75Z"/>
        <path class="cls-12" d="m106.72,139.09c3.49-1.93,6.86-4.06,7.22-5.96.64-3.4-2.25-18.09-.64-20.92,1.62-2.82,5.25-5.19,5.25-5.19.58,0,2.66,1.27,3.23,3.8.58,2.54-.46,25.35-1.04,27.43-.27.97-4.22,4.85-8.66,6.89-1.37-1.68-3.35-4.94-5.37-6.06Z"/>
        <path class="cls-5" d="m70.73,169.87l-13.93,3.65s-4.1,2.95-5.94,3.54c-1.84.59-4.09,2.62-3.65,3.24.44.62,2.76-1.49,3.13-1.43.38.06-1.36,2.57-1.64,4.21-.28,1.64-.85,3.24.1,3.11.94-.13,1.62-3.83,1.62-3.83,0,0,1.45-2.79,1.68-2.46.23.33-.97,2.25-.97,2.25,0,0-.28,2.07-.41,2.8-.09.54.41,2.18.83,1.58.25-.35.13-1.7.42-2.47.6-1.58,1.58-2.83,1.58-2.83,0,0-1.05,4.73-.39,4.84.66.11,1.34-3.8,1.34-3.8,0,0,1.61-3.26,2.31-3.55.7-.29,2.63-1.53,4.12-2.05,1.49-.52,7.66,1.19,10.41,1.22,2.75.04,7.21-1.67,7.58-3.82.11-.66-.3-1.39-.92-2.08-1.82-2.02-4.65-2.79-7.28-2.1Z"/>
        <path class="cls-15" d="m69.55,143.39s4.21-.75,8.03,6.11c3.81,6.86,1.35,24.55,1.35,24.55l-8.2-4.19-1.17-26.48Z"/>
        <path class="cls-1" d="m90.48,146.95s-1.66,2.36-2.15,2.36-3.09.16-3.5-.24c-.41-.41,1.47-3.48,2.14-3.48s-.79,2.03-.62,2.2c.18.18,1.62-3.21,2.37-2.89.74.32-1.45,2.68-1.2,2.93.25.25,1.8-2.68,2.4-2.68s-1.41,2.65-1.2,2.86c.21.21,1.48-1.34,1.77-1.06Z"/>
        <path class="cls-4" d="m114.42,99.92s-.89,4.88-.71,6.8c.18,1.92-.68,8.12-4.51,8.14s-1.23-6.44-.87-8.32c.36-1.89.95-9.17.95-9.17l5.14,2.54Z"/>
        <path class="cls-13" d="m109.04,100.14c.06-1.6.35-2.87.35-2.87l5.03,2.65s-.18,1-.36,2.27c-2.25.48-4.04-.57-5.01-2.05Z"/>
        <path class="cls-4" d="m114.53,85.75s2.16.77,3.33,3.12c1.17,2.35,1.56,8.92-3.17,11.44-4.74,2.52-7.86-2.13-7.57-6.3.29-4.17,1.61-9.64,7.4-8.25Z"/>
        <path class="cls-4" d="m105.71,92.84c-.12,1.08.26,2,.85,2.06.6.06,1.18-.77,1.31-1.86.12-1.08-.26-2-.85-2.06-.6-.06-1.18.77-1.31,1.86Z"/>
        <path class="cls-4" d="m117.44,94.66c-.42,1.05-.21,2.15.46,2.45.67.31,1.55-.29,1.97-1.34.42-1.05.21-2.15-.46-2.45-.67-.31-1.55.29-1.97,1.34Z"/>
      </g>
      <g>
        <path class="cls-1" d="m411.98,164.44s-.63-.72-.82-.97c-.22-.3-.82-1.25-.82-1.25,0,0-1.92-3.39-1.66-3.52.26-.12.92.28,1.11.44.19.17.43.35.63.51.19.17.48.16.7-.06.23-.22-.4-1.06-.67-1.31-.85-.77-3.53-2.36-3.8-2.54-.33-.21-2.58-6.72-3.53-8.88,0,0,0,0,0,0-1.45-3.59-2.75-7.36-2.91-7.74l-1.5-16.52-6.27-1.81s1.4,18.36,1.58,19.27c.08.43,4.08,8.5,4.09,8.5,2.22,3.85,4.19,7.23,4.54,7.89,0,0,.54,2.27.8,3.73.26,1.46,1.09,2.71,1.22,3.1.02.06.41,1.46,1.49,2.89.93,1.23.61-.37.61-.37,0,0-1.32-2.59-1.09-2.66.17-.06.81,1.4,1.82,2.77.26.35.52.7.76,1.02.63.83,1.32.67.8-.31-.18-.35-.5-.91-.79-1.28-.31-.4-.46-.87-.67-1.24-.41-.75-.72-1.29-.68-1.29.05,0,.07-.21.36.16.35.44.88,1.54,1.44,2.14.32.34.94,1.1.94,1.1,0,0,1.14,1.12,1.22,1.07.43-.27-.16-1.31-.65-1.71-.18-.42-.86-1.2-.86-1.2,0,0-1.01-1.89-.75-2.04.22-.12,3.52,3.91,3.93,3.61.34-.25-.6-1.51-.6-1.51Z"/>
        <path class="cls-1" d="m348.57,129.39c-.07-.07-.3-.43-.53-.7-.31-.37-.64-.65-.64-.65,0,0,0-.25-.09-.64-.04-.16-.18-.37-.22-.55-.05-.19-.02-.39-.07-.57-.13-.45-.34-.78-.6-.74-.21.03.16,2.8.16,2.8,1.38,1.72,1.97,4.22,7.79,6.07,2.83,1.46,17.22,8.01,18.58,7.27.76-.42,4.53-6.29,7.3-10.85-1.34-.67-4.19-2.11-5.75-2.94-1.51,3.16-3.65,7.19-4.17,7.37-.13.05-.43.06-11.35-3.4-.27-.09-.56-.18-.84-.27-.77-.24-1.59-.51-2.46-.78l-1.51-2.3s-2.97-3.17-3.43-2.95c-.21.1-.07.45.16.83h0c.03.07.07.12.1.18,0,0,0,0,0,0,.26.4.57.8.61.92.05.14.14.42.16.71-2.56-1.39-2.12-1.48-2.65-2.21-.13-.19-.33-.33-.45-.5-.21-.3-.22-.66-.39-.89-.24-.33-.6-.47-.71-.48-.13-.01-.13.21-.03.58.62,2.19,1.98,3.3,2.22,3.82.16.35-.37-.09-.95-.98-.15-.22-.44-.43-.6-.75-.11-.21-.12-.47-.23-.69-.09-.2-.23-.36-.32-.52-.11-.21-.18-.57-.28-.73-.38-.59-.68-.77-.78-.79-.21-.03.84,3.16.84,3.16,0,0,1.13,1.88,1.43,2.25,0,0,.08.31-.34-.08Z"/>
        <path class="cls-21" d="m397.31,101.77c.64-2.93,1.28-5.88-.42-9.1-1.38-2.61-3.75-4.1-6.5-4.43-7.8-.92-8.48,6.04-15.89,9.09-3.16,1.3-6.41.93-9.24,2.61-5.1,3.04-7.82,11.57-4.43,19.52,8.29,19.46,27.83,6.72,30.35,2.89,1.87-2.85,5.72-18.7,6.13-20.58Z"/>
        <g>
          <path class="cls-1" d="m395.27,114.62c-4.18,1.31-15.51,4.97-16.07,4.84l-10.32-8.21-6.35,5.57s14.17,10.49,14.97,10.87c.6.28,13.07-6.14,18.95-9.02-.08-1.91-.24-2.38-1.18-4.05Z"/>
          <path class="cls-26" d="m376.39,115.85l-6.47,8.37s-6.82-5.24-9.33-8.06c-3.05-3.42-6.38-10.76-5.89-11.03,1.38-.75,4.36-1.36,6.42-.9,7.11,1.59,15.27,11.61,15.27,11.61Z"/>
        </g>
        <g>
          <path class="cls-3" d="m393.47,128.95l6.54-3.73s-2.97-12.53-8.27-12.93l1.73,16.66Z"/>
          <path class="cls-5" d="m366.13,224.67s-.56,5.64-1.98,6.67c-1.43,1.03-3.33,4.86-2.38,6.93.3.65.89,1.02,1.57,1.23,2,.62,4.14-.42,4.99-2.34.48-1.07.9-2.5.98-4.3.21-4.58,1.64-6.91,1.64-6.91l-4.82-1.29Z"/>
          <path class="cls-5" d="m388.06,226.98s.45,5.69.08,7.54c-.2.99-1.28,3.03-.78,3.96.5.93,1.07,1.16,1.07,1.16l12.95.21c.71.01.24-.44-.33-.86-.93-.68-1.68-1.13-4.65-2.57-.19-.09-.9-.54-1.15-.7-.65-.39-1.29-1.01-1.85-1.63-.93-1.03-1.01-6.04-1.01-6.04l-4.31-1.07Z"/>
          <path class="cls-19" d="m398.18,151.38s1.63,9.23.56,15.29c-1.07,6.05-6.21,62.17-6.21,62.17l-5.71.32s-1.2-23.44-.98-26.7c.21-3.26,1.91-8.71,1.91-8.71l-.57-18.93,7.2-24.86,3.8,1.43Z"/>
          <path class="cls-12" d="m381.4,149.44s-4.5,6.75-5.57,12.34c-1.07,5.59.79,22.76-1.27,30.09-1.11,3.96-5.34,10.09-5.98,15.21-.64,5.12-3.16,18.54-3.16,18.54l5.71,1.13,13.26-33.51,10.4-30.29,2.66-15.6-16.05,2.1Z"/>
          <path class="cls-8" d="m385.04,111.02s-3.08.51-5.38,2.76c-4.92,4.82,2.89,23.4,3.32,26.66.43,3.26-3.51,10.86-3.51,10.86,0,0,14.71,2.72,18.71.08,0,0,.47-26.16.04-28.48-.43-2.33-5.22-9.51-6.07-10.45-.86-.93-7.11-1.43-7.11-1.43Z"/>
          <path class="cls-4" d="m387.02,103.08s-.03.18-.09.47c-.27,1.43-1.29,6.17-1.98,7.47-.83,1.57,2.86,6.59,6.41,5.98,1.06-.18-.89-4.61-.8-5.08.18-.9.42-2.12.67-3.38.14-.71.28-1.43.42-2.1.38-1.92.69-3.49.69-3.49l-5.32.13Z"/>
          <path class="cls-12" d="m386.93,103.55c.06-.3.09-.47.09-.47l5.32-.13s-.31,1.57-.69,3.49c-.13.67-.27,1.39-.41,2.09-.82-.12-1.68-.52-2.54-1.27-.94-.82-1.55-1.81-1.93-2.86.07-.34.12-.63.16-.85Z"/>
          <path class="cls-4" d="m390.22,90.43s-2.17.3-3.74,2.33c-1.57,2.03-3.27,8.31.64,11.72,3.91,3.41,7.77-.45,8.34-4.55.57-4.1.46-9.65-5.23-9.5Z"/>
          <path class="cls-4" d="m396.7,98.53c-.47.9-1.25,1.41-1.75,1.12-.5-.29-.53-1.25-.06-2.16.47-.9,1.25-1.41,1.75-1.12.5.29.53,1.25.06,2.16Z"/>
          <path class="cls-21" d="m390.88,90.34s-3.35,5.97-5.75,6.25c-2.4.28-2.71,3.45-2.71,3.45,0,0,.86-7.31,3.23-8.72,2.37-1.41,5.23-.97,5.23-.97Z"/>
          <path class="cls-4" d="m385.91,98c.19,1.06-.2,2.03-.88,2.17-.68.14-1.39-.61-1.58-1.67-.19-1.06.2-2.03.88-2.17.68-.14,1.39.61,1.58,1.67Z"/>
          <path class="cls-27" d="m368.72,236.16c-3.11.57-5.18-1.25-6.26-2.61-.79,1.54-1.27,3.46-.69,4.73.51,1.11,1.91,1.42,3.08,1.46,1.25.05,2.41-.61,3.03-1.69.29-.51.59-1.14.84-1.89Z"/>
          <path class="cls-27" d="m395.23,235.72c-3.42.88-5.95.28-7.37-.29-.37,1.03-.85,2.33-.59,3.08.31.91.76,1.12,1.16,1.13,3.13.08,11.45.19,13.84.22.33,0,.52-.38.3-.64-.59-.7-7.08-3.35-7.34-3.5Z"/>
        </g>
        <path class="cls-3" d="m372.68,130.82l9.15,1.1s3.39-9.01,2.76-13.74c-.63-4.73-2.41-5.21-3.4-5.18-2.76.09-5.38,3.76-7.17,9.5-1.79,5.74-1.34,8.32-1.34,8.32Z"/>
        <path class="cls-5" d="m372.17,228.49s-.3,5.31-.3,5.32c-.11.67-.55,2.34-.55,2.95,0,2.3,10.24-1.95,7.95-2.97-.21-.09-1.3-.79-1.36-1.57-.11-1.21-.37-3.65-.37-3.65l-5.36-.07Z"/>
        <path class="cls-25" d="m379.24,233.76s-2.41.7-3.64.88c-1.23.18-2.86-1.31-3.73-.91-.96.44-.77,5.64-.77,5.64,0,0,13.41,1.05,17.04-.12,1.44-.46-3.99-3.85-8.91-5.49Z"/>
        <path class="cls-5" d="m349.6,228.49s-.3,5.31-.3,5.32c-.11.67-.55,2.34-.55,2.95,0,2.3,10.24-1.95,7.95-2.97-.21-.09-1.62-1.31-1.69-2.1-.11-1.21-.05-3.13-.05-3.13l-5.36-.07Z"/>
        <path class="cls-25" d="m356.67,233.76s-2.4.7-3.64.88c-1.23.18-2.86-1.31-3.73-.91-.96.44-1.21,5.53-1.21,5.53,0,0,14.24,1.32,17.46.38,1.45-.42-3.98-4.24-8.89-5.88Z"/>
        <path class="cls-31" d="m365.83,151.83l4.33,1.87,9.11,43.51-.37,32.62-7.3.17s-3.4-28.53-3.4-30.74-15.73-38.69-15.73-38.69l13.36-8.73Z"/>
        <path class="cls-30" d="m362.49,154.23s-1.21,33-1.21,38.65-1.72,37.42-1.72,37.42l-10.16.33s-.53-9.64-1.31-23.82c-.12-2.22.16-6.7,0-9-1.14-16.54-3.39-32.11-2.32-38.28.17-.99.5-3.59,1.13-4.25,4.79-4.96,15.59-1.06,15.59-1.06Z"/>
        <path class="cls-28" d="m350.43,104.1s-5.05.7-6.38,1.68c-1.5,1.1-3.16,3.56-3.16,3.56,0,0,6.2,29.32,6.21,34.25,0,3.82-1.34,13.19-1.34,13.19,0,0,18.74,1.18,25.84-1.62,0,0-2.24-11.15-2.24-14.07s-2.68-29.54-3.29-31.4c-.55-1.69-1.57-4.72-4.99-5.46-3.42-.75-10.65-.12-10.65-.12Z"/>
        <rect class="cls-22" x="363.26" y="131.88" width="16.02" height="2.03" rx=".66" ry=".66" transform="translate(-17.23 65.29) rotate(-9.82)"/>
        <path class="cls-5" d="m342.78,107.87c1.7-.05,3.2,11.16,2.13,12.27-1.08,1.11-1.28,14.91-1.28,14.91l16.03-.4h0c.31-.2,3.67-2.46,4.15-2.95.5-.52,2.95-.26,3.6.45.65.71-1.44.13-2.02.52-.58.39.43,1.36.43,1.36,0,0,4.06.59,4.86-.25.79-.84,2.91-2.26,3.2-1.42.15.43-.94,1.75-1.56,2.3.77-.57,1.69-1.18,2-1.08.58.19.34.93.02,1.14-.31.22-3.54,2.68-4.04,2.85-.49.17-8,.35-9.29.64,0,0-21.14,4.81-22.35,4.51-1.05-.26-2.11-7.03-2.11-12.22s.91-22.48,6.22-22.64Z"/>
        <path class="cls-28" d="m344.98,105.31s-2.96.68-6.01,4.11c-2.78,3.12-4.53,20.61-4.53,20.61l9.59,1.55.77-8.46,2.56-3.87-2.38-13.95Z"/>
        <path class="cls-4" d="m391.24,112s.67-.73,1.92-.64c1.25.09,2.89,1.67,3.11,2.24.12.29-.67,2.59-1.01,3.1-.2.3-.67.45-.83.29-.11-.1,0-.63.03-.74.06-.22.47-1.64.47-1.64,0,0-.81,1.44-1.18,1.52-.38.09-.58-.22-.56-.34.11-.61.74-1.78.74-1.78,0,0-.95,1.39-1.41,1.24-.46-.15-.27-.64-.2-.81.07-.17.72-1.13.72-1.13,0,0-1.03,1.42-1.23.91-.12-.31.55-1.65.55-1.65l-1.13-.58Z"/>
        <path class="cls-4" d="m349.41,97.02l.79,7.93s3.84,5.07,6.23,3.95c2.01-.94,1.06-4.09,1.06-4.09,0,0-.35-1.4-.83-3.02-.34-1.13-.62-2.35-.6-3.24.05-2.18-6.66-1.53-6.66-1.53Z"/>
        <path class="cls-12" d="m356.65,101.75c-.33-1.12-.61-2.32-.59-3.2.05-2.18-6.66-1.53-6.66-1.53l.1.98c.04.11.09.21.14.31,1.41,2.74,4.78,4.18,7.01,3.44Z"/>
        <g>
          <path class="cls-25" d="m361.08,84.93s.78,4.48-.33,7.48c-1.11,3-2.6,4.72-2.6,4.72l-3.52-12.08,6.45-.13Z"/>
          <path class="cls-1" d="m361.78,92.15c-.34,1.07-1.13,1.77-1.75,1.57-.62-.2-.85-1.23-.5-2.3.34-1.07,1.13-1.77,1.75-1.57.62.2.85,1.23.5,2.3Z"/>
          <path class="cls-4" d="m351.62,85.43c-.15-.11-3.86,8.41-2.28,11.49,1.59,3.08,5.65,4.52,7.79,3.06,2.36-1.62,5.13-10.55,2.29-14.06-2.83-3.51-7.8-.48-7.8-.48Z"/>
          <path class="cls-25" d="m353.3,79.88c-2.61.83-4.05,1.63-6.6,4.01-3.15,2.92-1.68,8.02.28,10.65,1.95,2.63,2.69,4.99,2.69,4.99,0,0-.26-2.99-.28-3.63-.01-.57-.02-2.51-.11-3.06-.24-1.45-.28-1.76.56-2.68.64-.71,1.12-2.67,2.15-3.85l3.84.78s2.43.43,4.09-.36c4.79-2.28.29-9.13-6.62-6.86Z"/>
          <path class="cls-4" d="m350.27,91.51c.02,1.12-.49,2.04-1.14,2.06-.65.01-1.2-.89-1.22-2.01-.02-1.12.49-2.04,1.14-2.06.65-.01,1.2.89,1.22,2.01Z"/>
        </g>
      </g>
      <g>
        <path class="cls-1" d="m341.56,117.03l.82-3.71s2.67,1.69,4.23,4.12c1.56,2.42,2.3,8.88,2.74,9.12.45.24,5.37-7.35,6.24-8.55,1.07-1.48,1.46-3.18,2.13-4.47.67-1.29,3.02-1.73,3.91-1.57.89.16-1.22,3.94-1.22,3.94,0,0-5.34,9.28-7.12,14.36-1.78,5.08-7.34,7.5-8.23,6.78-.89-.73-3.49-20.01-3.49-20.01Z"/>
        <path class="cls-5" d="m357.78,114.25s.22-.98.82-1.18,1.64-.02,1.71,0c.07.02,1.22-.6,1.22-.6l-.95,1.78s-1.87,2.2-2.49,1.38c-.62-.82-.31-1.38-.31-1.38Z"/>
        <path class="cls-1" d="m361.86,112.55s.67,3.43.5,4.15c-.17.72-.6.33-.68.18-.33-.64-.56-2.84-.56-2.84l.74-1.48Z"/>
        <path class="cls-1" d="m360.41,115.4s.32,2.13.65,2.38c.21.16.49.07.58-.36.09-.43-.43-3.05-.43-3.05l-.8,1.04Z"/>
        <path class="cls-25" d="m358.45,121.43l-1.12-.54,4.75-9.74h0c.62.3.87,1.05.57,1.66l-4.2,8.62Z"/>
        <path class="cls-21" d="m346.52,101.77c.67-3.05,1.33-6.11-.44-9.46-1.43-2.71-3.9-4.27-6.76-4.61-8.1-.96-6.37,6.6-17.7,8.24-3.52.51-6.79,1-9.73,2.75-5.31,3.16-7.31,8.23-3.79,16.49,8.62,20.23,29.77,3.06,32.38-.93,1.94-2.96,5.61-10.53,6.04-12.49Z"/>
        <path class="cls-5" d="m314.1,229.54s-.58,5.86-2.06,6.94c-1.48,1.08-3.46,5.06-2.47,7.21.31.67.93,1.06,1.63,1.28,2.08.64,4.3-.44,5.19-2.43.5-1.11.93-2.6,1.02-4.47.22-4.76,1.71-7.18,1.71-7.18l-5.01-1.34Z"/>
        <path class="cls-5" d="m336.9,231.94s.47,5.91.09,7.83c-.2,1.03-1.34,3.15-.82,4.12.52.97,1.11,1.21,1.11,1.21l13.46.22c.73.01.25-.46-.34-.89-.97-.71-1.75-1.18-4.84-2.67-.2-.1-.94-.56-1.2-.72-.67-.41-1.34-1.05-1.93-1.7-.97-1.07-1.05-6.28-1.05-6.28l-4.49-1.11Z"/>
        <path class="cls-19" d="m347.42,153.35s1.69,9.6.58,15.89c-1.11,6.29-6.45,64.63-6.45,64.63l-5.94.33s-1.24-24.37-1.02-27.76c.22-3.39,1.98-9.06,1.98-9.06l-.59-19.68,7.49-25.85,3.95,1.48Z"/>
        <path class="cls-12" d="m329.98,151.33s-4.67,7.02-5.79,12.83c-1.11,5.81.82,23.66-1.32,31.28-1.16,4.12-5.55,10.49-6.22,15.81-.67,5.33-3.29,19.28-3.29,19.28l5.93,1.17,13.79-34.84,10.81-31.49,2.77-16.22-16.69,2.18Z"/>
        <path class="cls-31" d="m333.76,111.38s-4.09.46-6.54,3.13c-2.45,2.66,3.96,24.07,4.4,27.46.45,3.39-3.65,11.29-3.65,11.29,0,0,15.29,2.83,19.45.08,0,0,.44-24.37,0-26.79-.45-2.42-4.15-12.27-5.04-13.23-.89-.97-8.62-1.94-8.62-1.94Z"/>
        <path class="cls-5" d="m327.97,116.52c.39-1.19,1.75-1.77,2.9-1.27,1.58.68,3.76,1.98,4.83,4.2,1.78,3.71,8.01,16.46,9.94,16.95,1.93.48,9.79-13.23,9.79-13.23,0,0-.22-2.42.45-3.79.67-1.37,2.67-2.82,2.97-2.34.3.48-1.11,1.69-1.11,1.94s.59.4,1.41-.08,1.26-1.46,1.26-1.46c0,0,1.34,2.43-.07,4.61-1.41,2.18-2,3.07-2,3.07,0,0-9.12,20.25-12.46,20.5-3.11.23-21.01-19.63-17.89-29.08Z"/>
        <path class="cls-4" d="m335.82,103.13s-.03.18-.09.49c-.28,1.48-1.34,6.41-2.06,7.76-.87,1.64,2.97,6.85,6.66,6.22,1.1-.19-.93-4.79-.83-5.28.19-.93.44-2.21.7-3.51.15-.74.29-1.48.43-2.19.39-2,.72-3.63.72-3.63l-5.53.14Z"/>
        <path class="cls-12" d="m335.73,103.62c.06-.31.09-.49.09-.49l5.53-.14s-.32,1.63-.72,3.63c-.14.7-.29,1.44-.43,2.17-.85-.13-1.75-.54-2.64-1.32-.98-.85-1.62-1.88-2-2.97.07-.35.13-.65.17-.88Z"/>
        <path class="cls-4" d="m339.15,89.98s-2.26.31-3.89,2.42c-1.64,2.11-3.4,8.64.66,12.18,4.06,3.55,8.07-.47,8.67-4.73.59-4.26.47-10.03-5.44-9.88Z"/>
        <path class="cls-4" d="m345.89,98.41c-.48.94-1.3,1.46-1.82,1.16-.52-.3-.55-1.3-.06-2.24.49-.94,1.3-1.46,1.82-1.16.52.3.55,1.3.06,2.24Z"/>
        <path class="cls-21" d="m339.84,89.88s-3.48,6.21-5.98,6.49c-2.49.29-2.82,3.58-2.82,3.58,0,0,.89-7.6,3.36-9.06,2.47-1.47,5.44-1.01,5.44-1.01Z"/>
        <path class="cls-4" d="m334.67,97.85c.2,1.1-.2,2.11-.91,2.26-.71.14-1.44-.63-1.64-1.73-.2-1.1.21-2.11.91-2.26.71-.14,1.44.63,1.64,1.73Z"/>
        <path class="cls-27" d="m316.79,241.49c-3.23.59-5.38-1.3-6.5-2.71-.82,1.6-1.33,3.6-.72,4.91.53,1.16,1.98,1.47,3.21,1.52,1.3.05,2.51-.63,3.15-1.75.3-.53.61-1.18.87-1.97Z"/>
        <path class="cls-27" d="m344.36,241.03c-3.56.91-6.19.29-7.66-.3-.38,1.07-.88,2.42-.62,3.2.33.95.79,1.17,1.2,1.18,3.25.09,11.91.2,14.39.23.35,0,.54-.4.31-.66-.61-.73-7.36-3.48-7.63-3.64Z"/>
      </g>
      <g>
        <path class="cls-5" d="m461.69,156.64s-.04-.03-.1-.07c-.3-.21-1.24-.81-1.9-.88-.8-.08-1.69.04-1.69.04l1.38,1.57,2.31-.66Z"/>
        <path class="cls-12" d="m463.01,215.44c-.68,0-1.23-.55-1.23-1.23,0-16.36,13.31-29.68,29.68-29.68,7.01,0,13.82,2.49,19.16,7.02.52.44.58,1.22.14,1.74-.44.52-1.22.58-1.74.14-4.9-4.15-11.14-6.43-17.57-6.43-15.01,0-27.21,12.21-27.21,27.21,0,.68-.55,1.23-1.23,1.23Z"/>
        <g>
          <path class="cls-19" d="m443.9,213.65c-.36,0-.71-.19-.9-.53l-22.64-40.49c-.28-.49-.1-1.12.4-1.4.49-.28,1.12-.1,1.4.4l23.47,40.38c.28.49-.72,1.23-1.22,1.51-.16.09-.33.13-.5.13Z"/>
          <path class="cls-19" d="m470.95,175.09s0,0,0,0c.04-.67-.56-1.19-1.21-1.07l-43.11,7.96c-19.88,34.24-18.83,31.96-18.44,32.7.54,1.06-.47.31,37.65.97,25.47-40.91,25.08-40.04,25.11-40.57Zm-26.24,38.5l-33.84-.38,17.06-29.38,39.9-7.37-23.12,37.13Z"/>
        </g>
        <g class="cls-34">
          <path class="cls-20" d="m491.02,232.04c-9.83,0-17.83-8-17.83-17.83,0-2.87.66-5.61,1.97-8.15.1-.2.35-.28.55-.18.2.1.28.35.18.55-1.24,2.42-1.88,5.03-1.88,7.77,0,9.38,7.63,17.01,17.01,17.01,2.47,0,4.84-.52,7.07-1.53.21-.09.45,0,.54.2.09.21,0,.45-.2.54-2.33,1.07-4.83,1.61-7.41,1.61Z"/>
        </g>
        <path class="cls-31" d="m491.02,240.49c-14.49,0-26.27-11.79-26.27-26.27s11.79-26.27,26.27-26.27,26.27,11.79,26.27,26.27-11.79,26.27-26.27,26.27Zm0-49.27c-12.68,0-22.99,10.31-22.99,22.99s10.31,22.99,22.99,22.99,22.99-10.31,22.99-22.99-10.31-22.99-22.99-22.99Z"/>
        <g class="cls-34">
          <path class="cls-20" d="m491.02,234.6c-11.24,0-20.39-9.15-20.39-20.39s9.15-20.39,20.39-20.39,20.39,9.15,20.39,20.39-9.15,20.39-20.39,20.39Zm0-39.96c-10.79,0-19.57,8.78-19.57,19.57s8.78,19.57,19.57,19.57,19.57-8.78,19.57-19.57-8.78-19.57-19.57-19.57Z"/>
        </g>
        <path class="cls-19" d="m491.46,215.24c-.36,0-.71-.19-.9-.53l-27.64-50.3c-.26-.48-.4-1.03-.4-1.57v-3.26c0-.64-.15-1.3-.33-1.4-.19-.11-.96.03-1.51.36l-4.81,2.89c-.49.29-1.12.13-1.41-.35-.29-.49-.13-1.12.35-1.41l4.81-2.89c1.02-.61,2.7-.88,3.74-.29,1.04.59,1.21,1.9,1.21,3.1v3.26c0,.2.05.41.15.59l27.64,50.3c.27.5.09,1.12-.41,1.39-.16.09-.33.13-.49.13Z"/>
        <path class="cls-5" d="m443.08,138.17c-.65-1.35-2.35-7.8-2.35-7.8l-10.71.68s5.08,11.14,6.13,13.31c2.96,2.66,14.98,10.75,16.1,11.65.5.4,1.32,1.14,1.7,1.81.84,1.49,1.08,2.2,1.86,3.65.88,1.66,6.08-.9,6.08-2.36,0-1-2.04-2.65-3.66-3.98-.73-.6-14.56-15.75-15.14-16.96Z"/>
        <path class="cls-19" d="m433.88,111.78c-2.71.88-4.54,2.8-3.77,10.73.77,7.93,2.55,13.82,2.55,13.82,0,0,7.78,1.21,12.37-1.9,0,0-1.84-25.67-11.14-22.66Z"/>
        <path class="cls-31" d="m409.09,240.49c-14.49,0-26.27-11.79-26.27-26.27s11.79-26.27,26.27-26.27,26.27,11.79,26.27,26.27-11.79,26.27-26.27,26.27Zm0-49.27c-12.68,0-22.99,10.31-22.99,22.99s10.31,22.99,22.99,22.99,22.99-10.31,22.99-22.99-10.31-22.99-22.99-22.99Z"/>
        <path class="cls-20" d="m409.09,234.6c-11.24,0-20.39-9.15-20.39-20.39s9.15-20.39,20.39-20.39,20.39,9.15,20.39,20.39-9.15,20.39-20.39,20.39Zm0-39.96c-10.79,0-19.57,8.78-19.57,19.57s8.78,19.57,19.57,19.57,19.57-8.78,19.57-19.57-8.78-19.57-19.57-19.57Z"/>
        <path class="cls-20" d="m409.09,232.04c-9.83,0-17.83-8-17.83-17.83,0-2.87.66-5.61,1.97-8.15.1-.2.35-.28.55-.18.2.1.28.35.18.55-1.24,2.42-1.88,5.03-1.88,7.77,0,9.38,7.63,17.01,17.01,17.01,2.47,0,4.84-.52,7.07-1.53.21-.09.45,0,.54.2.09.21,0,.45-.2.54-2.33,1.07-4.83,1.61-7.41,1.61Z"/>
        <path class="cls-20" d="m421.81,202.72c-.11,0-.22-.04-.3-.13-3.2-3.42-7.73-5.38-12.41-5.38-.23,0-.41-.18-.41-.41s.18-.41.41-.41c4.91,0,9.65,2.06,13.01,5.64.15.17.15.43-.02.58-.08.07-.18.11-.28.11Z"/>
        <path class="cls-12" d="m427.46,193.72c-.28,0-.56-.1-.8-.29-4.9-4.15-11.14-6.43-17.57-6.43-5.43,0-10.67,1.59-15.15,4.61-.56.38-1.33.23-1.71-.34-.38-.56-.23-1.33.34-1.71,4.89-3.29,10.61-5.02,16.53-5.02,7.01,0,13.82,2.49,19.17,7.02.52.44.58,1.22.14,1.74-.24.29-.59.44-.94.44Z"/>
        <path class="cls-25" d="m409.09,211.48c-.17,0-.31-.13-.32-.3,0-.17.13-.32.3-.33l36.18-1.68c.17,0,.32.13.33.3,0,.17-.13.32-.3.33l-36.18,1.68s-.01,0-.02,0Z"/>
        <path class="cls-25" d="m445.78,219.26s0,0-.01,0l-36.69-1.68c-.17,0-.31-.16-.3-.33,0-.17.16-.32.33-.3l36.69,1.68c.17,0,.31.16.3.33,0,.17-.15.3-.32.3Z"/>
        <circle class="cls-20" cx="445.27" cy="214.21" r="5.9"/>
        <g>
          <path class="cls-20" d="m453.69,228.63c-.14,0-.27-.07-.35-.19l-8.42-13.6c-.12-.19-.06-.45.13-.57.19-.12.45-.06.57.13l8.42,13.6c.12.19.06.45-.13.57-.07.04-.14.06-.22.06Z"/>
          <path class="cls-25" d="m449.17,229.71c-.4,0-.75-.29-.81-.7-.07-.45.24-.87.69-.93l9.03-1.33c.45-.07.87.24.93.69.07.45-.24.87-.69.93l-9.03,1.33s-.08,0-.12,0Z"/>
        </g>
        <path class="cls-25" d="m415.61,170.18h8.01c.59,0,1.08.48,1.08,1.08v1.29c0,.59-.48,1.08-1.08,1.08h-10.11c-.79,0-1.33-.83-.98-1.53.56-1.13,1.73-1.9,3.08-1.9Z"/>
        <path class="cls-25" d="m409.09,218.6c-2.42,0-4.38-1.97-4.38-4.38s1.97-4.38,4.38-4.38,4.38,1.97,4.38,4.38-1.97,4.38-4.38,4.38Z"/>
        <circle class="cls-30" cx="409.09" cy="214.21" r="3.75"/>
        <path class="cls-32" d="m410.16,214.21c0,.59-.47,1.06-1.06,1.06s-1.06-.47-1.06-1.06.48-1.06,1.06-1.06,1.06.47,1.06,1.06Z"/>
        <path class="cls-30" d="m487.27,214.21c0,2.07,1.68,3.75,3.75,3.75s3.75-1.68,3.75-3.75-1.68-3.75-3.75-3.75-3.75,1.68-3.75,3.75Z"/>
        <path class="cls-32" d="m492.08,214.21c0,.59-.48,1.06-1.06,1.06s-1.06-.47-1.06-1.06.47-1.06,1.06-1.06,1.06.47,1.06,1.06Z"/>
        <path class="cls-5" d="m461.33,156.2s-1.13-1.24-2.88-1.1c-1.75.14-.9,1.5-.9,1.56s2.97,1.49,2.97,1.49c0,0-.56-1.45-.15-1.69.4-.24.96-.26.96-.26Z"/>
        <path class="cls-5" d="m438.05,227.57s-.31,5.47-.31,5.48c-.11.69-.56,2.41-.56,3.04,0,2.37,10.55-2.01,8.19-3.06-.21-.1-1.34-.81-1.41-1.62-.11-1.24-.38-3.76-.38-3.76l-5.53-.08Z"/>
        <path class="cls-25" d="m445.34,233s-2.48.73-3.75.91-2.94-1.35-3.84-.93c-.99.45-.89,4.93-.89,4.93,0,0,13.23.78,16.96-.42,1.48-.48-3.42-2.79-8.49-4.48Z"/>
        <path class="cls-5" d="m414.8,228.09s-.31,5.47-.31,5.48c-.11.69-.56,2.41-.56,3.04,0,2.37,10.55-2.01,8.19-3.06-.21-.1-1.67-1.35-1.74-2.16-.11-1.24-.05-3.22-.05-3.22l-5.53-.08Z"/>
        <path class="cls-25" d="m422.09,233.53s-2.48.73-3.75.91c-1.27.18-2.94-1.35-3.84-.93-.99.45-1.03,4.54-1.03,4.54,0,0,14.14,1.03,17.47.06,1.49-.43-3.79-2.89-8.85-4.58Z"/>
        <path class="cls-31" d="m431.52,149.12l1.96,2.98,11.89,43.77-.38,33.6-7.52.18s-3.5-29.39-3.5-31.67-16.21-39.86-16.21-39.86l13.77-8.99Z"/>
        <path class="cls-30" d="m431.21,151.96s-6.42,34.16-6.42,39.98-2.67,38.4-2.67,38.4l-7.54-.04s-.54-9.93-1.35-24.54c-.13-2.29.16-6.91,0-9.27-1.17-17.04-3.49-29.26-2.39-35.62.18-1.02,2.81-7.79,3.46-8.47,4.94-5.11,16.9-.44,16.9-.44Z"/>
        <path class="cls-31" d="m431.78,105.46s-1.21-2.14-2.26-3.19c-1.05-1.05-2.48-4.05-2.04-7.52s3.09-4.83,4.55-5.23c1.45-.4,6.91-.38,8.74.52,1.83.9.89,7.84.89,7.84l-2.91,5.35-6.96,2.23Z"/>
        <path class="cls-12" d="m438.66,112.21c.12.12,3.59,7.7,2.93,13.15-1.21,9.95-6.28,26.19-8.11,26.74-14.65,4.41-20.01,1.11-20.01,1.11,0,0,5.81-30.21,9.16-37.05,1.39-2.85,3.1-5.27,6.33-5.78.74-.12,6.85-1.02,9.69,1.83Z"/>
        <path class="cls-4" d="m438,106.49l.65,5.97s.15,1.67-.68,2.32c-1.43,1.13-6.76-4.59-6.76-4.59l.58-9.4,6.21,5.69Z"/>
        <path class="cls-12" d="m431.62,103.62c1.32,3.82,4.83,5.65,6.72,5.93l-.33-3.06-6.21-5.69-.18,2.83Z"/>
        <path class="cls-4" d="m434.72,91.32c2.78-1.11,5.89.62,6.47,3.51.25,1.26.5,2.84.62,4.59.28,4.19-1.68,8.38-3.59,8.47-1.9.09-7.3-2.36-7.79-8.3-.3-3.67,1.37-7.1,4.29-8.27Z"/>
        <path class="cls-4" d="m431.86,99.99c.05.92-.53,1.71-1.29,1.74-.76.04-1.41-.68-1.45-1.61-.05-.92.53-1.7,1.29-1.74.76-.04,1.41.68,1.45,1.61Z"/>
        <path class="cls-31" d="m430.4,98.39s-.42-1.99-.23-3.91c.19-1.92,1.77-4.61,3.72-5.01,1.95-.4,6.5.34,7.08-.9.59-1.24.59-1.11.79-1.31.46-.44,3.18,1.39,3.06,4.64s-2.99,3.14-3.55,3.23c-.56.09-5.63-2.04-7.18-1.95-1.55.09-3.7,5.21-3.7,5.21Z"/>
        <path class="cls-6" d="m405.74,76.4c-.34,2.67-.76,2.5-.79,2.84-.04.41,2.4,5.3,2.4,5.3,0,0,7.09,14.46,7.5,15.23l12.61,10.64-3.27,7.86s-13.43-11.94-14.02-12.69c-.6-.75-7.98-21.41-8.69-23.21,0,0-1.61-1.84-2.58-3.02-.97-1.19-1.39-2.75-1.61-3.13-.03-.06-.71-1.35-1.14-3.18-.37-1.57.68-.24.68-.24,0,0,1.18,2.79,1.38,2.66.15-.1-.58-1.59-1-3.32-.11-.45-.21-.89-.31-1.29-.25-1.06.32-1.51.75-.44.15.38.39,1.01.5,1.49.12.51.38.95.54,1.37.32.83.54,1.44.57,1.41.03-.04.21.08.11-.4-.12-.57-.64-1.73-.75-2.59-.07-.48-.26-1.49-.26-1.49,0,0-.02-1.57.07-1.6.48-.17.79.91.8,1.58.22.43.39,1.49.39,1.49,0,0,.83,2.08,1.11,1.96.12-.05-.24-1.38-.39-2.74-.14-1.26-.09-2.56.15-2.63.4-.11.71,1.28.71,1.28,0,0,.16.98.24,1.31.09.38.45,1.49.45,1.49,0,0,1.42,3.82,1.68,3.69.26-.13.8-.74.79-1.01s-.27-.75-.28-1.02c0-.27.2-.62.52-.65.32-.03.84,1.25.84,1.25,0,0,.42,1.04.32,1.81Z"/>
        <path class="cls-17" d="m420.88,104.24c.5-.12,13.8,8.01,13.96,11.17s-4.39,8.18-8.2,6.15c-3.81-2.03-11.57-10.2-11.57-10.2,0,0,4.21-6.74,5.81-7.12Z"/>
      </g>
      <g>
        <g>
          <path class="cls-4" d="m166.53,235.79s2.78,6.7,2.78,6.71c.12.74.6,2.57.6,3.24,0,2.53-11.17-2.15-8.67-3.27.23-.1.94-.91,1.01-1.77.11-1.33-.94-2.99-.94-2.99l5.22-1.92Z"/>
          <path class="cls-25" d="m170.54,246.58s-.26-3.79-1.2-4.24c-.88-.42-2.48,1.27-3.72,1.08-1.24-.19-4.05-1.24-4.05-1.24-4.97,1.8-8.66,2.95-7.92,4.4h16.89Z"/>
          <path class="cls-4" d="m149.42,237.81s1.62,4.68,1.62,4.69c.12.74.6,2.57.6,3.24,0,2.53-11.17-2.15-8.67-3.27.23-.1.94-.91,1.01-1.77.11-1.33-.94-2.99-.94-2.99l6.38.1Z"/>
          <g>
            <path class="cls-31" d="m134,149.05l-4.05,10.55s-2.64,25.18-1.1,40.26c.64,6.3,14.56,40.06,14.56,40.06l6.91-.99-7.17-39.54,1.32-15.71,4.82-30.21-15.29-4.41Z"/>
            <path class="cls-30" d="m138.84,150.3l-2.48,11.03s1.03,25.3,4.73,40c1.55,6.15,20.2,37.53,20.2,37.53l6.7-1.98-12.81-38.09,1.2-37.53-1.76-8.8-15.77-2.15Z"/>
          </g>
          <path class="cls-25" d="m152.27,246.58s-.27-3.76-1.27-4.21c-.95-.43-2.7,1.24-4.04,1.05-1.34-.19-3.97-.97-3.97-.97-5.36,1.8-9.76,2.68-8.96,4.13h18.24Z"/>
          <g>
            <path class="cls-1" d="m131,61.45c-1.54,2.22-1.86,1.86-2.05,2.15-.22.34-.2,5.87-.2,5.87,0,0-.03,16.29,0,17.17l6.89,15.51-6.67,5.45s-7.05-17.06-7.26-18.01c-.21-.95,2.39-22.91,2.56-24.86,0,0-.66-2.41-1.02-3.93-.36-1.52-.03-3.12-.07-3.56,0-.07-.04-1.55.4-3.37.38-1.57.74.11.74.11,0,0-.18,3.05.07,3.03.19-.02.19-1.69.59-3.44.1-.45.21-.89.31-1.3.26-1.07.99-1.2.9-.04-.03.41-.1,1.09-.22,1.57-.13.51-.08,1.03-.12,1.48-.08.89-.16,1.54-.12,1.53.05-.02.16.17.28-.3.15-.57.2-1.85.49-2.67.16-.46.44-1.45.44-1.45,0,0,.63-1.55.73-1.54.53.08.4,1.33.09,1.93,0,.48-.32,1.52-.32,1.52,0,0-.18,2.25.14,2.28.26.03,1.74-5.25,2.26-5.13.43.1.05,1.71.05,1.71,0,0-.3.95-.38,1.28-.09.38-.26,1.54-.26,1.54,0,0-.43,4.08-.12,4.09.3,0,1.09-.28,1.2-.52.11-.24.09-.8.2-1.04.11-.24.47-.46.78-.33.31.12.21,1.51.21,1.51,0,0-.09,1.13-.53,1.77Z"/>
            <path class="cls-27" d="m134.17,96.62l-9.38,5.78s3.57,8.64,6,11.73c2.95,3.75,8.32,5.5,8.69,5.05,1.02-1.27,3.03-2.83,2.93-5.01-.35-7.56-8.24-17.55-8.24-17.55Z"/>
            <path class="cls-12" d="m127.02,62.5c.33-1.17.99-2,2.1-2.43-1.37-.09-2.3,1.27-2.1,2.43Z"/>
          </g>
          <path class="cls-28" d="m151.8,106.52s5.21.73,6.59,1.75c1.55,1.14,6.33,6.48,6.33,6.48,0,0-9.96,28.74-9.58,33.86.39,5.11,1.48,12.69,1.48,12.69,0,0-19.35,1.23-26.68-1.68,0,0,2.31-11.59,2.31-14.63s1.69-26.03,2.41-28.38c.54-1.76,2.6-9.17,6.14-9.95,3.54-.78,10.99-.13,10.99-.13Z"/>
          <path class="cls-4" d="m150.38,98.31l1.27,8.2s-3.71,6.27-6.52,5.39c-2.36-.74-1.89-5.53-1.89-5.53,0,0,1.29-4.82.9-7.23-.39-2.41,6.24-.84,6.24-.84Z"/>
          <path class="cls-12" d="m144.13,99.15c-.39-2.41,6.24-.84,6.24-.84l.11.71c-.19.47-.43.88-.72,1.19-1.48,1.59-3.8,2.55-5.8,2.63.2-1.3.32-2.69.17-3.68Z"/>
          <g>
            <path class="cls-4" d="m151.46,86.27c.19-.07,1.5,9.69-.99,12.38-2.5,2.69-7.36,3.57-9.1,1.45-1.93-2.34-1.83-12.83,2.05-15.6s8.05,1.77,8.05,1.77Z"/>
            <path class="cls-21" d="m144.9,79.28c3,.61,4.94,2.44,5.65,3.23,1.36.16,3.21.91,5.12,4.08,2.35,3.89.61,8.2-2.12,10.32-2.74,2.12-2.68,4.59-2.68,4.59l-.45-1.29c-.32-.96-.45-1.97-.34-2.98.06-.6.19-1.25.44-1.79.66-1.41-1.41-2.35-1.99-3.53-.45-.91-.47-2.98-1.17-4.47l-.84-1.14s-1.94-1.51-3.84-1.08c-1.9.43-1.63-6.71,2.22-5.93Z"/>
            <path class="cls-4" d="m148.66,93.64c-.02,1.19.52,2.17,1.21,2.18.69.01,1.26-.94,1.28-2.14.02-1.19-.52-2.17-1.21-2.18s-1.26.94-1.28,2.14Z"/>
          </g>
          <path class="cls-15" d="m171.19,125.04l-8.72,6.85s-3.85-3.72-5.79-7.83c-1.96-4.16-.24-16.32,1.84-15.76,4.66,1.26,12.66,16.74,12.66,16.74Z"/>
        </g>
        <g>
          <path class="cls-31" d="m166.12,136.55c9.61,4.04,12.7-4.78,12.46-4.55.18-.2,1.63-.84,2.55-1.31,3.85-1.93,6.18-6.41,6.09-10.92,5.52-3.43,6.96-10.7,3.17-14.72,1.17-4.47-1.91-9.37-5.82-11.64-2.96-5.27-10.43-3.01-14.45,1.12-2.04,2.09-3.22,5.16-3.19,8.22-4.74,2-7.21,7.33-6.14,12.71-6.39,5.37-4.48,16.96,5.32,21.08Z"/>
          <path class="cls-19" d="m201.22,165.3l1.64-.42c-.03-.13-3.15-12.76-6.47-25.34-1.95-7.39-3.59-13.32-4.87-17.62-2.53-8.47-3.09-8.71-3.59-8.91l-.64,1.6c-.12-.05-.18-.12-.18-.12.4.47,1.98,3.96,7.85,26.26,3.24,12.3,6.23,24.43,6.26,24.55Z"/>
          <g>
            <path class="cls-4" d="m145.79,164.94s.74-.59.97-.8c.27-.25,1.02-1.07,1.02-1.07,0,0,2.48-2.97,2.25-3.14-.23-.17-.94.11-1.16.23-.22.13-.48.26-.7.39-.22.13-.49.07-.67-.19-.18-.26.57-.96.88-1.16.96-.6,3.86-1.67,4.16-1.8.36-.15,3.71-6.09,5.03-8.04,0,0,0,0,0,0,2.05-3.25,4-6.69,4.22-7.03l4.42-15.86,6.43-.64s-4.66,17.67-4.99,18.53c-.16.41-5.5,7.57-5.5,7.56-2.85,3.36-5.37,6.31-5.84,6.89,0,0-.93,2.11-1.45,3.5-.52,1.38-1.54,2.45-1.75,2.81-.03.05-.67,1.35-1.97,2.55-1.13,1.03-.53-.47-.53-.47,0,0,1.75-2.29,1.54-2.4-.16-.08-1.04,1.23-2.27,2.38-.32.3-.63.59-.92.85-.76.7-1.41.42-.72-.44.24-.3.65-.8,1-1.11.37-.33.61-.76.88-1.09.54-.66.93-1.13.89-1.13-.05-.01-.04-.22-.38.09-.42.37-1.13,1.34-1.79,1.83-.37.28-1.11.91-1.11.91,0,0-1.31.89-1.38.82-.37-.34.39-1.25.94-1.56.25-.38,1.05-1.02,1.05-1.02,0,0,1.32-1.66,1.09-1.86-.19-.16-4.12,3.19-4.47,2.82-.28-.3.85-1.36.85-1.36Z"/>
            <path class="cls-13" d="m152.85,160.22s-1.97.75-2.81-.26c0,0,.25.76,1.05.9.8.14,1.76-.63,1.76-.63Z"/>
          </g>
          <path class="cls-4" d="m180.38,169.42l-3.64,33.66s1.78,7.12,1.56,9.14c-.21,2.02-3.96,28.55-3.96,28.55l.17,1.46.09,4.32-13.99.11s2.95-1.37,7.07-4.07c.31-.2,1.01-.84,1.18-2.11,1.1-8.18-1.08-35.44-1.08-35.44l-1.72-35.5,14.3-.11Z"/>
          <path class="cls-4" d="m188.34,175.8c.78.2,1.99,29.09,2.64,30.37,4.12,8.12,5.1,32.79,5.1,32.79l1.7,3.46-.39,3.33s-3.07,1.82-5.23.59l.33-3.33.25-4.45-10.39-30.74-5.69-31.36,11.67-.65Z"/>
          <path class="cls-24" d="m161.71,191.46l-.49-19.93c-.09-5.63,1.73-11.04,3.96-16.17l4.71-8.21c1.52.5,2.36-4.15,3.95-3.96,1.2.14,2.03.43,3.15.5,2.11.13,3.39,4.39,5.64,4.12.01.14,1.41.67,1.45.77,1.08,3.01,3.83,6.23,5.3,15.18,1.67,10.15,1.66,27.6,1.45,28.79-15.96.73-19.76,1.3-29.12-1.09Z"/>
          <path class="cls-24" d="m174.67,247.64h-14.44c-.53-.05-.66-.5-.48-.78.38-.57,2.07-.99,3.96-1.91,3.32.36,10.27-2.17,10.79-2.96.3,1.6.46,5.58.17,5.65Z"/>
          <path class="cls-24" d="m197.76,242.41s-1.28,3.77-2.67,3.66c-1.39-.11-2.6-3.08-2.6-3.08,0,0-.52,2.5-.28,3.88.24,1.38,2.22,2.79,3.57,2.17,1.35-.62,3.19-3.81,1.98-6.63Z"/>
          <path class="cls-18" d="m170.92,134.26s-2.01-.26-3.94-.95c-1.16-.42-3.08-1.33-3.08-1.33,0,0,1.08-9.39,3.8-15.07,1.12-2.35,2.26-3.48,3.85-3.76.01,0-.63,21.11-.63,21.11Z"/>
          <path class="cls-12" d="m167.43,123.63c.41-1.52,1.32-3.53,1.84-4.91.88-2.35,1.14-4.54,1.92-5.47.42-.5,5.81-.43,6.47-.5.27-.03,1.35.04,2.39.11h0c.61.07,6.68.56,7.56.95,4.37,4.38,6.49,10.28,9.78,16.73,0,0-2.46,1.45-4.43,2.36-.85.4-2.49,1.03-2.49,1.03l-3.79-6.53s-.24-.25-.3-.11c-.09.22-2.85,20.56-2.85,20.56,0,0-11.22.94-13.85-.35,0,0-.49-13.58-1.46-17.56-.36-1.46-1.46-3.85-.8-6.31Z"/>
          <path class="cls-4" d="m180.79,106.62s-.84,4.74-.67,6.6c.17,1.87-.64,7.89-4.27,7.91-3.63.02-1.16-6.25-.82-8.08.34-1.83.9-8.9.9-8.9l4.87,2.47Z"/>
          <path class="cls-13" d="m175.7,106.84c.06-1.55.22-2.7.22-2.7l4.87,2.47s-.17.97-.34,2.2c-2.13.47-3.82-.54-4.74-1.98Z"/>
          <path class="cls-4" d="m180.89,92.86s2.05.75,3.16,3.03,1.48,8.66-3.01,11.11c-4.49,2.45-7.45-2.07-7.17-6.12.28-4.05,1.52-9.36,7.02-8.02Z"/>
          <path class="cls-4" d="m173,99.5c.28,1.02.95,1.7,1.49,1.53.54-.17.76-1.13.47-2.15-.28-1.02-.95-1.7-1.49-1.53-.54.17-.76,1.13-.47,2.15Z"/>
          <path class="cls-4" d="m183.66,101.52c-.39,1.02-.2,2.08.44,2.38.64.3,1.47-.28,1.87-1.3.39-1.02.2-2.08-.44-2.38-.64-.3-1.47.28-1.87,1.3Z"/>
          <path class="cls-18" d="m185.02,165.23v6.46c0,3.36,2.37,6.08,5.28,6.08h5.44v-15.07h-8.53c-.58,0-1.11.26-1.51.69-.42.46-.68,1.11-.68,1.83Z"/>
          <path class="cls-12" d="m185.7,163.4h.04c1.12,0,2.03,1.05,2.03,2.34v4.75c0,4.02,2.83,7.28,6.32,7.28h3.31c3.49,0,6.32-3.26,6.32-7.28v-4.73c0-1.69-1.19-3.05-2.65-3.05h-13.87c-.58,0-1.11.26-1.51.69Z"/>
          <path class="cls-19" d="m185.01,165.1h1.69c0-.13-.05-12.12.11-24.35.09-7.18.24-13.03.44-17.39.34-7.46.75-8.79.87-9.01.02-.4-.18-1.33-.18-1.33-.3-.13-.64-.09-.92.1-.44.3-.71.88-.97,3.19-.17,1.43-.31,3.46-.44,6.04-.21,4.32-.37,10.24-.48,17.59-.17,12.52-.12,25.04-.12,25.17Z"/>
          <path class="cls-6" d="m176.52,153.61c-.22.05-1.71.13-1.71.13,0,0-2.18-1.32-2.5-.7-.1.19,2.26,1.53,2.26,1.53,0,0,2.28.08,2.82.06,1.01-.02,3.15-.31,6.32-2.67,2.75-1.4,16.54-9.45,16.75-10.98.12-.91-1.98-5.63-4.01-9.91-.9.5-2.29,1.26-3.5,1.83-.57.26-1.49.63-2.03.85,1.32,2.55,2.57,5.17,2.4,5.71-.14.48-11.93,9.47-11.93,9.47l-2.35-.32s-4.15.49-4.25.99c-.1.49,1.75.36,2,.44.14.04.41.14.64.29-.68.33-1.76.85-2.37.87-1.39.05-3.01-.15-3.18.05-.2.23,1.91.88,3.41.97.61.03.98-.15,1.25-.1.36.08-.27.37-1.29.3-.58-.04-1.6-.36-2.24-.45-1.05-.15-1.64-.07-1.73.02-.15.15,2.99,1.16,2.99,1.16,0,0,2.04.27,2.5.24,0,0,.28.12-.26.23Z"/>
        </g>
      </g>
      <g>
        <g>
          <path class="cls-4" d="m297.86,243.34c-.2-1.42.25-3.86,1.36-7.68-2.2,0-4.05-.97-6.3-.94-.61,3.59-1.57,9.49-1.57,9.49l-.1,4.66,15.66.12s-.13.07-4.75-2.85c-.34-.22-4.11-1.43-4.3-2.81Z"/>
          <path class="cls-33" d="m291.18,250.08h16.17c.6-.05.74-.54.54-.84-.43-.62-3.58-2.11-5.7-3.09-3.72.39-10.25-1.14-10.84-2-1.02,2.85-.49,5.86-.16,5.94Z"/>
        </g>
        <g>
          <path class="cls-4" d="m278.35,243.34c-.2-1.42-.53-3.2-.04-7.93-2.2,0-4.3-.41-6.54-.37,0,3.7.08,9.18.08,9.18l-.1,4.66,15.66.12s-.13.07-4.75-2.85c-.34-.22-4.11-1.43-4.3-2.81Z"/>
          <path class="cls-33" d="m271.67,250.08h16.17c.6-.05.74-.54.54-.84-.43-.62-3.58-2.11-5.7-3.09-3.72.39-10.25-1.14-10.84-2-1.02,2.85-.49,5.86-.16,5.94Z"/>
        </g>
        <path class="cls-4" d="m289.73,108.1l5.89-6.21s6.31,3.47,13.66,6.78c2.02-3.52,5.32-15.09,5.5-15.64.18-.55-3.86-7.5-2.96-7.68.9-.17,2.08,3.71,3.03,3.32s3.41-9.41,3.99-8.92c1.08.92-1.29,5.61-.73,5.95.57.34,2.01-5.19,3.1-4.96,1.1.24-1.85,5.04-1.53,5.5.32.46,3.4-4.04,4.04-3,.35.57-2.84,3.92-2.18,4.3.66.38,3.52-1.74,3.87-1.05.34.69-2.68,1.4-3.52,3.13-.84,1.73-2.36,2.41-2.87,5.69-.51,3.27-1.89,20.8-5.46,22.2-3.12,1.23-23.83-9.41-23.83-9.41Z"/>
        <path class="cls-23" d="m293.54,141.62l-4.78,2.66-9.71,14.85,17.37,40.87s-1.96,6.15-2.59,9.22c-.67,3.21-2.3,30.79-2.3,30.79l7.41.12s7.04-29.36,8.23-38.89c1.45-11.57-7.36-39.13-7.36-39.13-1.64-5.62-5.19-17.19-5.19-17.19,0,0-.87-2.82-1.07-3.31Z"/>
        <path class="cls-29" d="m276.91,136.05s.49,3.49-1.48,7.48c-1.2,2.43-3.28,4.33-4.77,7.31-2.82,5.63-4.35,13.63-3.29,18.77,0,0,5.83,22.26,5.6,30.39-.09,3-1.11,8.4-1.77,12.06-.58,3.23-.78,27.59-.78,27.59l8.27-.25,6.34-39.3,2.68-34.94,5.84-23.53-16.63-5.58Z"/>
        <path class="cls-19" d="m294.43,84.76c-.73-3.45-1.49-6.92-4.92-9.41-2.78-2.01-5.76-2.59-8.93-1.44-8.97,3.25-4.14,10.37-15.27,17.95-3.46,2.36-4.77,3.18-7.25,6.32-3.47,4.4-5.37,10.29-3.63,15.15,3.61,10.04,14.8,12.94,20.65,10.81,10.89-3.96,19.97-17.78,20.57-21.55.65-4.03-.76-15.61-1.23-17.83Z"/>
        <path class="cls-28" d="m296.17,112.01c2.64,1.22,7.41,3.05,7.41,3.05l2.72-8.59c-15.35-8.73-14.15-7.32-25.67-7.15-9.21.13-13.06-1.63-20.99,19.77,0,0,6.03,2.71,8.2,3.58.93-2.65,2.61-7.92,3.59-4.91,1.48,4.54,2.56,9.13,3.29,13.85.46,2.8,1.47,6.38.94,9.24,0,0,6.27,1.29,11.06,1.5.01,0,.03,0,.04,0,2.31-.06,4.68-.26,6.79-.72,0,0,.94-19.85,1.44-20.68.56-.92,2.9-3.88.91-8.31-.35-.78-.26-.88.29-.62Z"/>
        <path class="cls-4" d="m284.65,146.46c.11.01.6-.05,1-.04.55.01,1.04.09,1.04.09,0,0,.22-.19.63-.38.17-.08.45-.11.65-.2.2-.09.37-.26.55-.35.49-.21.94-.26,1.09,0,.12.21-2.6,1.88-2.6,1.88-2.52.01-5.16,1.3-10.99-2.51-3.33-1.46-19.52-9.45-19.85-11.2-.18-.98,2.3-8.55,4.33-14.3,1.57.7,4.89,2.18,6.76,2.96-1.71,3.62-3.72,8.42-3.51,9.01.05.15.26.43,11.2,7.6.28.18.56.37.84.55.77.5,1.6,1.04,2.47,1.61l3.12-.33s4.94.34,5.09.9c.06.26-.35.39-.85.46h-.01c-.07,0-.15.02-.22.03h0c-.54.06-1.12.07-1.25.12-.16.05-.47.18-.75.37,3.08,1.26,2.84.81,3.87.75.26-.02.53.05.77.03.41-.03.75-.28,1.07-.3.47-.02.85.19.93.28.11.11-.09.27-.49.44-2.38,1.03-4.35.64-4.98.79-.42.1.35.26,1.56.13.3-.03.7.08,1.1-.01.27-.06.51-.23.77-.3.24-.06.49-.05.69-.09.27-.05.64-.25.85-.28.79-.09,1.18.05,1.26.12.18.16-3.41,1.54-3.41,1.54,0,0-2.47.36-3.03.36,0,0-.33.15.32.25Z"/>
        <path class="cls-4" d="m281.76,90.84s-.7,5.67-1.12,7.64c-.43,2.06-1.08,8.54,3.19,9.6,4.27,1.05,2.95-7.06,3.02-9.15.07-2.09,1.28-9.39,1.28-9.39l-6.37,1.31Z"/>
        <path class="cls-12" d="m281.53,92.65s.08.05.13.08c2.36,1.35,4.41,1.14,5.96.09.28-1.81.52-3.29.52-3.29l-6.37,1.31s-.09.76-.23,1.81Z"/>
        <path class="cls-4" d="m283.04,76.08s-2.5.7-3.95,3.19c-1.44,2.48-2.16,9.62,3.15,12.67,5.31,3.05,9.08-1.83,8.92-6.4-.16-4.56-1.43-10.6-8.12-9.46Z"/>
        <path class="cls-4" d="m292.34,83.58c.06,1.19-.45,2.18-1.13,2.21-.69.03-1.29-.9-1.35-2.09-.06-1.19.45-2.18,1.13-2.21.69-.03,1.29.9,1.35,2.09Z"/>
        <path class="cls-19" d="m283.8,75.89s-2.86,7.46-5.67,8.26c-2.8.8-2.58,4.47-2.58,4.47,0,0-.36-8.49,2.2-10.57,2.56-2.08,6.04-2.16,6.04-2.16Z"/>
        <path class="cls-4" d="m279.33,85.61c.43,1.17.15,2.35-.63,2.65-.78.29-1.77-.41-2.2-1.58-.43-1.17-.15-2.35.63-2.65.78-.29,1.77.41,2.2,1.58Z"/>
      </g>
      <g>
        <path class="cls-1" d="m212.3,98.53s-8.67-15.48-10.78-18.77c-2.11-3.29-7.61-16.37-7.8-16.88-.2-.52,3.79-6.7,2.9-6.92-.89-.21-1.87,3.26-2.82,2.85-.95-.42-3.72-8.78-4.26-8.37-1.01.78,1.49,5.19.95,5.47-.54.28-2.17-4.85-3.23-4.7-1.06.15,2.01,4.7,1.72,5.11-.3.4-3.49-3.89-4.06-2.97-.31.5,2.93,3.75,2.31,4.05-.62.3-3.51-1.79-3.82-1.19-.31.6,2.67,1.43,3.56,3.06.89,1.63,2.41,2.33,3.03,5.35.63,3.02,1.57,13.94,4.79,19.39,3.22,5.45,10.31,17.51,10.31,17.51l7.2-2.99Z"/>
        <path class="cls-1" d="m250.74,173.24s-.71-.88-.92-1.19c-.25-.36-.91-1.51-.91-1.51,0,0-2.11-4.11-1.8-4.24.32-.13,1.07.37,1.29.58.22.21.5.43.72.64.22.21.56.22.83-.04.28-.25-.42-1.27-.73-1.58-.97-.95-4.06-2.97-4.38-3.19-.38-.27-2.73-8.08-3.74-10.69,0,0,0,0,0,0-1.54-4.32-2.9-8.85-3.06-9.3l-.97-19.63-7.33-2.44s.77,21.8.93,22.89c.08.52,4.42,10.26,4.42,10.26,2.44,4.66,4.6,8.77,5,9.57,0,0,.53,2.71.77,4.45s1.16,3.26,1.3,3.74c.02.07.42,1.75,1.63,3.49,1.04,1.5.74-.41.74-.41,0,0-1.43-3.13-1.17-3.21.21-.06.89,1.7,2.02,3.37.29.43.58.85.85,1.24.71,1.01,1.53.86.96-.32-.2-.42-.55-1.1-.87-1.55-.35-.49-.51-1.05-.73-1.51-.45-.9-.79-1.56-.75-1.56.06,0,.1-.24.42.2.39.54.97,1.86,1.6,2.61.36.42,1.06,1.35,1.06,1.35,0,0,1.3,1.38,1.39,1.32.52-.3-.12-1.55-.69-2.06-.19-.51-.95-1.46-.95-1.46,0,0-1.11-2.28-.79-2.45.26-.14,3.97,4.81,4.47,4.47.41-.27-.64-1.81-.64-1.81Z"/>
        <path class="cls-25" d="m237.62,96.76c.18-4.28-.45-8.51-2.37-12.5-1.65-3.43-5.73-5.38-9.45-5.38-11.81-.02-13.31,15.59-20.83,21.61-2.3,1.84-4.86,3.34-7.04,5.32-8.03,7.32-4.41,20.88,2.96,27.3,5.11,4.46,13.15,6.99,19.46,3.5,3.29-1.82,5.79-4.84,7.57-8.15,2.53-4.7,4.15-10.12,5.95-15.13,1.91-5.33,3.51-10.88,3.75-16.57Z"/>
        <path class="cls-5" d="m200.71,234.62s-.83,5.76-2.26,7.62c-.48.62-1.36,1.41-1.93,2.54-.9,1.76-.4,4.37.26,5.81.34.74-.02.74.75.97,2.29.7,4.73-.48,5.7-2.67.54-1.22,1.02-2.85,1.12-4.91.24-5.23,1.87-7.89,1.87-7.89l-5.5-1.47Z"/>
        <path class="cls-5" d="m225.75,237.25s.51,6.49.1,8.61c-.22,1.13-1.47,3.46-.9,4.52.57,1.06,1.22,1.33,1.22,1.33l14.78.24c.81.01.27-.5-.38-.98-1.06-.78-1.92-1.3-5.32-2.93-.22-.11-1.03-.62-1.32-.8-.74-.45-1.48-1.16-2.11-1.86-1.06-1.18-1.15-6.9-1.15-6.9l-4.93-1.22Z"/>
        <path class="cls-27" d="m237.3,150.92s1.86,10.55.64,17.46c-1.22,6.91-7.09,70.99-7.09,70.99l-6.52.37s-1.37-26.77-1.12-30.49c.24-3.72,2.18-9.95,2.18-9.95l-.65-21.61,8.23-28.39,4.33,1.63Z"/>
        <path class="cls-33" d="m218.14,148.7s-5.13,7.71-6.36,14.09c-1.22,6.38.9,25.99-1.45,34.36-1.27,4.53-6.1,11.52-6.83,17.37-.73,5.85-3.61,21.17-3.61,21.17l6.52,1.29,15.14-38.27,11.88-34.59,3.04-17.81-18.33,2.39Z"/>
        <path class="cls-3" d="m222.3,104.83s-6.8-.43-9.49,2.49c-2.69,2.92,5.96,26.06,6.45,29.78.49,3.72-2.49,13.62-2.49,13.62,0,0,15.97,3.21,20.53.19,0,0,.49-26.77,0-29.43-.49-2.66-4.56-13.47-5.54-14.54-.98-1.06-9.46-2.13-9.46-2.13Z"/>
        <path class="cls-4" d="m224.56,95.76s-.04.2-.1.54c-.3,1.63-1.47,7.04-2.26,8.53-.95,1.8,3.26,7.53,7.32,6.83,1.21-.21-1.02-5.27-.91-5.8.21-1.03.48-2.43.77-3.86.16-.81.32-1.63.48-2.4.43-2.19.79-3.98.79-3.98l-6.08.15Z"/>
        <path class="cls-12" d="m224.46,96.3c.06-.34.1-.54.1-.54l6.08-.15s-.35,1.79-.79,3.98c-.15.77-.31,1.58-.47,2.39-.94-.14-1.92-.59-2.9-1.45-1.07-.94-1.77-2.06-2.2-3.26.07-.38.14-.71.18-.97Z"/>
        <path class="cls-4" d="m228.65,81.98s-2.86-.33-4.66,1.99c-1.8,2.32-3.73,9.49.73,13.38,4.46,3.9,8.87-.51,9.52-5.19.65-4.68.91-10.35-5.59-10.18Z"/>
        <path class="cls-4" d="m235.56,92.09c-.53,1.03-1.43,1.61-2,1.28s-.6-1.43-.07-2.46c.53-1.03,1.43-1.61,2-1.28.57.33.6,1.43.07,2.46Z"/>
        <path class="cls-25" d="m228.97,81.21s-3.83,6.82-6.57,7.13c-2.74.32-3.1,3.94-3.1,3.94,0,0,.98-8.35,3.69-9.96,2.71-1.61,5.97-1.11,5.97-1.11Z"/>
        <path class="cls-19" d="m203.66,247.73c-3.55.65-5.91-1.43-7.14-2.98-.9,1.76-1.34,4.38-.68,5.83.58,1.27,2.29,1.24,3.64,1.29,1.42.05,2.52-.74,3.23-1.97.33-.58.67-1.3.95-2.16Z"/>
        <path class="cls-19" d="m233.94,247.23c-3.91,1-6.8.32-8.42-.33-.42,1.18-.97,2.66-.68,3.51.36,1.04.87,1.28,1.32,1.29,3.57.09,13.08.22,15.8.26.38,0,.59-.44.35-.73-.68-.8-8.09-3.82-8.38-4Z"/>
        <path class="cls-4" d="m223.12,90.05c.22,1.21-.23,2.32-1,2.48-.78.16-1.58-.69-1.81-1.9s.23-2.32,1-2.48c.78-.16,1.58.69,1.81,1.9Z"/>
        <path class="cls-3" d="m209.89,93.51s9.59,10.3,11.02,14.45c1.43,4.15-1.39,10.09-5.28,10.35-3.89.26-12.55-18.28-12.55-18.28l6.81-6.52Z"/>
      </g>
      <g>
        <path class="cls-5" d="m503.9,228.58s.36,3.11.36,3.63v.53l-.26.54-.1.21,1.86,2.61s7.46.11,7.63.11-1-1.8-1-1.8c0,0-2.47-1.86-2.91-3.16-.44-1.3.38-4.02.38-4.02l-5.95,1.36Z"/>
        <path class="cls-5" d="m467.93,209.99s-2.66,1.65-3.07,1.98l-.41.33-.26.54-.1.21-3.2.17s-4.73-5.77-4.83-5.9c-.1-.13,1.36.2,1.36.2,0,0,2.98.4,4.28-.06,1.3-.46,3.92-3.05,3.92-3.05l2.31,5.6Z"/>
        <path class="cls-19" d="m492.08,180.84l-28.62,24.38,4.41,6.24s29.41-18.26,30.95-18.47c1.54-.21,2.79.5,3.08,1.62.29,1.12,1.03,34.83,1.03,34.83h7.64l3.99-42.43-22.48-6.16Z"/>
        <g>
          <path class="cls-5" d="m533.32,146.07c2.12-1.39,7.09-6.73,8.78-8.54.02-.21.18-1.45,1.53-3.02.96-1.11,1.68-3.64,2.31-2.92.63.72-.93,2.73-.22,2.74.71.01,4.25-3.97,4.82-3.32.57.65-3.03,4.19-2.39,4.2.64.01,3.56-3.57,4.36-2.65.8.92-3.82,3.9-3.39,4.39.43.49,3.3-1.46,3.95-.72.65.74-4.05,2.48-3.67,2.49.38,0,3.08-.07,3.1.46.02.59-6.85,1.51-7.69,2.53h0c-1.8,2.86-4.99,8.08-8.23,10.37-3.96,2.8-13.11,8.75-13.11,8.75l-4.55-5.87s11.89-7.23,14.4-8.88Z"/>
          <path class="cls-1" d="m545.73,135.59c.18.35.25.72.28,1.1-.01.06.15,1.29-.89,2.22.41-.76.86-1.6.62-3.33Z"/>
        </g>
        <g>
          <path class="cls-5" d="m491.36,139.64c-1.68-1.89-5.09-8.35-6.24-10.54.04-.21.21-1.44-.69-3.31-.63-1.32-.67-3.95-1.47-3.42-.79.53.18,2.87-.51,2.7-.69-.17-3.07-4.94-3.79-4.46-.72.48,1.83,4.83,1.21,4.68-.62-.16-2.5-4.38-3.51-3.7-1.02.68,2.67,4.76,2.13,5.12-.55.36-2.8-2.27-3.62-1.73-.82.54,3.26,3.45,2.89,3.36s-2.96-.87-3.11-.37c-.18.56,6.22,3.25,6.76,4.45h0c.99,3.23,2.71,9.11,5.23,12.16,3.09,3.74,10.37,11.88,10.37,11.88l5.92-4.48s-9.58-10.09-11.57-12.33Z"/>
          <path class="cls-1" d="m482.13,126.28c-.26.29-.43.63-.56.99,0,.06-.49,1.2.28,2.38-.2-.84-.41-1.77.27-3.37Z"/>
        </g>
        <path class="cls-31" d="m504.01,153.02h0c.86-1.29,2.35-2.02,3.89-1.91,4.54.31,13.76,1.04,14.64,1.91,1.17,1.17,4.66,8.76,1.33,19.42-3.33,10.65-5.16,9.54-7.88,9.54s-15.53-6.05-15.53-6.05l3.55-22.91Z"/>
        <path class="cls-3" d="m496.16,143.98l-5.34,6.97,6.63,9.87s-.62,7.33-1.58,9.62c-.96,2.29-6.49,11.69-6.49,11.69,0,0,13.44,8.24,26.59,7.03,0,0,3.7-19.05,4.74-20.89,1.04-1.83,11.07-10.9,11.07-10.9l-4.87-7.86-8.4,4.66s-15.36-2.48-16.1-3.22c-.74-.74-6.24-6.97-6.24-6.97Z"/>
        <path class="cls-12" d="m513.5,129.72s-5.19-2.75-6.96,1.8c0,0-4.66-.47-3.86,4.35,0,0-4.69,2.36-1.72,8.43,0,0-1.3,5.71,5.38,6.07,0,0,1,2.02,4.05,1.55,3.05-.47,3.83-1.28,3.83-1.28,0,0,5.41,1.58,7.04-3.3,0,0,3.72-.89,1.22-5.66,0,0,3.25-6.18-2.47-8.04,0,0-.67-6.32-6.52-3.94Z"/>
        <path class="cls-4" d="m515.59,143.12c-.42,1.18-.12,2.36.68,2.65.79.28,1.78-.44,2.2-1.61.42-1.18.12-2.36-.68-2.65-.79-.28-1.78.44-2.2,1.61Z"/>
        <path class="cls-4" d="m501.6,140.24c-.06,1.25.58,2.29,1.42,2.33.84.04,1.58-.94,1.63-2.19.06-1.25-.58-2.29-1.42-2.33-.84-.04-1.58.94-1.63,2.19Z"/>
        <path class="cls-4" d="m507.53,148.5c0,.08-.67,2.98-1.03,4.51-.13.57.16,1.16.69,1.4,1.43.65,4.23,1.56,6.17-.2.18-.16.27-.39.26-.63l-.24-6.91-5.85,1.83Z"/>
        <path class="cls-1" d="m507.17,150.12c1.51.76,3.41.78,5.54-.47.27-.16.52-.33.76-.5l-.09-2.48-5.85,1.83s-.16.74-.36,1.62Z"/>
        <path class="cls-4" d="m511.68,132.54s2.55.67,4.05,3.16c1.5,2.48,2.33,9.67-3.03,12.81-5.36,3.14-9.26-1.72-9.16-6.33.1-4.6,2.15-10.49,8.13-9.64Z"/>
        <path class="cls-30" d="m502.94,151.19c-2.47,1.87-5.05,11.43-6.03,13.92l-.79,4.58,10.04-17.74s-2.69-1.18-3.23-.77Z"/>
        <path class="cls-30" d="m515.13,153.61s-.3,11.78.59,15.83c.89,4.05,3.21,5.46,3.21,5.46l1.14-4.71s-1.14-10.41-1.56-16.02c-.06-.85-3.37-.56-3.37-.56Z"/>
        <path class="cls-22" d="m502.54,238c-1.14-.14.83-4.1,1.46-4.73l8.38,1.13s4.04,1.87,4.99,2.83c.23.23.26.62-.73.77-3.16.47-11.58.32-14.11,0Z"/>
        <path class="cls-22" d="m461.32,216.97c.98.59,2.77-3.26,2.88-4.15l-6.77-5.33s-5.22-1.5-6.28-.44c-.96.96,7.94,8.58,10.17,9.92Z"/>
      </g>
      <g>
        <path class="cls-22" d="m315.77,139.42s3.33-1.21,5.48,2.17c2.15,3.37.99,3.05,2.04,4.74,1.05,1.69,1.55,6.48,1.91,9.07,3.69,26.43-40.45,28.57-23.21-5.12,1.62-3.16,2.98-5.06,4.44-8.43,1.45-3.37,7.6-3.24,9.35-2.43Z"/>
        <path class="cls-3" d="m306.32,164.11l-4.45-1.55s-1.77,2.26-2.3,7.91c-.53,5.65,0,8.97,0,8.97h5.04l1.71-15.32Z"/>
        <path class="cls-3" d="m315.24,161.08c-1.51.16-12.74-.91-13.37,1.48-3.36,12.84,1.26,30.57,2.45,31.75,1.18,1.18,20.49-2.67,20.49-2.67,0,0,3.03-31.86-9.56-30.56Z"/>
        <g>
          <path class="cls-5" d="m330.58,147.92s-1.24-.59-2.37-2.68c-.72-1.34-2.87-3.06-1.98-3.34.9-.28,2.27,1.99,2.52,1.34.26-.65-2.31-5.56-1.49-5.81.81-.25,2.94,4.52,3.17,3.94.23-.58-2.17-4.75-1.02-5.11,1.15-.36,2.39,5.13,3,4.94.62-.19-.28-4.38.64-4.67.92-.29.79,5.18,1.12,5.02.18-.09,1-2.73,1.5-2.53.57.22-.96,5.66-.28,6.86.68,1.2,6.12,16.09,4.26,17.95-2.03,2.03-14.92,6.67-17.62,5.88-2.7-.8-4.24-3.47-3.6-5.11.65-1.64,13.4-5.32,13.6-5.84.2-.51-1.46-10.85-1.46-10.85Z"/>
          <path class="cls-1" d="m331.61,143.21c.39-.02.77.07,1.14.21.05.04,1.28.4,1.8,1.75-.58-.69-1.23-1.46-2.95-1.95Z"/>
        </g>
        <path class="cls-2" d="m341.56,233.14s2.49,10.17,4.35,11.77c1.86,1.6,7.92,4.65,6.33,4.98-1.59.33-13.33.6-13-1.36s.66-3.21.66-3.21l-3.11-7.27,4.76-4.92Z"/>
        <path class="cls-22" d="m353.04,250.3c-2.86.28-11.22.59-13.66.27,0,0-.46-.09-.13-2.05.08-.48.16-.91.23-1.3,2.21.58,7.02-.65,8.93-.91,2.07.99,4.4,2.47,5.16,2.6,1.09.18,1.09,1.23-.52,1.39Z"/>
        <path class="cls-2" d="m314.18,241.67s-.26,2.57-.26,3.71,1.06,4.33.57,4.82c-.49.49-14.47.43-14.47-.03s2.47-1.86,5.83-2.82c3.36-.96,4.5-4.68,3.63-6.82l4.71,1.13Z"/>
        <path class="cls-22" d="m299.79,250.19c0-.43,2.29-1.75,5.26-2.65,3.16,1.07,7.56.19,9.21-.13.5,1.32.67,2.57.41,2.83-.49.49-14.88.41-14.88-.05Z"/>
        <path class="cls-8" d="m329.36,198.66l2.51,2.22s2.82,7.64,2.99,8.15c.23.7,9.37,30.17,9.37,30.17l-6.37,2.29s-6.32-12.31-7.36-16.58c-1.05-4.27-11.51-22.16-11.51-22.16l10.38-4.1Z"/>
        <path class="cls-8" d="m318.28,203.2l-3.05,39.06h-7.07s-2.53-29.23-1.66-39.49l11.78.44Z"/>
        <path class="cls-33" d="m305.9,163.86s4.49-1.18,9.6-1.46c2.64-.15,6.19.41,6.19.41,0,0,3.23,7.24,4.19,13.17.96,5.93,6.19,24.95,6.19,24.95,0,0-10.64,8.2-26.17,2.79v-39.86Z"/>
        <path class="cls-2" d="m317.99,157.38s-.14,4.63.3,5.07c.44.43,1.04,1.16.4,2.26-.64,1.1-3.42.4-4.71-.23-1.24-.61-2.04-1.74-2.04-1.74l.65-7.34,5.41,1.98Z"/>
        <path class="cls-19" d="m316.15,159.3c-.89-.31-2.45-.91-3.65-2.87l.09-1.03,5.41,1.98s-.03,1.13-.02,2.33c-.76-.03-1.4-.26-1.83-.41Z"/>
        <path class="cls-2" d="m311.63,150.16s-.13-2.72-1.8-2.19c-1.67.53-.4,4.64.99,4.5,1.39-.13.82-2.31.82-2.31Z"/>
        <path class="cls-2" d="m316.89,141.27s2.62-.06,3.95,1.98c1.34,2.04,2.79,7.85.58,11.86-2.21,4.01-5.03,3.02-6.19,2.62-1.16-.41-3.46-1.31-4.62-5.06-1.16-3.75-.32-12.18,6.28-11.4Z"/>
        <path class="cls-31" d="m306.4,163.74c1.19,2.69,4.13,8.49,3.99,14.89-.14,6.7-5.18,11.05-5.18,11.05v3.31s5.56-.88,7.69-9.53c2.13-8.66-2.99-20.42-2.99-20.42,0,0-.73-.52-2.18-.12-.96.27-1.33.82-1.33.82Z"/>
        <path class="cls-31" d="m318.61,162.37s4.18,22.49,9.6,23.95l-.94-3.83s-5.58-18.2-5.58-19.68-3.07-.44-3.07-.44Z"/>
        <g>
          <polygon class="cls-19" points="329.92 200.86 313.71 200.86 313.71 182.38 329.92 183.11 329.92 200.86"/>
          <g>
            <path class="cls-19" d="m329.92,181.66h-15.49c-.4,0-.72.32-.72.72h0c0,.4.32.72.72.72h15.49-.01c-1.07-.41-1.06-1.04.01-1.44Z"/>
            <path class="cls-8" d="m329.48,181.88h-14.52c-.28,0-.51.23-.51.51h0c0,.28.23.51.51.51h14.52c-.49-.31-.49-.7,0-1.01Z"/>
          </g>
          <g>
            <path class="cls-22" d="m322.81,181.98h-1.02c-.22,0-.4.18-.4.4v.04h1.42v-.43Z"/>
            <path class="cls-31" d="m321.83,181.98c.24,0,.61.21.81.46l2.42,3h1.42s-2.3-2.86-2.3-2.86c-.27-.34-.75-.61-1.07-.61h-1.28Z"/>
          </g>
        </g>
        <path class="cls-2" d="m305.9,163.86s1.22,1.23,2.53,5.87c1.31,4.65,1.98,15.53,3.11,16.66,1.13,1.13,8.55,7.04,9.89,6.83,1.34-.2,4.33-3.69,5.26-3.69s.81.84.35,1.31c-.47.47-1.03,1-.76,1.28l.28.28s4.14-1.09,4.84-.68c.7.41-.67,1.37-.67,2.06s.17.69.09,1.45c-.08.77-.28,1.38-.64,1.74-.36.36-4.94,1.69-9.42,1.08s-9.94-2.76-13.99-7.76c-4.04-5-3.23-20.72-3.14-22.29.23-3.97,2.27-4.14,2.27-4.14Z"/>
      </g>
      <polygon class="cls-33" points="254.67 31.81 250.88 32.19 249.59 26.17 243.98 26.05 242.28 21.7 240.08 22.56 242.36 28.38 247.67 28.49 249.01 34.76 254.71 34.18 254.67 31.81"/>
      <path class="cls-30" d="m293.12,25.43l2.12-3.59-1.75-3.78c-.2-.43.18-.9.65-.8l4.07.91,3.06-2.83c.35-.32.92-.11.96.37l.39,4.15,3.64,2.03c.41.23.38.84-.05,1.03l-3.83,1.65-.81,4.09c-.09.47-.68.62-.99.27l-2.76-3.13-4.14.5c-.47.06-.8-.45-.56-.86Z"/>
      <path class="cls-1" d="m358.97,24.69s.26-1.65,1.86-2.33c1.43-.61,2.98.32,3.65,1.89.77,1.81.33,4.53-2.36,7.87-4.27-.39-6.53-1.97-7.29-3.78-.66-1.57-.25-3.33,1.18-3.93,1.6-.68,2.97.29,2.97.29Z"/>
      <g>
        <path class="cls-1" d="m210.23,22.19s.49-1.37,2.11-1.86c1.45-.44,2.8.42,3.2,1.76.47,1.55-.34,3.8-3.4,6.47-4.02-.53-5.94-1.96-6.41-3.52-.4-1.34.25-2.8,1.7-3.23,1.63-.49,2.79.39,2.79.39Z"/>
        <path class="cls-1" d="m198.42,26.41c1.48-.2,2.66-.43,3.8-.71.38-.09,1.06-.14,1.24-.53.09-.2.07-.41-.13-.55-.36-.25-.9.02-1.28.11-1.16.29-2.49.55-3.85.75-.25.04-.41.33-.36.57.06.27.31.4.57.36h0Z"/>
        <path class="cls-1" d="m218.56,24.63c.56-.13,1.11-.26,1.67-.4.53-.13,1.18-.19,1.64-.5.34-.22.25-.73-.17-.77-.55-.06-1.15.19-1.68.32-.56.14-1.11.27-1.67.42-.59.16-.39,1.07.21.93h0Z"/>
        <path class="cls-1" d="m205.32,32.45c.41-1.34,1.18-1.91,1.72-2.52.29-.32-.03-.79-.44-.62-1.12.47-1.86,1.75-2.19,2.86-.17.59.73.86.91.27h0Z"/>
        <path class="cls-1" d="m212.45,33.83c-.16-.57-.21-1.15-.13-1.74.05-.36.49-1.44-.2-1.45-.65-.01-.74,1.08-.78,1.54-.06.62,0,1.26.18,1.85.17.59,1.1.39.93-.21h0Z"/>
        <path class="cls-1" d="m216.32,29.18c.36.15.73.3,1.09.45.36.15.74.4,1.13.22.22-.1.25-.35.18-.55-.14-.36-.69-.47-1.02-.6-.36-.15-.73-.29-1.09-.44-.24-.1-.53.09-.6.32-.08.27.08.5.32.6h0Z"/>
        <path class="cls-1" d="m205.58,19.7c-1.87-2.56-1.85-2.58-2.15-2.75-.3-.18-.71.09-.63.45.08.35.08.29,2.05,2.98.16.21.51.19.69.03.21-.2.18-.48.03-.69h0Z"/>
        <path class="cls-1" d="m210.65,18.44c.07-.52.09-1.04.05-1.56-.04-.48-.03-1.23-.54-1.45-.11-.05-.28,0-.36.08-.33.36-.09.98-.06,1.42.04.49.02.98-.03,1.46-.02.25.21.48.46.49.28.01.46-.2.49-.46h0Z"/>
        <path class="cls-1" d="m217.93,17.18c.03-.24-.19-.4-.4-.43-.42-.06-.83.43-1.11.7-.32.31-.61.65-.88,1.01-.15.21-.05.53.16.66.24.15.5.05.66-.16,1.06-1.32,1.5-1.21,1.57-1.79Z"/>
      </g>
      <path class="cls-1" d="m152.11,34.87l.8-4.78h-2.2c-.48,0-.87-.39-.87-.87h0c0-.48.39-.87.87-.87h2.54l.71-4.29h-2.35c-.48,0-.87-.39-.87-.87h0c0-.48.39-.87.87-.87h2.69l.85-4.92c.07-.42.43-.72.86-.72h.41c.54,0,.95.48.86,1.01l-.77,4.63h3.9l.85-4.92c.07-.42.43-.72.86-.72h.45c.54,0,.95.48.86,1.01l-.77,4.63h2.2c.48,0,.87.39.87.87h0c0,.48-.39.87-.87.87h-2.54l-.67,4.29h2.35c.48,0,.87.39.87.87h0c0,.48-.39.87-.87.87h-2.69l-.85,5.07c-.07.42-.43.73-.86.73h-.48c-.54,0-.95-.48-.86-1.02l.8-4.78h-3.9l-.85,5.07c-.07.42-.43.73-.86.73h-.48c-.54,0-.95-.48-.86-1.02Zm7.29-6.52l.71-4.29h-3.9l-.71,4.29h3.9Z"/>
      <path class="cls-15" d="m18.18,131.11l-2.34-3.23-3.99.1c-.45.01-.72-.5-.46-.87l2.35-3.23-1.33-3.77c-.15-.43.25-.84.69-.7l3.8,1.24,3.17-2.43c.36-.28.88-.02.88.44v3.99s3.28,2.27,3.28,2.27c.37.26.29.83-.14.97l-3.8,1.23-1.14,3.83c-.13.44-.7.53-.97.17Z"/>
      <g>
        <rect class="cls-8" x="73.47" y="43.1" width="25.1" height="17.41" rx="3.76" ry="3.76" transform="translate(-2.02 3.51) rotate(-2.31)"/>
        <polygon class="cls-8" points="97.71 48.96 104.83 56.94 95.69 54.77 97.71 48.96"/>
        <path class="cls-11" d="m80.94,50.8l2.25-.15s2.73-2.25,2.78-3.01c.05-.75-.49-2.31-.06-2.53.43-.22,1.35-.42,1.99.54.46.7.23,3.34.5,3.5.17.1,1.46.05,2.41,0,.62-.03,1.21.28,1.53.82h0c.21.36.15.83-.16,1.11l-.48.44.42.51c.31.38.26.93-.11,1.25l-.38.32.29.3c.37.38.32,1-.09,1.32l-.34.26.06.09c.24.39.14.91-.23,1.18l-.34.25-5.99.39c-.56.04-1.12-.04-1.65-.23l-2.13-.21c-.23-.02-.41-.21-.42-.44l-.26-5.24c-.01-.25.18-.47.43-.49Z"/>
      </g>
      <path class="cls-33" d="m459.26,55.45c.68,1.34,2.14,1.98,3.29,1.42,1.16-.56,1.56-2.14.89-3.53-.67-1.38-2.16-2.05-3.32-1.48-.3.15-.55.36-.75.63l-1.76-3.97,6.74-1.05,3,6.79h0s0,.02.01.02c.67,1.38,2.16,2.05,3.32,1.48,1.16-.56,1.56-2.14.89-3.53-.67-1.38-2.16-2.05-3.32-1.48-.3.15-.55.36-.75.63l-3.22-7.27c-.1-.23-.33-.38-.55-.34l-8.4,1.54c-.28.05-.41.38-.28.69l4.18,9.45h0Z"/>
      <polygon class="cls-20" points="508.41 80.11 502.75 77.63 501.47 81.54 499.59 80.92 501.56 74.95 507.18 77.42 508.62 72.8 513.79 74.95 515.92 70.41 517.71 71.24 514.78 77.5 509.86 75.45 508.41 80.11"/>
      <path class="cls-20" d="m329.91,38.85c-.4,3.15,2.88,5.65,5.79,5.45,3.22-.22,5.96-2.86,6.43-6.03.51-3.43-1.55-6.17-4.74-6.42-3.1-.24-5.09,2.52-4.19,5.3.64,2,2.47,2.74,3.38,2.19.72-.43.67-1.51-.19-1.7-.35-.08-.71.12-.89.38-.76-.3-1.48-1.68-.99-3.17.63-1.9,3.03-2.01,4.53-1.13,1.9,1.13,2.2,3.57,1.51,5.51-.73,2.04-2.73,3.64-4.91,3.8-2.47.18-4.64-1.72-4.84-4.17-.05-.58-.82-.57-.89,0Z"/>
      <g>
        <path class="cls-8" d="m43.04,67.83c10.31,1.92,17.71,8.61,16.53,14.94-.59,3.17-3.21,5.64-6.98,7.09l2.44,10.12-7.45-8.9c-2.72.34-5.72.26-8.82-.32-10.31-1.92-17.71-8.61-16.53-14.94,1.18-6.33,10.49-9.91,20.8-7.99Z"/>
        <g>
          <path class="cls-9" d="m47.76,81.74c-1.58,3.29-5.53,4.68-8.83,3.1-3.29-1.58-4.68-5.54-3.1-8.83,1.58-3.29,5.53-4.68,8.83-3.1,3.29,1.58,4.68,5.54,3.1,8.83Z"/>
          <path class="cls-10" d="m38.16,78.29c-.85,1.76-.1,3.88,1.66,4.72,1.76.85,3.87.1,4.72-1.66l-6.38-3.06Z"/>
        </g>
      </g>
      <path class="cls-8" d="m424.95,36.8s4.11.04,7.55-2.42c3.44-2.46,5.99-6.91,5.99-6.91l-5.76-2.77s1.49,6.05-7.78,12.09Z"/>
      <path class="cls-3" d="m424.32,33.71l-.13,3.48,2.8,2.08c.32.24.23.74-.16.84l-3.35.95-1.12,3.3c-.13.38-.63.44-.85.11l-1.94-2.89-3.49-.04c-.4,0-.62-.46-.37-.77l2.15-2.74-1.04-3.33c-.12-.38.25-.73.62-.59l3.27,1.2,2.84-2.02c.32-.23.77.01.76.41Z"/>
      <g>
        <path class="cls-3" d="m262.53,10.26c-.14-2.06,1.41-3.84,3.47-3.99,2.06-.14,3.84,1.41,3.99,3.47.14,2.06-1.41,3.84-3.47,3.99-2.06.14-3.84-1.41-3.99-3.47Z"/>
        <path class="cls-3" d="m268.86,20.81c-.22-1.08-.36-2.24-.73-3.29-.32-.9-1.72-.62-1.65.34.09,1.18.46,2.38.7,3.54.1.47.72.69,1.13.54.5-.18.64-.66.54-1.13h0Z"/>
        <path class="cls-3" d="m275.27,16.18c-1.24-.73-2.32-1.63-3.46-2.5-.89-.67-1.85.49-1.12,1.29,1.05,1.15,2.44,2.05,3.77,2.84.42.25,1.01,0,1.22-.41.23-.47.01-.97-.41-1.22h0Z"/>
        <path class="cls-3" d="m272.92,9.49c-.28.22-.34.55-.16.86.42.76,1.48.72,2.24.7.79-.03,1.58-.19,2.32-.44,1.1-.38.5-2.08-.6-1.71-2.16.74-2.98-.06-3.79.59Z"/>
        <path class="cls-3" d="m271.73,2.23c-1.09,1.59-1.98,2.13-1.84,3,.08.51.49.76.98.64.58-.13.9-.75,1.25-1.19.34-.42.67-.83.96-1.28.27-.4.31-.92-.09-1.27-.33-.29-1-.32-1.27.09h0Z"/>
        <path class="cls-3" d="m267.49,1.95c-.35-.96-.42-1.32-.87-1.76-.39-.39-1.22-.14-1.27.43-.06.67.08.92.44,1.93.17.46.69.72,1.15.55.46-.16.72-.69.55-1.15h0Z"/>
        <path class="cls-3" d="m262.92,4.28c-1.57-1.19-1.89-1.53-2.5-1.46-.36.04-.77.38-.69.79.15.75.58.96,2.03,2.01.39.28.92.3,1.25-.09.3-.34.3-.96-.09-1.25h0Z"/>
        <path class="cls-3" d="m256.62,9.74c-.62.33-.37,1.4.3,1.48.64.08.89-.02,4-.59.48-.09.88-.44.84-.97-.03-.45-.48-.93-.97-.84-3.23.58-3.56.58-4.18.91Z"/>
        <path class="cls-3" d="m261.5,14.83c-1.71,1.65-1.96,1.36-2.63,2.37-.31.46.2,1.2.74,1.1.69-.13.87-.24,1.77-.95.52-.41,1.02-.86,1.5-1.32.35-.34.26-.98-.09-1.29-.4-.35-.93-.25-1.29.09h0Z"/>
      </g>
    </g>
  </g>
</svg>
